<svg width="103" height="103" viewBox="0 0 103 103" fill="none" xmlns="http://www.w3.org/2000/svg">
<g clip-path="url(#clip0_348_1229)">
<path d="M51.5472 0C65.698 0 79.8516 0 94.0025 0C99.533 0 102.978 3.46209 102.978 9.01864C102.978 28.5012 102.978 47.9866 102.978 67.4692C102.978 72.9397 99.5025 76.4101 94.033 76.4157C92.3023 76.4157 90.5716 76.4407 88.8436 76.4018C88.2279 76.3879 87.9866 76.5294 88.0143 77.198C88.067 78.4769 88.0393 79.7585 88.0282 81.0374C88.0143 82.4605 87.4208 83.1263 86.0034 83.0292C84.869 82.9515 84.6666 83.3648 84.686 84.3996C84.7526 87.6869 84.7054 90.9742 84.711 94.2616C84.7165 97.6293 86.7717 99.6655 90.1638 99.6683C94.1079 99.6738 98.0519 99.6877 101.996 99.6544C102.723 99.6489 103.017 99.7626 103.003 100.595C102.961 102.992 103.003 102.994 100.565 102.994C97.0368 102.994 93.506 103.006 89.978 102.994C84.9883 102.975 81.4104 99.4048 81.391 94.4224C81.3771 90.9631 81.3688 87.501 81.4048 84.0417C81.4132 83.3121 81.2911 83.0181 80.4618 83.0403C78.5314 83.0902 78.0682 82.5825 78.0654 80.685C78.0654 79.5088 78.0488 78.3326 78.0738 77.1564C78.0849 76.6681 78.0127 76.4046 77.4136 76.4101C73.955 76.4351 70.4935 76.4296 67.0349 76.4157C66.5911 76.4157 66.433 76.5544 66.433 77.0093C66.4469 81.0596 66.4469 85.107 66.433 89.1572C66.433 89.6427 66.6521 89.7259 67.0626 89.7203C67.6506 89.7092 68.2469 89.6843 68.8238 89.773C71.2674 90.1392 73.0369 92.1643 73.0758 94.661C73.109 96.8054 73.0979 98.9526 73.0785 101.097C73.0674 102.381 72.4489 103 71.1481 103C58.0346 103.008 44.9211 103.008 31.8075 103C30.5233 103 29.9132 102.37 29.9048 101.072C29.8882 98.9609 29.8799 96.8498 29.9048 94.7387C29.9409 91.8897 32.0627 89.7758 34.9056 89.7176C35.1136 89.712 35.3244 89.6898 35.5269 89.7203C36.3257 89.8424 36.5725 89.5539 36.5615 88.7189C36.5143 84.9461 36.5088 81.1733 36.5615 77.4033C36.5725 76.5322 36.2675 76.4074 35.5047 76.4101C26.6459 76.4351 17.7898 76.4268 8.93096 76.424C3.46976 76.4157 0 72.937 0 67.4581C0 47.9394 0 28.4208 0 8.90213C0 3.49261 3.48363 0 8.88381 0C23.104 0 37.327 0 51.5472 0ZM51.5472 3.32339C37.2243 3.32339 22.9043 3.32061 8.58148 3.32616C5.46397 3.32616 3.32831 5.42616 3.32831 8.5082C3.31999 25.2888 3.32831 42.0722 3.30612 58.8528C3.30612 59.6323 3.50582 59.8237 4.27965 59.8237C19.1544 59.7988 34.0319 59.7988 48.9067 59.8237C49.7332 59.8237 49.858 59.5491 49.8469 58.8223C49.8053 56.2285 49.7748 53.6319 49.858 51.0381C49.8913 50.0117 49.5945 49.7592 48.6072 49.812C47.1066 49.8896 46.5186 49.2599 46.5131 47.7841C46.502 45.8477 46.5048 43.9086 46.5131 41.9723C46.5186 40.4632 47.0872 39.8751 48.5628 39.8751C53.8548 39.8668 59.1496 39.8668 64.4416 39.8751C65.8478 39.8751 66.433 40.4826 66.4413 41.9196C66.4524 43.72 66.4441 45.5176 66.4413 47.318C66.4413 49.3903 66.0364 49.8341 63.9784 49.8231C63.3155 49.8203 63.0936 49.9839 63.1047 50.6775C63.1435 53.446 63.1352 56.2146 63.1102 58.9804C63.1047 59.5741 63.2073 59.832 63.8924 59.8209C66.6937 59.7821 69.4978 59.7821 72.2992 59.8209C72.9537 59.8293 73.109 59.6268 73.1035 58.9998C73.0702 56.37 73.0369 53.7401 73.1146 51.113C73.1451 50.0838 72.9066 49.7426 71.8332 49.812C70.3549 49.9063 69.7752 49.2516 69.7696 47.7563C69.7613 45.7839 69.7558 43.8116 69.7696 41.8392C69.7807 40.4854 70.3826 39.8806 71.7444 39.8779C77.0725 39.8695 82.4006 39.8695 87.7259 39.8779C89.0794 39.8779 89.6812 40.4909 89.6923 41.8503C89.7062 43.7172 89.6979 45.587 89.6951 47.4567C89.6951 49.357 89.2264 49.8702 87.3043 49.8203C86.4861 49.7981 86.3446 50.0783 86.3557 50.8162C86.3973 53.5154 86.4001 56.2146 86.3557 58.911C86.3446 59.6462 86.5554 59.832 87.2793 59.8265C91.0153 59.7904 94.7514 59.7793 98.4874 59.832C99.4082 59.8459 99.6883 59.6351 99.6856 58.6641C99.6523 42.0916 99.6634 25.5163 99.6606 8.94374C99.6606 5.29023 97.683 3.33171 93.9997 3.33171C79.8516 3.33171 65.7008 3.33171 51.5527 3.33171L51.5472 3.32339ZM51.4889 63.1277H20.139C14.8803 63.1277 9.61881 63.1499 4.36008 63.1055C3.46421 63.0972 3.2451 63.3635 3.30334 64.2068C3.37823 65.2749 3.31999 66.3512 3.32276 67.4248C3.32276 71.1587 5.27537 73.0978 9.03081 73.0978C30.8312 73.0978 52.6289 73.0978 74.4293 73.0978C81.1414 73.0978 87.8562 73.1117 94.5683 73.0923C97.4833 73.084 99.6079 70.9507 99.6523 68.049C99.6717 66.8034 99.5996 65.555 99.6745 64.3122C99.7299 63.3996 99.497 63.1055 98.5123 63.1083C82.8388 63.1443 67.1625 63.1332 51.4889 63.1332V63.1277ZM51.5388 76.4185C47.9775 76.4185 44.4163 76.449 40.855 76.3963C40.0118 76.3852 39.8371 76.6459 39.8454 77.4366C39.8842 81.2399 39.8787 85.046 39.8482 88.8493C39.8426 89.5123 40.0063 89.7259 40.7024 89.7231C47.8943 89.6981 55.0863 89.6981 62.2809 89.7231C62.9799 89.7231 63.1352 89.5039 63.1297 88.8465C63.1019 85.0071 63.0964 81.1677 63.1297 77.3284C63.1352 76.6154 62.966 76.3907 62.2227 76.399C58.6614 76.4379 55.1001 76.4157 51.5388 76.4157V76.4185ZM51.4806 99.6766C57.2552 99.6766 63.027 99.6627 68.7989 99.696C69.5644 99.7016 69.8196 99.5213 69.7752 98.7306C69.7058 97.4546 69.7752 96.1729 69.7502 94.8941C69.728 93.6734 69.1068 93.0409 67.8808 93.0409C56.9557 93.0326 46.0333 93.0326 35.1081 93.0409C33.835 93.0409 33.2359 93.679 33.222 94.9828C33.2054 96.2284 33.2664 97.474 33.1999 98.7168C33.161 99.4797 33.3663 99.7044 34.1595 99.6988C39.9314 99.6628 45.706 99.6794 51.4778 99.6794L51.4806 99.6766ZM59.793 54.7887C59.793 53.3711 59.7708 51.9536 59.8041 50.5388C59.8152 50.0006 59.6544 49.8203 59.1052 49.8314C57.344 49.8619 55.58 49.8536 53.8187 49.8341C53.3555 49.8286 53.1364 49.9257 53.142 50.4555C53.1642 53.3573 53.1614 56.2618 53.142 59.1635C53.1392 59.6545 53.289 59.8237 53.7882 59.8182C55.5494 59.7932 57.3134 59.7821 59.0747 59.8237C59.6987 59.8376 59.818 59.5962 59.8069 59.0414C59.7736 57.6266 59.7958 56.2091 59.7958 54.7915L59.793 54.7887ZM76.4013 54.8248C76.4013 56.2063 76.4235 57.5906 76.3902 58.9721C76.3763 59.5491 76.4568 59.8459 77.1585 59.8265C78.8837 59.7738 80.6144 59.7932 82.3395 59.8182C82.8665 59.8265 83.0607 59.685 83.0551 59.1274C83.0302 56.259 83.0302 53.3906 83.0551 50.5221C83.0607 49.9618 82.8637 49.8231 82.3395 49.8314C80.6116 49.8591 78.8837 49.8619 77.1585 49.8314C76.5843 49.8203 76.3708 49.9701 76.3902 50.5776C76.4318 51.9924 76.4041 53.41 76.4041 54.8275L76.4013 54.8248ZM56.4176 46.5191H60.6667C63.1546 46.5191 63.1186 46.5191 63.1352 44.0557C63.1408 43.2706 62.8384 43.1763 62.1728 43.1846C58.8916 43.2151 55.6077 43.1985 52.3265 43.1985C49.7693 43.1985 49.7915 43.1985 49.8137 45.7146C49.8192 46.3332 49.9579 46.5524 50.6152 46.5357C52.5484 46.4913 54.4844 46.5191 56.4203 46.5191H56.4176ZM79.7462 46.5191H83.9954C86.4001 46.5191 86.3668 46.5191 86.3862 44.0834C86.3918 43.3372 86.1616 43.1707 85.4543 43.1791C82.1731 43.2151 78.8892 43.1957 75.608 43.1957C72.9815 43.1957 73.0036 43.1957 73.0647 45.7867C73.0785 46.3887 73.2671 46.5385 73.8385 46.5302C75.8077 46.4997 77.777 46.5191 79.7462 46.5191ZM84.7082 78.119C84.7082 76.9872 84.2959 76.4212 83.4712 76.4212C82.0807 76.4212 81.3854 76.842 81.3854 77.6835C81.3854 79.0557 81.8495 79.7428 82.7778 79.7446C84.0647 79.7446 84.7082 79.2027 84.7082 78.119Z" fill="black"/>
<path d="M68.1025 33.2261C59.4877 33.2261 50.8702 33.2261 42.2554 33.2261C40.3444 33.2261 39.8618 32.7462 39.8618 30.8431C39.8618 24.6485 39.8618 18.4539 39.8618 12.2593C39.8618 10.4867 40.3749 9.9707 42.1389 9.9707C59.4406 9.9707 76.7395 9.9707 94.0411 9.9707C95.8134 9.9707 96.3321 10.4867 96.3321 12.2482C96.3321 18.4789 96.3321 24.7068 96.3321 30.9374C96.3321 32.7073 95.8134 33.2289 94.055 33.2289C85.4041 33.2289 76.7533 33.2289 68.1053 33.2289L68.1025 33.2261ZM68.1025 29.9027C76.0572 29.9027 84.0146 29.8944 91.9692 29.9166C92.7209 29.9166 93.0426 29.8139 93.0343 28.9318C92.9871 24.0188 92.9955 19.1059 93.0287 14.1929C93.0343 13.4689 92.8485 13.2719 92.1135 13.2719C76.0988 13.2941 60.0841 13.2941 44.0694 13.2719C43.3177 13.2719 43.1652 13.5021 43.1679 14.2068C43.1984 19.0837 43.2068 23.9633 43.1624 28.8402C43.1541 29.7002 43.3676 29.9249 44.2358 29.9221C52.1904 29.886 60.1478 29.8999 68.1025 29.8999V29.9027Z" fill="black"/>
<path d="M6.64844 29.8661C6.66785 25.1223 11.4883 21.9515 15.8678 23.8379C16.4891 24.107 16.8303 24.0349 17.2851 23.5688C19.2183 21.5881 21.1793 19.6352 23.1513 17.6961C23.5618 17.291 23.6838 16.9609 23.498 16.3562C22.8074 14.1119 23.7532 11.7983 25.7363 10.6443C27.6944 9.5041 30.1407 9.8259 31.7522 11.4377C33.3581 13.0466 33.6771 15.499 32.5343 17.4575C31.3805 19.4382 29.0757 20.3647 26.8152 19.6934C26.2854 19.5353 25.9554 19.5547 25.5504 19.968C23.5701 21.9987 21.562 24.0044 19.5345 25.9851C19.1157 26.3929 19.0602 26.7064 19.3154 27.2334C20.1558 28.9867 20.1558 30.7843 19.321 32.5375C19.0713 33.0646 19.2072 33.3226 19.5955 33.6638C23.1984 36.8457 26.793 40.0387 30.3737 43.2484C30.7925 43.6229 31.1198 43.6617 31.6579 43.4786C33.8934 42.7213 36.2121 43.5785 37.4353 45.537C38.6446 47.4734 38.406 49.9118 36.8445 51.5735C35.283 53.2352 32.8533 53.6319 30.8591 52.5444C28.8261 51.4376 27.8109 49.1711 28.4488 46.9102C28.6374 46.2417 28.4294 45.9226 27.9773 45.5259C24.4743 42.4384 20.9796 39.3424 17.507 36.2216C16.9856 35.7527 16.6028 35.6279 15.9011 35.9442C11.5327 37.8999 6.6318 34.6542 6.65121 29.8633L6.64844 29.8661ZM16.6056 29.8966C16.6056 28.0934 15.1107 26.5926 13.3106 26.5815C11.5022 26.5704 9.99616 28.0435 9.9712 29.8522C9.94623 31.697 11.4745 33.2366 13.3189 33.22C15.119 33.2033 16.6084 31.6998 16.6084 29.8966H16.6056ZM28.2852 16.6031C29.1838 16.5753 29.9161 15.7958 29.8883 14.8997C29.8606 14.0009 29.0812 13.2686 28.1854 13.2963C27.2867 13.3241 26.5545 14.1008 26.585 14.9996C26.6127 15.8984 27.3893 16.6308 28.288 16.6031H28.2852ZM33.2055 49.8286C34.1014 49.8341 34.8614 49.0851 34.8697 48.1863C34.8752 47.2875 34.1292 46.5302 33.2277 46.5218C32.3291 46.5163 31.5719 47.2625 31.5664 48.1641C31.5608 49.0629 32.3069 49.823 33.2083 49.8286H33.2055Z" fill="black"/>
<path d="M81.3853 68.1026C81.3853 69.2159 80.7224 69.7726 79.3966 69.7726C78.5072 69.7726 78.0625 69.1013 78.0625 67.7586C78.0625 66.8857 78.742 66.4492 80.1011 66.4492C80.9553 66.4492 81.3825 67.0003 81.3825 68.1026H81.3853Z" fill="black"/>
<path d="M86.4444 66.4481C87.5003 66.4481 88.0282 66.9668 88.0282 68.0044C88.0282 69.1806 87.4318 69.7687 86.2392 69.7687C86.1005 69.7687 85.9591 69.7493 85.8259 69.7715C84.9439 69.9213 84.5223 69.6189 84.7026 68.6757C84.7359 68.5093 84.7082 68.3317 84.7082 68.1597C84.7082 67.0168 85.2878 66.4453 86.4472 66.4453L86.4444 66.4481Z" fill="black"/>
<path d="M94.6735 68.1414C94.6735 69.2289 94.0328 69.7726 92.7514 69.7726C91.8176 69.7726 91.3517 69.0883 91.3535 67.7198C91.3535 66.8727 92.046 66.4492 93.4309 66.4492C94.2593 66.4492 94.6735 67.0133 94.6735 68.1414Z" fill="black"/>
<path d="M67.986 19.9357C61.1741 19.9357 54.3594 19.9163 47.5475 19.9579C46.6571 19.9635 46.4658 19.7027 46.4852 18.8622C46.5407 16.6151 46.499 16.6123 48.7567 16.6123C62.0034 16.6123 75.2473 16.6207 88.494 16.5957C89.3676 16.5957 89.7587 16.7122 89.7171 17.7386C89.6284 19.933 89.6922 19.9357 87.4899 19.9357C80.9886 19.9357 74.4873 19.9357 67.9833 19.9357H67.986Z" fill="black"/>
<path d="M68.1303 26.578C61.2823 26.578 54.4343 26.5641 47.5863 26.5974C46.757 26.6002 46.4574 26.4476 46.4824 25.5433C46.5434 23.2574 46.4963 23.2546 48.8205 23.2546C62.0311 23.2546 75.2445 23.2657 88.4551 23.2324C89.4148 23.2324 89.7643 23.3961 89.7199 24.4447C89.6284 26.5752 89.6949 26.578 87.5315 26.578C81.0635 26.578 74.5955 26.578 68.1303 26.578Z" fill="black"/>
</g>
<defs>
<clipPath id="clip0_348_1229">
<rect width="103" height="103" fill="white"/>
</clipPath>
</defs>
</svg>
