<svg width="20" height="20" viewBox="0 0 20 20" fill="none" xmlns="http://www.w3.org/2000/svg">
<path fill-rule="evenodd" clip-rule="evenodd" d="M19.4287 1.357C19.4287 1.14862 19.3459 0.948786 19.1986 0.801443C19.0513 0.6541 18.8514 0.571325 18.643 0.571325L9.21496 0.571324C9.00659 0.571324 8.80675 0.654099 8.65941 0.801442C8.51206 0.948785 8.42929 1.14862 8.42929 1.357C8.42929 1.56537 8.51206 1.76521 8.65941 1.91255C8.80675 2.05989 9.00659 2.14267 9.21496 2.14267L16.7464 2.14267L0.801973 18.0855C0.654446 18.2331 0.571566 18.4332 0.571566 18.6418C0.571566 18.8504 0.654446 19.0505 0.801973 19.1981C0.949501 19.3456 1.14959 19.4285 1.35823 19.4285C1.56687 19.4285 1.76696 19.3456 1.91449 19.1981L17.8574 3.25361L17.8574 10.7851C17.8574 10.9934 17.9401 11.1933 18.0875 11.3406C18.2348 11.488 18.4347 11.5707 18.643 11.5707C18.8514 11.5707 19.0513 11.488 19.1986 11.3406C19.3459 11.1933 19.4287 10.9934 19.4287 10.7851L19.4287 1.357Z" fill="white"/>
</svg>
