<svg xmlns="http://www.w3.org/2000/svg" width="21.625" height="20.625" viewBox="0 0 21.625 20.625">
  <defs>
    <style>
      .cls-1 {
        fill: #8d8d8d;
        fill-rule: evenodd;
      }
    </style>
  </defs>
  <path id="linked" class="cls-1" d="M895.305,308.748v13.877h4.575V308.748h-4.575Zm11.818,1.944V308.71H902.51v13.915h4.613V314.2s0.414-2.173,2.4-2.173A2.322,2.322,0,0,1,912,314.2v8.387h4.613V314.2c0-3.15-1.949-5.832-4.994-5.832A4.977,4.977,0,0,0,907.123,310.692Zm-9.569-3.889A2.409,2.409,0,1,0,895,304.44,2.321,2.321,0,0,0,897.554,306.8Z" transform="translate(-895 -302)"/>
</svg>
