<svg width="73" height="68" viewBox="0 0 73 68" fill="none" xmlns="http://www.w3.org/2000/svg">
<path d="M72.4754 20.9488C72.4754 19.0479 72.1796 17.2319 71.6304 15.5003C71.588 15.3736 71.5462 15.2045 71.5037 15.0778C71.4613 15.0354 71.4613 14.9511 71.4195 14.9087C70.9128 13.5152 70.2369 11.9944 69.181 10.6008C69.0967 10.4741 68.9701 10.305 68.8434 10.1783C68.4633 9.67157 68.0408 9.20668 67.5765 8.78479C67.4923 8.70053 67.4074 8.6581 67.3232 8.57385L58.6226 1.98508C56.9333 0.718248 54.8633 0 52.7516 0L20.0189 0.0424243C17.9495 0.0424243 15.922 0.718271 14.2327 1.94333L5.194 8.57389C5.15157 8.61631 5.15157 8.61631 5.10974 8.65814C4.94063 8.78483 4.72969 8.95393 4.56058 9.12245L4.47633 9.20671C4.30722 9.37582 4.09628 9.54434 3.92717 9.75587L3.88475 9.79829C3.71564 10.0092 3.5047 10.2208 3.33559 10.4317C3.16648 10.6851 2.99796 10.896 2.82885 11.15C2.65975 11.4033 2.53307 11.6567 2.36455 11.9101V11.9525C2.19544 12.2059 2.06876 12.5017 1.94207 12.755C1.6887 13.3042 1.43533 13.8533 1.26622 14.4025C1.2238 14.4868 1.2238 14.5716 1.18197 14.6559C1.09771 14.8668 1.05528 15.0359 0.971028 15.2475C0.928604 15.3317 0.928603 15.4166 0.886769 15.5008C0.80251 15.7966 0.71766 16.05 0.675832 16.3034C0.464894 17.0216 0.380046 17.6126 0.295786 17.9509V18.0775C0.0848484 19.1758 0 20.2317 0 21.1185L0.0424243 54.6959C0.0424243 62.0448 5.95527 68 13.2624 68H13.3048L59.3839 67.9576C62.9317 67.9576 66.226 66.5641 68.7179 64.0298C71.2098 61.4955 72.5613 58.1587 72.5613 54.6111L72.4754 20.9488ZM7.64358 14.6978C7.68601 14.6554 7.68601 14.6135 7.72784 14.5287C7.77027 14.4863 7.8121 14.402 7.85452 14.3596C7.98121 14.1486 8.15031 13.9371 8.277 13.768L8.40369 13.6413C8.44611 13.5989 8.44611 13.5989 8.48794 13.557C8.5722 13.4728 8.65705 13.4304 8.69888 13.3461L17.7382 6.67316C18.3716 6.20886 19.2166 5.91305 20.0191 5.91305L52.7518 5.87063C53.5967 5.87063 54.3993 6.16642 55.0744 6.67315L63.6483 13.1776C64.3665 13.8959 64.9151 14.6978 65.2958 15.5003L7.17945 15.5427C7.30613 15.2469 7.47465 14.9511 7.64376 14.6977L7.64358 14.6978ZM64.4506 59.8478C63.0571 61.2413 61.2405 62.0019 59.2979 62.0019L13.2187 62.0862C9.206 62.0862 5.91177 58.7918 5.91177 54.6949L5.86934 21.4554L66.562 21.3712L66.6045 54.6107C66.6045 56.5958 65.8444 58.4541 64.4509 59.8478H64.4506Z" fill="black"/>
<path d="M60.2693 50.3872H44.6421C42.9946 50.3872 41.6853 51.6965 41.6853 53.344C41.6853 54.9916 42.9946 56.3008 44.6421 56.3008H60.2693C61.9168 56.3008 63.2261 54.9916 63.2261 53.344C63.2261 51.6965 61.8744 50.3872 60.2693 50.3872Z" fill="black"/>
</svg>
