<svg width="49" height="69" viewBox="0 0 49 69" fill="none" xmlns="http://www.w3.org/2000/svg">
<path d="M14.9705 17.4411H30.4266C32.2801 17.4411 33.9928 16.4522 34.9201 14.8469C35.8468 13.2416 35.8468 11.2638 34.9201 9.65837C33.9928 8.05307 32.2802 7.06416 30.4266 7.06416H27.8547L27.8542 5.1485C27.8517 3.30806 26.8682 1.60901 25.274 0.689603C23.6799 -0.229868 21.7166 -0.229868 20.1224 0.689603C18.5283 1.60907 17.5447 3.30819 17.5422 5.1485V7.06416H14.9698C13.1163 7.06416 11.4031 8.05309 10.4763 9.65837C9.54956 11.2637 9.54956 13.2415 10.4763 14.8469C11.4031 16.4522 13.1162 17.4411 14.9698 17.4411H14.9705ZM14.9705 10.5881H30.4266C31.3441 10.5881 32.0877 11.3322 32.0877 12.2497C32.0877 13.1673 31.3441 13.9113 30.4266 13.9113H14.9705C14.053 13.9113 13.3094 13.1672 13.3094 12.2497C13.3094 11.3322 14.053 10.5881 14.9705 10.5881Z" fill="black"/>
<path d="M47.2319 58.397H8.11414L9.8827 61.3672L9.88221 65.0762L8.11415 68.0469H47.2319L49 65.0767V61.3672L47.2319 58.397Z" fill="black"/>
<path d="M3.69247 60.9317L0.356037 62.6404C0.137463 62.7522 0 62.9775 0 63.2233C0 63.4691 0.137462 63.694 0.356521 63.8057L3.68959 65.5111C3.70902 65.4717 3.73234 65.4324 3.75517 65.393L4.6489 63.8907V62.552L3.75517 61.0497H3.75468C3.73137 61.0118 3.71048 60.9724 3.69251 60.9316L3.69247 60.9317Z" fill="black"/>
<path d="M33.9879 43.9442V38.882V38.8825C33.9879 38.3608 33.7096 37.879 33.2579 37.6187L29.6053 35.5082V31.2873C29.6058 30.7656 29.3274 30.2838 28.8752 30.0239L25.2206 27.9134V25.75C25.8044 25.2974 26.143 24.5979 26.1357 23.8596C26.1289 23.0135 25.6723 22.2349 24.9369 21.8156C24.202 21.3965 23.2991 21.4004 22.5675 21.8254C21.8356 22.2504 21.3853 23.0329 21.3853 23.879C21.3848 24.6105 21.7224 25.3017 22.3004 25.7501V27.913L18.6458 30.0236C18.1941 30.2839 17.9152 30.7657 17.9157 31.2874V35.5083L14.2631 37.6188H14.2636C13.8119 37.8792 13.5335 38.361 13.5331 38.8821V43.0681L10.8382 44.5009H10.8387C10.4968 44.6831 10.2413 44.9935 10.1281 45.3641C10.0154 45.7342 10.0543 46.1344 10.236 46.4764C10.6153 47.188 11.4993 47.458 12.2114 47.0792L14.9646 45.6147L18.6463 47.7408H18.6458C19.098 48.0007 19.6542 48.0007 20.1064 47.7408L23.761 45.6303L27.4156 47.7408H27.4151C27.8673 48.0007 28.423 48.0007 28.8752 47.7408L33.2579 45.2098V45.2102C33.7096 44.9489 33.9879 44.4666 33.9879 43.9444L33.9879 43.9442ZM22.3005 43.1015L19.3759 44.7894L16.4538 43.1015V39.7258L19.3759 38.0379L22.3005 39.7258V43.1015ZM26.6852 35.5063L23.7606 37.1941L20.836 35.5063L20.8365 32.1305L23.761 30.4427L26.6852 32.1305L26.6852 35.5063Z" fill="black"/>
<path d="M5.17089 10.8695C3.63945 11.5452 2.33569 12.6496 1.41815 14.05C0.500618 15.4504 0.00807561 17.0863 0.000366211 18.7606V57.6694L4.04009 55.4676V18.7597C4.04203 17.4551 4.60013 16.2131 5.57501 15.3461C5.09026 13.9064 4.95183 12.372 5.17089 10.8687V10.8695Z" fill="black"/>
<path d="M41.3604 18.7607V54.357H45.4001V18.7607C45.3928 17.0854 44.8998 15.448 43.9808 14.0478C43.0618 12.6469 41.7562 11.5433 40.2222 10.8696C40.2893 11.3267 40.3233 11.7881 40.3233 12.2501C40.3247 13.3032 40.1542 14.3494 39.8186 15.347C40.7973 16.2116 41.3589 17.4546 41.3602 18.7607H41.3604Z" fill="black"/>
<path d="M16.776 51.1025C16.3292 51.1016 15.9003 51.2789 15.5841 51.5946C15.2679 51.9103 15.0901 52.3387 15.0901 52.7856C15.0901 53.2324 15.2679 53.6613 15.5841 53.977C15.9003 54.2928 16.3292 54.4696 16.776 54.4691H28.6253C29.0721 54.4696 29.501 54.2928 29.8177 53.977C30.1339 53.6613 30.3117 53.2324 30.3117 52.7856C30.3117 52.3387 30.1339 51.9103 29.8177 51.5946C29.501 51.2789 29.0721 51.1016 28.6253 51.1025H16.776Z" fill="black"/>
</svg>
