<svg xmlns="http://www.w3.org/2000/svg" width="124.813" height="116" viewBox="0 0 124.813 116">
  <defs>
    <style>
      .cls-1 {
        fill-rule: evenodd;
      }
    </style>
  </defs>
  <path id="give" class="cls-1" d="M84.673,0L86.31,0.3a9.136,9.136,0,0,1,0,7.733l-1.488.3a2.8,2.8,0,0,1-1.339-1.041c-0.941-1.362-.451-5.13,0-6.544ZM71.28,2.826c1.157,0.035,1.825.381,2.083,1.338A6.833,6.833,0,0,1,75,10.113c-3.455,1.819-6.549-3.952-4.762-6.692Zm27.083,0A2.925,2.925,0,0,1,100.6,4.164a9.391,9.391,0,0,1-2.827,6.544l-1.637-.149-1.19-1.041A7.989,7.989,0,0,1,98.363,2.826ZM60.119,11.005c2.275,0.139,5.476,2.948,5.506,5.354l-1.339,1.487c-2.392.026-4.966-2.355-5.655-4.015C58.116,12.155,59.042,11.569,60.119,11.005Zm49.256,0a3.125,3.125,0,0,1,2.083.744c0.952,2.784-2.571,6.049-5.208,6.1-0.928-.383-2.3-1.794-1.19-3.123C105.854,13.214,107.911,11.885,109.375,11.005ZM83.333,12.492c14.121-.2,26.635,11.882,21.727,27.364-1.707,5.383-5.2,8.311-8.631,11.9V54.58c5.513,3.778,3.1,8.579-1.042,11.6,0.178,7.708-3.2,8.477-10.714,8.477-2.5,0-5.1.168-6.7-.744-3.966-2.263-1.831-3.724-3.274-7.733l-2.679-1.933c-2.821-3.4-.651-7.691,1.786-9.667l-0.149-3.272-2.083-1.487a23.091,23.091,0,0,1-5.506-7.585c-4.984-11.7,1.5-22.624,8.929-27.215C77.465,13.5,80.284,13.688,83.333,12.492ZM77.827,53.836l14.583-.149c0-5.293,2.206-5.439,4.613-8.031a24.249,24.249,0,0,0,3.571-5.5C106.17,29.013,95,14.519,82.887,16.656,73.323,18.344,63.9,30.26,70.238,41.492,72.76,45.964,77.8,46.961,77.827,53.836ZM88.691,21.564c4.211,0.063,11.116,7.4,8.333,11.3l-1.339.3-1.339-.595c-1.016-2.173-1.773-4.431-3.571-5.8-1.389-1.058-2.766-1.129-3.571-2.826a1.738,1.738,0,0,1,.446-1.338A2.692,2.692,0,0,1,88.691,21.564ZM53.423,22.9c2.5,0.407,6.639,1.069,5.952,4.313l-0.893,1.041c-2.358.084-5.95-.806-6.7-2.379a2.8,2.8,0,0,1,0-2.082l0.744-.744Zm62.946,0,1.339,0.446c0.812,0.363,1.058.885,1.042,2.082q-0.224.52-.446,1.041c-2.491,1-5.328,2.657-7.59.595C110.709,23.449,113.972,24.017,116.369,22.9ZM54.762,36.287l2.827,0.3a4.569,4.569,0,0,1,.744,2.082c-1.2,1.84-4.734,2.5-7.44,1.785A3.988,3.988,0,0,1,50,38.369a4.019,4.019,0,0,1,1.042-1.338C51.925,36.467,53.712,36.731,54.762,36.287Zm58.333,0c2.5-.17,8.087-0.192,6.994,3.123-0.8,2.431-9.848,1.611-7.887-2.082ZM76.191,58c-0.741.765-1.358,0.929-1.488,2.38a3.088,3.088,0,0,0,1.488,1.785c2.264,0.724,17.928-.095,18.9-0.744l0.446-1.338L94.643,58.3C93.579,57.549,78.886,57.956,76.191,58ZM16.816,66.328c8.328-.127,18.467-0.763,24.256,1.785,6.809,3,12.593,7.568,18.3,11.749,2.227,1.63,4.312,4.661,6.994,5.651,7.985,2.947,25.285,3.709,25.149,13.98H112.8c3.366,0,7.4-.385,9.375,1.041,4.437,3.211,3.326,13.7-1.786,15.318L94.643,116l-30.506-.149-25.3-4.907c-7.011-1.683-13.217-3.1-22.024-3.123q-0.074,1.56-.149,3.123c-2.326,1.739-13.544,1.918-16.071.148-0.709-3.317-.3-8.071-0.3-11.9V75.4c0-3.968-.814-10.461.893-12.939,2.336-.477,14.275-0.866,15.179.595C16.987,63.6,16.876,65.15,16.816,66.328Zm-12.351,0v41.493l8.333-.149V66.328H4.464Zm74.4,0c-0.087,1.5-.1,2.829.744,3.421,1.055,1.658,10.235.682,11.458-.149l0.3-3.272h-12.5ZM16.816,70.492q0.074,16.58.149,33.164c8.279-.084,14.173,1.231,20.685,2.826l27.679,5.354h46.28c2.74,0,6.3.27,8.333-.446,0.972-1.908.825-5.9-.3-7.436-2.45-.649-6.274-0.3-9.226-0.3H91.22c-2.339,5.035-7.3,4.1-12.946,2.826l-14.137-2.826-8.929-5.2c-2.218-1.43-7-2.276-7.292-5.5A2.322,2.322,0,0,1,50.3,91.164l15.03,8.477,11.161,2.082,9.226,1.785,1.339-.744c0.317-1.075.684-4.1,0.149-5.354-1.894-3.761-18.422-6.381-23.363-8.328l-6.25-5.354c-5.425-4.76-12.68-9.878-19.94-12.492C32.46,69.367,23.3,70.476,16.816,70.492Z" transform="translate(-0.125)"/>
</svg>
