<svg width="69" height="69" viewBox="0 0 69 69" fill="none" xmlns="http://www.w3.org/2000/svg">
<path d="M66.6629 14.1436L53.9873 1.46809C52.9864 0.525188 51.6632 0 50.2878 0C48.9124 0 47.5892 0.525171 46.5883 1.46809C45.6294 2.4397 45.0929 3.75023 45.0935 5.115L3.23982 46.9687C1.16507 49.0508 0 51.87 0 54.809C0 57.748 1.16512 60.5672 3.23982 62.6493L5.52674 64.9362C7.60678 67.0149 10.4269 68.182 13.367 68.182C16.3072 68.182 19.1273 67.0149 21.2074 64.9362L63.061 23.0825C64.453 23.0785 65.7863 22.5207 66.7654 21.531C67.745 20.5414 68.2895 19.2028 68.2788 17.8108C68.2675 16.4188 67.7029 15.0881 66.7086 14.1139L66.6629 14.1436ZM53.0604 24.607L17.4694 60.1673C16.3617 61.2764 14.8589 61.8997 13.2914 61.8997C11.7238 61.8997 10.221 61.2764 9.11334 60.1673L7.96223 59.0315H7.9629C6.86717 57.9138 6.25322 56.411 6.25322 54.8462C6.25322 53.2814 6.86715 51.7786 7.9629 50.6608L35.9895 22.5437C36.2711 22.2634 36.6535 22.1079 37.0505 22.1099H51.9983C52.6015 22.1132 53.144 22.4783 53.3736 23.0368C53.6078 23.5933 53.4837 24.236 53.0593 24.6657L53.0604 24.607Z" fill="black"/>
</svg>
