<svg width="112" height="124" viewBox="0 0 112 124" fill="none" xmlns="http://www.w3.org/2000/svg">
<g clip-path="url(#clip0_348_1205)">
<path d="M104.847 51.5919C103 35.3158 92.8729 20.8461 78.1013 13.4388L78.2383 12.8759C78.5001 11.8108 78.3296 10.7064 77.7543 9.76838C77.1821 8.83036 76.2751 8.17072 75.2006 7.91049L68.903 6.38243V4.37023C68.903 1.96164 66.9336 0.00390625 64.5107 0.00390625H47.4867C45.0638 0.00390625 43.0945 1.96164 43.0945 4.37023V6.38243L36.7968 7.91049C35.7254 8.17072 34.8184 8.83036 34.2431 9.76838C33.6709 10.7064 33.4974 11.8108 33.7591 12.8759L33.8961 13.4388C21.2856 19.7628 12.0689 31.2187 8.48637 44.5658C7.89283 44.823 7.47583 45.4101 7.47583 46.0939C7.47583 46.4994 7.62193 46.8716 7.86543 47.159C7.55801 48.6205 7.31755 50.0971 7.14709 51.5919C3.10187 52.2213 -0.00585938 55.7101 -0.00585938 59.907V69.3023C-0.00585938 69.974 0.395924 70.549 0.971204 70.8122V76.7489C0.971204 77.5115 1.4917 78.1741 2.23438 78.3617L14.1418 81.3634C15.0336 84.4316 16.2694 87.3939 17.8248 90.1959L11.5393 100.69C11.1467 101.343 11.2532 102.178 11.795 102.717L22.3874 113.247C22.7101 113.568 23.1393 113.734 23.5715 113.734C23.8667 113.734 24.162 113.658 24.4268 113.501L34.9827 107.253C37.8013 108.799 40.7812 110.024 43.8676 110.914L46.884 122.751C47.0728 123.49 47.7393 124.007 48.5064 124.007H63.488C64.2551 124.007 64.9217 123.49 65.1104 122.751L68.1268 110.914C71.2132 110.027 74.1931 108.799 77.0117 107.253L87.5676 113.501C87.8324 113.658 88.1307 113.734 88.4229 113.734C88.8551 113.734 89.2843 113.568 89.6069 113.247L100.199 102.717C100.741 102.178 100.845 101.343 100.455 100.69L94.1696 90.1959C95.725 87.3939 96.9608 84.4316 97.8526 81.3634L109.76 78.3617C110.503 78.1741 111.023 77.5115 111.023 76.7489V70.8122C111.598 70.549 112 69.971 112 69.3023V59.907C112 55.7101 108.896 52.2213 104.847 51.5919ZM101.466 51.489H92.0876V49.268C92.0876 48.4329 92.7725 47.7551 93.6096 47.7551H100.833C101.094 48.9866 101.307 50.2303 101.466 51.489ZM47.4867 3.32933H64.5107C65.086 3.32933 65.5548 3.79532 65.5548 4.36721V9.15413C59.2845 7.92865 52.716 7.93168 46.4427 9.15413V4.36721C46.4427 3.79532 46.9114 3.32933 47.4867 3.32933ZM34.7149 16.7581L36.0998 22.3953C36.2855 23.1548 36.9703 23.6662 37.7252 23.6662C37.8561 23.6662 37.99 23.6511 38.1239 23.6178C39.0219 23.3999 39.5728 22.4982 39.3536 21.6056L37.016 12.0832C36.949 11.8108 37.0434 11.596 37.1073 11.4931C37.1712 11.3902 37.3173 11.2057 37.5913 11.1391L43.0975 9.80469V10.7972C43.0245 11.0604 43.0184 11.3418 43.0884 11.6263C43.0884 11.6384 43.0975 11.6474 43.0975 11.6565V30.0296C43.0975 30.9494 43.8463 31.6938 44.7716 31.6938C45.6969 31.6938 46.4457 30.9494 46.4457 30.0296V12.5461C52.7008 11.2299 59.3028 11.2329 65.5578 12.5461V30.0296C65.5578 30.9494 66.3066 31.6938 67.2319 31.6938C68.1572 31.6938 68.906 30.9494 68.906 30.0296V9.80469L74.4122 11.1391C74.6862 11.2057 74.8353 11.3902 74.8962 11.4931C74.9601 11.596 75.0545 11.8108 74.9875 12.0832L72.6499 21.6056C72.4307 22.4982 72.9817 23.3999 73.8796 23.6178C74.0135 23.6511 74.1474 23.6662 74.2783 23.6662C75.0332 23.6662 75.718 23.1578 75.9037 22.3953L77.2887 16.7581C88.3773 22.5557 96.556 32.6591 100.005 44.4267H93.6187C90.934 44.4267 88.7486 46.5992 88.7486 49.268V51.489H67.308V49.268C67.308 46.5962 65.1225 44.4267 62.4379 44.4267H49.5808C46.8962 44.4267 44.7108 46.5992 44.7108 49.268V51.489H23.0967V49.268C23.0967 46.5962 20.9112 44.4267 18.2266 44.4267H11.9989C15.4476 32.656 23.6232 22.5557 34.7149 16.7581ZM63.9507 51.489H48.0468V49.268C48.0468 48.4329 48.7316 47.7551 49.5687 47.7551H62.4257C63.2658 47.7551 63.9476 48.4359 63.9476 49.268V51.489H63.9507ZM11.1649 47.7551H18.2266C19.0667 47.7551 19.7485 48.4359 19.7485 49.268V51.489H10.5349C10.6901 50.2303 10.9062 48.9866 11.1649 47.7551ZM3.34842 59.907C3.34842 57.102 5.64345 54.8205 8.46506 54.8205H103.535C106.357 54.8205 108.652 57.102 108.652 59.907V67.6381H3.34842V59.907ZM84.6273 70.9665C83.7567 85.9143 71.2497 97.812 56.0002 97.812C40.7508 97.812 28.2437 85.9143 27.3732 70.9665H84.6303H84.6273ZM96.0933 78.3738C95.4663 78.5312 95.0127 79.0244 94.8758 79.6084C93.9596 83.0276 92.5868 86.3167 90.794 89.385C90.7819 89.4061 90.7758 89.4304 90.7636 89.4515C90.7392 89.4999 90.7179 89.5484 90.6966 89.5998C90.6753 89.6543 90.654 89.7057 90.6388 89.7602C90.6266 89.8056 90.6144 89.854 90.6053 89.9024C90.5931 89.9599 90.584 90.0204 90.5779 90.0779C90.5749 90.1263 90.5749 90.1747 90.5749 90.2201C90.5749 90.2776 90.5749 90.3351 90.581 90.3926C90.5871 90.441 90.5962 90.4894 90.6053 90.5378C90.6175 90.5953 90.6297 90.6498 90.6449 90.7073C90.6601 90.7527 90.6753 90.798 90.6966 90.8434C90.721 90.9009 90.7453 90.9584 90.7758 91.0129C90.7849 91.031 90.791 91.0522 90.8032 91.0704L96.9182 101.277L88.1672 109.976L77.9005 103.897C77.8822 103.885 77.8609 103.882 77.8426 103.87C77.7848 103.84 77.73 103.812 77.6691 103.788C77.6235 103.77 77.5809 103.752 77.5352 103.74C77.4804 103.722 77.4226 103.709 77.3647 103.7C77.316 103.691 77.2673 103.682 77.2186 103.676C77.1608 103.67 77.103 103.67 77.0451 103.67C76.9964 103.67 76.9477 103.67 76.9021 103.673C76.8412 103.679 76.7834 103.688 76.7255 103.7C76.6768 103.709 76.6312 103.718 76.5855 103.734C76.5307 103.749 76.476 103.77 76.4242 103.791C76.3725 103.812 76.3238 103.833 76.2751 103.858C76.2538 103.87 76.2294 103.876 76.2081 103.888C73.1247 105.673 69.8161 107.038 66.3766 107.946C65.7861 108.082 65.2899 108.533 65.1317 109.156L62.1944 120.669H49.8183L46.881 109.156C46.7227 108.533 46.2266 108.082 45.6391 107.946C42.1996 107.035 38.891 105.67 35.8046 103.888C35.7802 103.876 35.7559 103.867 35.7346 103.855C35.6889 103.83 35.6402 103.809 35.5915 103.791C35.5367 103.77 35.4819 103.749 35.4241 103.731C35.3784 103.718 35.3328 103.709 35.2871 103.7C35.2262 103.688 35.1654 103.679 35.1045 103.673C35.0588 103.67 35.0132 103.67 34.9675 103.67C34.9066 103.67 34.8458 103.67 34.7879 103.676C34.7392 103.682 34.6936 103.691 34.6449 103.7C34.587 103.712 34.5262 103.725 34.4683 103.743C34.4227 103.758 34.3801 103.773 34.3374 103.791C34.2766 103.815 34.2187 103.843 34.1609 103.873C34.1426 103.882 34.1213 103.888 34.1031 103.9L23.8363 109.979L15.0854 101.28L21.2004 91.0734C21.2125 91.0552 21.2186 91.0341 21.2278 91.0159C21.2582 90.9614 21.2825 90.904 21.3069 90.8465C21.3252 90.8011 21.3434 90.7557 21.3586 90.7073C21.3769 90.6528 21.3891 90.5983 21.3982 90.5408C21.4073 90.4894 21.4165 90.441 21.4226 90.3926C21.4286 90.3351 21.4286 90.2806 21.4286 90.2231C21.4286 90.1747 21.4286 90.1263 21.4256 90.0749C21.4195 90.0174 21.4104 89.9599 21.3982 89.9024C21.3891 89.854 21.3799 89.8056 21.3647 89.7571C21.3495 89.7027 21.3282 89.6512 21.3069 89.5998C21.2856 89.5484 21.2643 89.4999 21.2369 89.4485C21.2247 89.4273 21.2186 89.4031 21.2064 89.3819C19.4106 86.3137 18.0378 83.0276 17.1247 79.6054C16.9877 79.0183 16.5342 78.5282 15.9072 78.3708L4.32548 75.4509V70.9635H24.0189C24.8925 87.748 38.9032 101.137 56.0002 101.137C73.0973 101.137 87.108 87.748 87.9815 70.9635H107.675V75.4509L96.0933 78.3708V78.3738Z" fill="black"/>
</g>
<defs>
<clipPath id="clip0_348_1205">
<rect width="112" height="124" fill="white"/>
</clipPath>
</defs>
</svg>
