<svg xmlns="http://www.w3.org/2000/svg" width="125" height="92.969" viewBox="0 0 125 92.969">
  <defs>
    <style>
      .cls-1 {
        fill-rule: evenodd;
      }
    </style>
  </defs>
  <path id="embrace" class="cls-1" d="M28.322,0c2.71,0.086,13.939,11.6,14.86,14.011l-1.049,2.277c0.286,1.622,7.029,7.14,10.49,6.48l4.021-1.051,4.9,0.35c1.824-.318,3.921-1.706,6.294-2.1,9.439-1.573,12.04,6.323,18.531-2.452v-0.35L84.79,15.588V14.011C87.157,11.983,96.367,1.085,98.427.7c2.569-.479,5.52,4.462,6.818,5.78,4.852,4.928,9.769,9.848,14.685,14.712,1.712,1.693,4.9,3.2,5.07,6.305-0.992,1.95-12.981,13.8-14.336,13.486-1.153-.223-1.355-0.814-2.1-1.4L101.4,46.938c-1.518,3.368-1.624,7.081-3.147,10.158-1.9,3.838-5.061,6.419-7.517,9.633,3.527,6.4-.821,7.738-4.2,10.684,2.124,7.047-5.894,8.862-10.489,6.831-2.126,5.867-7.074,4.192-11.364,2.277a6.455,6.455,0,0,1-5.594,4.2l-2.8-.35c-1.077.332-2.123,1.892-3.5,2.277-5.573,1.563-8.323-3-9.091-7.181-4.651-.326-6.82-3.042-7.343-7.531-7.144-.447-8.748-6.947-5.594-12.26-2.252-3.083-5.015-5.64-6.818-9.282L20.8,46.412l-4.371-4.554H16.259l-1.748,1.226C12.286,42.809.246,30.779,0,28.548A143.412,143.412,0,0,1,13.811,14.537C18.822,9.883,23.136,4.491,28.322,0Zm0.524,4.729L4.9,28.9l9.091,9.282,24.3-23.994-0.35-.35C36.8,11.649,30.967,6.126,28.846,4.729ZM98.776,5.6l-9.091,8.932c0.813,2.488,4.358,4.717,6.119,6.48l15.21,15.237,0.35-.175L120.28,26.8ZM39.161,18.915L19.231,39.057v0.175c5.075,3.07,5.374,8.032,7.692,14.011a27.375,27.375,0,0,0,7.692,10.508c5.378-1.254,7.961,2.651,8.741,7.356,4.734-.092,7.215,3.006,7.517,7.356,5.791-.043,6.355,3.861,7.343,8.232h0.175c1.983-.179,2.236-1.052,2.972-2.452-0.787-5.591-13.878-11.7-14.51-17.164l1.049-1.4h1.923L60.14,75.836c2.743,2.835,5.6,7.17,9.441,8.757l2.273-.876,0.525-1.576c0.543-2.337-2.931-4.3-4.2-5.6C65.64,73.91,55.245,65.138,55.07,61.65l0.35-.876c3.091-1.077,4.362,1.568,6.119,3.328L74.476,76.887c1.749,1.752,4.9,6.6,7.867,3.328,0.921-3.4-1.731-4.513-3.671-6.48L65.734,60.424c-1.887-2.038-6.514-4.358-4.371-7.706h2.1L79.2,68.13c1.569,1.592,2.941,3.927,5.07,4.9h2.1l1.049-1.226c2.01-2.054-3.58-6.564-4.72-7.706l-20.8-20.667h-0.35c-3.6,6.051-17.084,14.419-19.58,1.4C40.544,37.464,53.8,30.705,56.469,25.746,47.955,29.156,43.282,23.063,39.161,18.915Zm50,1.4c-2.192,3.509-7.309,7.037-13.112,5.254-2.7-.829-6.125-2.254-9.965-1.226-5.812,1.557-9.672,7.413-13.461,11.209-1.984,1.987-8.968,6.373-5.944,10.684a4.518,4.518,0,0,0,5.769.876c3.455-2.393,8.836-11.5,13.112-11.91l1.4,0.876v1.4c-0.3,1.5-1.389,1.9-2.1,2.977,1.853,2.953,6.012,5.707,9.79,6.655l5.42-.35a1.548,1.548,0,0,1,.874.876c0.556,1.061.068,1.838-.525,2.627l-4.9,1.051L87.937,63.751c3.705-2.862,6.758-7.734,8.392-12.61l1.573-6.13c1.879-3.383,5.4-5.413,7.692-8.407Zm23.776,6.13,1.573,0.7a4.106,4.106,0,0,1,.35,2.1l-1.224,1.226a3.172,3.172,0,0,1-2.272-.7,4.22,4.22,0,0,1,0-2.627Zm-100.35,2.1,1.923,0.35c0.652,1.531.625,2.6-.7,3.5H12.238l-0.7-.876a1.759,1.759,0,0,1-.175-1.751A2.706,2.706,0,0,1,12.587,28.548ZM36.014,67.429L34.79,67.6l-1.573,1.751a4.27,4.27,0,0,0,0,2.8l1.573,1.4a3.03,3.03,0,0,0,2.8-.175c2.337-.918,1.686-3.735.524-5.254Zm7.343,7.531a7.737,7.737,0,0,0-2.8,2.1v2.452l1.748,1.576a4.247,4.247,0,0,0,2.8,0l1.4-1.226a4.451,4.451,0,0,0,0-2.8C45.985,75.709,44.993,75.186,43.357,74.961ZM50.7,82.316a7.122,7.122,0,0,0-2.8,2.1,3.945,3.945,0,0,0,.175,2.277c0.641,1.83,2.308,2.35,4.371,1.751l1.573-1.576C54.174,84.081,53.477,82.611,50.7,82.316Z"/>
</svg>
