<svg width="175" height="58" viewBox="0 0 175 58" fill="none" xmlns="http://www.w3.org/2000/svg">
<g clip-path="url(#clip0_456_5853)">
<path d="M34.4767 25.7946C33.7589 23.9818 32.0312 22.8065 30.0664 22.7969H30.0436C28.082 22.7969 26.3445 23.9657 25.6203 25.7753L24.1167 29.5265C23.5353 30.9819 23.7172 32.624 24.6038 33.9184C25.4904 35.2128 26.9616 35.9888 28.5432 35.9888H31.5278C33.1029 35.9888 34.5741 35.2192 35.4607 33.9281C36.3473 32.6369 36.5357 31.0012 35.9609 29.5458L34.4767 25.7946ZM30.0469 26.1134C30.3359 26.1134 31.0439 26.2035 31.3622 27.0053L32.8464 30.7565C33.0185 31.1944 32.9665 31.6709 32.697 32.0605C32.4307 32.4501 32.002 32.6723 31.5278 32.6723H28.5432C28.0658 32.6723 27.6404 32.4469 27.3708 32.0573C27.1045 31.6677 27.0493 31.1911 27.2279 30.75L28.7316 26.9988C29.0531 26.2003 29.7578 26.1134 30.0469 26.1134Z" fill="black"/>
<path d="M52.8304 33.6866C52.47 32.8462 51.4892 32.4501 50.6383 32.8043C49.7874 33.1617 49.3912 34.1341 49.7484 34.9777L56.8965 51.7437C57.0849 52.1849 57.0394 52.6679 56.7731 53.0639C56.5068 53.4632 56.0749 53.6918 55.5942 53.6918H46.3481C45.77 53.6918 45.2569 53.3505 45.0393 52.8192L42.688 47.1103C41.954 45.3265 40.223 44.1738 38.2809 44.1738H21.7049C19.7466 44.1738 18.0123 45.3394 17.2848 47.1393L14.9985 52.8095C14.7809 53.344 14.2678 53.6918 13.6832 53.6918H4.76186C4.27796 53.6918 3.84927 53.4632 3.58296 53.0639C3.31665 52.6646 3.27119 52.1849 3.45955 51.7437L23.7412 4.17299C23.962 3.65136 24.4751 3.31649 25.0435 3.31649H35.3126C35.8809 3.31649 36.394 3.65136 36.6149 4.17299L41.1096 14.7117C41.4701 15.5553 42.4509 15.9481 43.3018 15.594C44.1527 15.2366 44.5489 14.2641 44.1917 13.4205L39.6969 2.88181C38.95 1.13018 37.2287 0 35.3126 0H25.0435C23.1274 0 21.4061 1.13018 20.6591 2.88181L0.377524 50.4526C-0.246026 51.9144 -0.0901386 53.5759 0.793224 54.8992C1.67659 56.2226 3.16077 57.0115 4.76186 57.0115H13.6832C15.6415 57.0115 17.3758 55.8459 18.1032 54.046L20.3896 48.3757C20.6072 47.8412 21.1203 47.4935 21.7049 47.4935H38.2809C38.859 47.4935 39.3722 47.8348 39.5897 48.3661L41.941 54.0749C42.675 55.8588 44.406 57.0115 46.3481 57.0115H55.5942C57.1953 57.0115 58.6762 56.2226 59.5628 54.8992C60.4462 53.5759 60.6021 51.9144 59.9785 50.4526L52.8304 33.6866Z" fill="black"/>
<path d="M110.303 0.380859H103.606C100.42 0.380859 97.8284 2.95034 97.8284 6.10905V17.9261C97.8284 19.2559 96.7372 20.3378 95.3959 20.3378H84.4773C83.136 20.3378 82.0448 19.2559 82.0448 17.9261V6.10905C82.0448 2.95034 79.4532 0.380859 76.2672 0.380859H69.5706C66.3846 0.380859 63.793 2.95034 63.793 6.10905V51.2842C63.793 54.4429 66.3846 57.0124 69.5706 57.0124H76.2672C79.4532 57.0124 82.0448 54.4429 82.0448 51.2842V39.1613C82.0448 37.8315 83.136 36.7496 84.4773 36.7496H95.3959C96.7372 36.7496 97.8284 37.8315 97.8284 39.1613V43.7207C97.8284 44.6351 98.5786 45.3789 99.501 45.3789C100.423 45.3789 101.174 44.6351 101.174 43.7207V39.1613C101.174 36.0026 98.5819 33.4331 95.3959 33.4331H84.4773C81.2913 33.4331 78.6997 36.0026 78.6997 39.1613V51.2842C78.6997 52.614 77.6085 53.6959 76.2672 53.6959H69.5706C68.2293 53.6959 67.1381 52.614 67.1381 51.2842V6.10905C67.1381 4.77924 68.2293 3.69735 69.5706 3.69735H76.2672C77.6085 3.69735 78.6997 4.77924 78.6997 6.10905V17.9261C78.6997 21.0848 81.2913 23.6543 84.4773 23.6543H95.3959C98.5819 23.6543 101.174 21.0848 101.174 17.9261V6.10905C101.174 4.77924 102.265 3.69735 103.606 3.69735H110.303C111.644 3.69735 112.735 4.77924 112.735 6.10905V51.2842C112.735 52.614 111.644 53.6959 110.303 53.6959H103.606C102.265 53.6959 101.174 52.614 101.174 51.2842V49.5422C101.174 48.6278 100.423 47.884 99.501 47.884C98.5786 47.884 97.8284 48.6278 97.8284 49.5422V51.2842C97.8284 54.4429 100.42 57.0124 103.606 57.0124H110.303C113.489 57.0124 116.08 54.4429 116.08 51.2842V6.10905C116.08 2.95034 113.489 0.380859 110.303 0.380859Z" fill="black"/>
<path d="M169.223 0.380859H162.296C159.11 0.380859 156.518 2.95034 156.518 6.10906V32.0485C156.518 38.1374 153.67 41.3573 148.282 41.3573C142.894 41.3573 140.046 38.0054 140.046 31.6686V28.5067C140.046 27.5922 139.296 26.8484 138.374 26.8484C137.451 26.8484 136.701 27.5922 136.701 28.5067V31.6686C136.701 39.9341 140.923 44.6738 148.282 44.6738C155.641 44.6738 159.863 40.0725 159.863 32.0485V6.10906C159.863 4.77924 160.955 3.69735 162.293 3.69735H169.22C170.561 3.69735 171.652 4.77924 171.652 6.10906V29.1925C171.652 30.107 172.403 30.8507 173.325 30.8507C174.247 30.8507 174.998 30.107 174.998 29.1925V6.10906C174.998 2.95034 172.406 0.380859 169.22 0.380859H169.223Z" fill="black"/>
<path d="M166.748 47.7262C162.818 52.3436 156.557 54.6844 148.129 54.6844C132.94 54.6844 124.911 46.8311 124.911 31.9713V6.10906C124.911 4.77924 126.003 3.69735 127.344 3.69735H134.271C135.613 3.69735 136.704 4.77924 136.704 6.10906V13.5406C136.704 14.455 137.454 15.1988 138.376 15.1988C139.299 15.1988 140.049 14.455 140.049 13.5406V6.10906C140.049 2.95034 137.457 0.380859 134.271 0.380859H127.344C124.158 0.380859 121.566 2.95034 121.566 6.10906V31.9713C121.566 48.7566 131.001 58.0009 148.129 58.0009C157.586 58.0009 164.708 55.264 169.304 49.8642C169.898 49.1655 169.807 48.1158 169.102 47.5266C168.398 46.9374 167.339 47.0275 166.745 47.7262H166.748Z" fill="black"/>
<path d="M49.0406 31.2464C50.0701 31.2464 50.9112 30.4157 50.9112 29.3918C50.9112 28.3678 50.0733 27.5371 49.0406 27.5371C48.0078 27.5371 47.1699 28.3678 47.1699 29.3918C47.1699 30.4157 48.0078 31.2464 49.0406 31.2464Z" fill="black"/>
<path d="M170.937 43.3633C169.908 43.3633 169.066 44.194 169.066 45.2179C169.066 46.2419 169.904 47.0726 170.937 47.0726C171.97 47.0726 172.808 46.2419 172.808 45.2179C172.808 44.194 171.97 43.3633 170.937 43.3633Z" fill="black"/>
<path d="M138.376 21.5195C137.347 21.5195 136.506 22.3503 136.506 23.3742C136.506 24.3981 137.344 25.2289 138.376 25.2289C139.409 25.2289 140.247 24.3981 140.247 23.3742C140.247 22.3503 139.409 21.5195 138.376 21.5195Z" fill="black"/>
</g>
<defs>
<clipPath id="clip0_456_5853">
<rect width="175" height="58" fill="white"/>
</clipPath>
</defs>
</svg>
