<svg xmlns="http://www.w3.org/2000/svg" width="112.906" height="125" viewBox="0 0 112.906 125">
  <defs>
    <style>
      .cls-1 {
        fill-rule: evenodd;
      }
    </style>
  </defs>
  <path id="ignite" class="cls-1" d="M55.894,0l1.363,0.152,0.909,0.759c0.042,3.087.691,10.938-.454,12.91C52.737,16.085,54.215,1.24,55.894,0ZM38.323,9.872l1.818,0.3c0.63,1.282,2.413,4.075,1.969,5.62l-0.454,1.215-1.666.3c-1.646-.985-2.884-4.146-2.727-6.379Zm35.142,0a3.143,3.143,0,0,1,1.969.608l0.3,0.456a10.8,10.8,0,0,1-2.121,6.075l-1.818.3L70.89,16.252C70.268,14.021,72.279,10.987,73.465,9.872ZM17.42,15.948c1.959,0.17,9.6,7.825,9.846,9.72-0.524.836-1.3,2.132-2.878,1.367L16.056,18.53a2.494,2.494,0,0,1,.606-2.278Zm77.4,0a2.029,2.029,0,0,1,1.515.607,1.658,1.658,0,0,1,.606,1.671c-1.15,1.969-6.761,7.932-8.786,8.809H86.795l-1.06-1.063C85.815,23.444,92.857,17.124,94.823,15.948ZM41.656,96.142c4.029-.063,16.192-0.857,17.722,1.215a2.684,2.684,0,0,1-.606,2.126c-4.011,1.224-12.179.325-16.965,0.3-0.059,3.422-.836,9.914.757,12,2.134,2.793,14.943,1.671,20.146,1.671,2.431,0,5.241.263,6.665-.76,2.539-1.824,1.74-8.6,1.666-12.91-2.082.075-6.624,0.572-7.422-.76-0.905-.775-0.195-1.944.3-2.582a37.894,37.894,0,0,1,7.422-.3c0.18-6.635,5.744-8.615,9.24-12A41.62,41.62,0,0,0,87.7,74.879a36.453,36.453,0,0,0,3.332-8.657c5.92-23.684-11.873-39.946-29.689-43.591-6.4-1.309-14.017.413-18.48,2.43-1.664.752-5.015,3.657-6.816,3.189-1.181-.153-1.545-0.777-1.515-2.126,1.545-2.339,4.729-3.2,7.422-4.4,14.682-6.568,32.243-1.067,41.05,7.29C94.9,40.29,100.586,62.6,89.37,79.283a45.586,45.586,0,0,1-8.331,9.265c-2.181,1.822-4.342,2.851-5.6,5.62-1.935,4.245.323,11.074-.757,16.4-0.812,4-3.087,4.37-6.059,6.227l-1.666,3.038a14.288,14.288,0,0,1-6.513,4.556,13.461,13.461,0,0,1-14.39-4.556L44.382,116.8c-3.475-2.279-5.116-1.595-6.21-6.683-1.17-5.438,1.211-12.369-.909-16.555-1.947-3.845-6.726-5.875-9.543-8.961-5.047-5.529-8.056-12.226-10-20.96-2.7-12.165,3.133-22.619,7.574-29.01,0.991-1.426,3.472-5.685,5.6-5.164l1.212,0.456,0.3,1.671c-0.854,1.456-2.1,2.3-3.181,3.493a37.016,37.016,0,0,0-5.453,8.809c-4.674,10.071-2.57,24.622,2.424,32.655a35.172,35.172,0,0,0,5.756,7.139C35.7,87.1,41.255,89.465,41.656,96.142ZM52.107,33.87c2.208-.035,8.35-0.795,9.543.456L62.862,40.4l3.484,1.519,4.393-3.341c1.895-.567,8.224,6.1,7.574,7.746l-3.029,4.253,1.363,3.8,5.907,0.911c1,2.093.953,7.759,0.3,10.328a21.726,21.726,0,0,1-6.21,1.215l-1.363,3.949c6.924,5.826-.007,7.281-2.727,11.7-5.095.684-3.9-5.073-10-1.367,0.028,2.085-.364,4.63-1.212,5.924-1.654.547-8.425,0.983-9.694-.152-1.209-.875-1.167-4.42-1.515-6.075-0.914-.21-3.371-1.6-3.635-1.215-2.322.9-3.158,3.328-6.059,2.886-1.564-2.49-4.376-4.032-6.059-6.531,0.225-2.2,2.168-3.9,3.332-5.316l-1.515-3.8c-1.778-.057-5.283-0.331-6.059-1.519-0.948-1.544-.693-9.618.606-10.176,1.678-.72,4.581.127,5.6-1.215l1.363-3.493a13.142,13.142,0,0,1-3.332-4.556c0.124-1.454,6.02-7.811,7.725-7.29,1.836,0.561,3.057,2.971,4.847,3.189l3.332-1.519c0.049-1.587.222-4.643,1.06-5.62A3.508,3.508,0,0,1,52.107,33.87Zm-40.9,3.341c1.887-.025,5.076,1.023,5.756,2.278a2.786,2.786,0,0,1,.3,1.823A2.751,2.751,0,0,1,15,42.224c-1.609-.8-3.4-1.447-4.847-2.278V38.275Zm89.37,0c1.264-.033,1.741.224,2.121,1.063a3.379,3.379,0,0,1-.152,1.974c-1.848.767-3.37,1.918-5.907,1.974a1.6,1.6,0,0,0-.757-0.608,3.9,3.9,0,0,1-.151-1.974C96.853,38.269,99.008,38.142,100.579,37.211Zm-46.351.3-0.909,5.62c-2.484.741-4.647,2.5-7.271,2.734L41.5,42.831l-2.726,2.886c0.71,1.881,2.246,2.91,3.029,4.86-0.393,1.2-2.467,6.545-3.333,6.987l-5.15.911c-0.053,1.175-.289,3.62.3,4.253,1.822,0.7,4.158.442,5.6,1.367,0.581,2.508,1.735,4.335,2.575,6.531-0.73,2.1-2.488,2.924-3.029,5.012l2.878,2.734c1.9-.815,2.716-2.81,5.15-3.038,4.446,1.983,7.361,1.727,7.422,8.354h4.393c0.163-2.071.523-4.638,1.515-5.923,2.726-.413,4.15-2.221,6.816-2.43,1.081,0.7,3.556,3.2,4.544,2.734l2.727-2.582L71.193,70.93a20.185,20.185,0,0,1,3.029-7.29l5.3-.911c0.053-1.175.289-3.62-.3-4.253-1.5-.581-4.074-0.2-5.15-1.215a30.419,30.419,0,0,1-2.727-6.987c0.325-1.785,2.013-3.012,2.878-4.4a10.02,10.02,0,0,0-3.029-3.038l-0.3.3L67.1,45.869c-0.932.283-7.055-2.664-7.725-3.19l-0.757-5.164H54.228Zm0.909,11.239c16.443-.359,17.217,21,2.727,23.694-7.7,1.429-15.4-7.2-12.875-15.037C47.007,51.156,49.732,51.332,55.137,48.755Zm0,3.645c-3.106,1.663-5.666,2.35-6.665,6.075C47.089,63.635,52,70.293,57.863,68.8,67.521,66.351,66.882,52.081,55.137,52.4ZM1.666,54.678c2.467-.044,10.541-0.559,11.815.456A2.725,2.725,0,0,1,14.39,56.5a2.635,2.635,0,0,1-.757,1.215c-1.117,1.316-12.09.667-13.33-.152-0.33-1.019-.429-1.976.606-2.43A2.683,2.683,0,0,1,1.666,54.678Zm98.459,0c2.436-.044,10.751-0.551,11.966.456A2.726,2.726,0,0,1,113,56.5a2.632,2.632,0,0,1-.757,1.215c-1.117,1.316-12.091.667-13.33-.152L98.61,56.2l0.454-.759ZM48.926,117.1c1.82,6.333,12.539,4.317,15.147.152V117.1H48.926Z" transform="translate(-0.094)"/>
</svg>
