<svg width="16" height="16" viewBox="0 0 16 16" fill="none" xmlns="http://www.w3.org/2000/svg">
<path fill-rule="evenodd" clip-rule="evenodd" d="M8.24798 4.75351L11.7027 1.29879C12.4771 0.524427 13.7279 0.524427 14.5023 1.29879L14.9192 1.71574C15.6936 2.4901 15.6936 3.74096 14.9192 4.51532L11.4645 8.02972L14.9192 11.4844C15.6936 12.2588 15.6936 13.5097 14.9192 14.284L14.5023 14.701C13.7279 15.4753 12.4771 15.4753 11.7027 14.701L8.24798 11.2463L4.73358 14.701C3.95922 15.4753 2.70836 15.4753 1.934 14.701L1.51705 14.284C0.742689 13.5097 0.742689 12.2588 1.51705 11.4844L4.97177 8.02972L1.51705 4.51532C0.742689 3.74096 0.742689 2.4901 1.51705 1.71574L1.934 1.29879C2.70836 0.524427 3.95922 0.524427 4.73358 1.29879L8.24798 4.75351Z" fill="white"/>
</svg>
