<svg width="42" height="42" viewBox="0 0 42 42" fill="none" xmlns="http://www.w3.org/2000/svg">
<path fill-rule="evenodd" clip-rule="evenodd" d="M1.02372 1.06851C1.67941 0.412361 2.56859 0.0437563 3.49573 0.0437563C4.42288 0.0437563 5.31206 0.412361 5.96775 1.06851L20.9781 16.094L35.9885 1.06851C36.3111 0.734224 36.6969 0.467586 37.1235 0.284154C37.5501 0.100722 38.0089 0.00417051 38.4731 0.00013215C38.9374 -0.00390621 39.3978 0.084649 39.8275 0.260632C40.2572 0.436615 40.6476 0.696501 40.9759 1.02513C41.3042 1.35375 41.5638 1.74453 41.7396 2.17467C41.9154 2.60481 42.0039 3.06569 41.9999 3.53041C41.9958 3.99514 41.8994 4.45441 41.7161 4.88142C41.5329 5.30844 41.2665 5.69464 40.9326 6.01751L25.9222 21.043L40.9326 36.0685C41.5695 36.7286 41.9219 37.6127 41.9139 38.5304C41.906 39.4481 41.5382 40.3259 40.89 40.9749C40.2417 41.6238 39.3647 41.9919 38.448 41.9999C37.5312 42.0078 36.648 41.6551 35.9885 41.0175L20.9781 25.992L5.96775 41.0175C5.3083 41.6551 4.42508 42.0078 3.50832 41.9999C2.59155 41.9919 1.71459 41.6238 1.06631 40.9749C0.418038 40.3259 0.0503163 39.4481 0.0423499 38.5304C0.0343834 37.6127 0.386811 36.7286 1.02372 36.0685L16.0341 21.043L1.02372 6.01751C0.368234 5.36116 0 4.47108 0 3.54301C0 2.61493 0.368234 1.72486 1.02372 1.06851V1.06851Z" fill="black"/>
</svg>
