<svg width="31" height="25" viewBox="0 0 31 25" fill="none" xmlns="http://www.w3.org/2000/svg">
<path d="M25.0474 0.797044C18.7049 -0.265681 12.232 -0.265681 5.88951 0.797044C2.26254 1.56245 0 3.92161 0 6.99996V17.9373C0 21.0625 2.26254 23.3908 5.95196 24.1871C9.10692 24.7224 12.3003 24.9943 15.4997 25C18.7089 24.9994 21.9127 24.7328 25.0786 24.2031C28.675 23.5154 31 21.0779 31 17.9533V7.01603C31 3.9062 28.675 1.4687 25.048 0.797044H25.0474ZM20.5522 13.2035L12.802 17.8911C12.681 17.9655 12.5412 18.0034 12.3995 18.0002C12.2647 17.9995 12.132 17.9674 12.0115 17.9065C11.8898 17.8319 11.7898 17.7261 11.7217 17.5999C11.6537 17.4736 11.6201 17.3315 11.6243 17.1879V7.81291C11.6255 7.67454 11.6617 7.53876 11.7294 7.41842C11.7972 7.29808 11.8943 7.19716 12.0115 7.12518C12.1331 7.05959 12.2689 7.02527 12.4068 7.02527C12.5447 7.02527 12.6804 7.05959 12.802 7.12518L20.5522 11.8127C20.6642 11.8847 20.7565 11.984 20.8204 12.1015C20.8843 12.2189 20.9178 12.3507 20.9178 12.4847C20.9178 12.6186 20.8843 12.7504 20.8204 12.8679C20.7565 12.9854 20.6642 13.0847 20.5522 13.1567V13.2035Z" fill="#A5A5A5"/>
</svg>
