<svg width="52" height="53" viewBox="0 0 52 53" fill="none" xmlns="http://www.w3.org/2000/svg">
<path d="M50.4378 34.2267C48.9198 31.8061 44.1317 25.0168 43.8401 24.6038C43.3729 23.8955 42.6724 23.4232 41.8549 23.305C40.9793 23.1279 40.045 23.3639 39.2857 23.8955C37.7677 24.9579 37.3005 27.0244 38.2931 28.5003L39.4026 30.6845L33.7388 28.3821L27.6078 15.5714L31.0527 17.3426C32.9214 18.5232 35.315 17.9331 36.4827 16.0438C37.0668 15.1584 37.2419 14.0367 37.0081 13.0331C36.7747 11.9706 36.1324 11.0849 35.2563 10.4947C34.7309 10.1406 25.6804 4.00062 22.469 1.99351C18.44 -0.485982 13.3016 -0.662984 8.74738 1.52117C5.12774 3.233 2.38342 6.24371 0.98186 9.96305C-0.419286 13.682 -0.302714 17.7555 1.21565 21.416L8.45608 37.1194C9.15663 38.5953 10.5581 39.4218 12.0761 39.4218C12.6602 39.4218 13.1857 39.3036 13.7692 39.0677C14.5284 38.7135 15.1121 38.1823 15.4623 37.5328L16.3967 39.5399C16.8638 40.5435 17.6231 41.2518 18.6739 41.6064C19.141 41.7835 19.5495 41.8424 20.0167 41.8424C20.5421 41.8424 21.0093 41.7242 21.5347 41.5471L22.2357 41.7835C21.8268 42.1376 21.4765 42.5511 21.2431 43.0823C20.8342 43.9676 20.8342 44.8534 21.1849 45.7388C21.5352 46.5652 22.1192 47.1557 22.9367 47.4506L35.1401 52.2917C36.4247 52.764 37.7676 53 39.0523 53C43.8986 53 48.6282 50.0482 50.7886 45.2664C52.5404 41.4882 52.3652 37.3558 50.4383 34.2268L50.4378 34.2267ZM19.2577 39.8939C18.7323 39.7168 18.2651 39.3033 18.0313 38.7721L15.7541 33.8721C15.7541 33.8132 15.6958 33.7539 15.6958 33.7539L10.8495 23.3638C10.6161 22.8915 10.0903 22.7144 9.68181 22.9503C9.21464 23.1863 9.0395 23.7179 9.27288 24.1309L14.1192 34.5211C14.6446 35.6429 14.1775 36.9417 13.0684 37.4729C11.9589 38.0041 10.6743 37.5318 10.1489 36.4105L2.85022 20.707C-0.0109832 13.9769 2.90846 6.30231 9.44836 3.17342C13.4774 1.28407 17.9735 1.40225 21.535 3.58687C24.7466 5.53505 34.2056 11.9699 34.264 12.0287C34.7894 12.324 35.0814 12.8552 35.2566 13.4457C35.3735 14.0362 35.2566 14.6263 34.9646 15.1575C34.6725 15.6888 34.1471 15.984 33.5631 16.1611C32.979 16.2793 32.3954 16.1611 31.87 15.8658C31.87 15.8658 31.8118 15.8658 31.8118 15.8069L25.4474 12.501C25.1553 12.324 24.8051 12.3829 24.513 12.5599C21.3015 14.8623 16.1048 14.4493 13.419 11.7335C13.0687 11.3793 12.4847 11.3793 12.1344 11.7335C11.7841 12.0876 11.7841 12.6781 12.1344 13.0322C15.2873 16.2199 21.0098 16.8105 24.9802 14.4492L31.1112 27.437L29.0673 26.4335C28.0748 26.02 27.0235 26.1975 26.0896 26.7287L23.3453 20.8252C23.1119 20.3528 22.5861 20.1758 22.1776 20.4117C21.7104 20.6477 21.5353 21.1793 21.7686 21.5923L24.805 28.0865C24.7468 28.1453 24.7468 28.2046 24.6881 28.3224C24.4547 28.8536 24.3378 29.3849 24.3961 29.9754L23.5204 29.6213C22.5861 29.2671 21.5935 29.326 20.7178 29.7983L18.7909 25.666C18.5576 25.1936 18.0317 25.0165 17.6232 25.2525C17.1561 25.4885 16.9809 26.0201 17.2143 26.4331L19.3746 31.0967C19.3164 31.2149 19.2577 31.3327 19.1995 31.5102C18.7906 32.3955 18.7906 33.2813 19.1413 34.1667C19.4333 34.8161 19.9004 35.3473 20.4841 35.7015C20.0752 36.0556 19.7249 36.4691 19.4915 37.0003C19.0826 37.8856 19.0826 38.7714 19.4333 39.6568C19.4915 39.7749 19.5502 39.8927 19.6084 40.0109C19.4329 39.9524 19.3746 39.8935 19.2578 39.8935L19.2577 39.8939ZM49.2116 44.4986C46.8175 49.7528 40.9203 52.4687 35.782 50.6386L23.5785 45.7974C23.2283 45.6792 22.9945 45.384 22.8193 45.0298C22.6442 44.6757 22.7024 44.2034 22.8776 43.7899C23.2279 42.9634 24.2204 42.5499 24.9796 42.8452L33.0958 46.0923C33.563 46.2694 34.0884 46.0334 34.2635 45.5611C34.4386 45.0887 34.2052 44.5575 33.7381 44.3804L25.6219 41.1927L25.505 41.1339C25.505 41.1339 21.5347 39.5398 21.4178 39.4809C21.1844 39.3627 21.0675 39.1267 20.9506 38.8903C20.7755 38.5362 20.8337 38.0639 21.0089 37.6504C21.184 37.178 21.593 36.8828 22.0015 36.7057C22.3517 36.5875 31.227 39.9528 31.227 39.9528C31.6942 40.1298 32.2196 39.8939 32.3947 39.4215C32.5699 38.9492 32.3365 38.418 31.8693 38.2409L21.4176 34.1086C21.0673 33.9904 20.8335 33.6951 20.6584 33.341C20.4832 32.9868 20.5415 32.5145 20.7166 32.101C20.8917 31.7469 21.1255 31.5105 21.4172 31.2745C21.8261 31.0386 22.3515 30.9204 22.8186 31.0975L34.9637 35.9386C35.4308 36.1157 35.9563 35.8797 36.1314 35.4074C36.3065 34.935 36.0731 34.4038 35.606 34.2267L27.0808 30.8027C26.6719 30.6256 26.3803 30.3303 26.2634 29.9762C26.0883 29.6221 26.1465 29.2086 26.2634 28.8544C26.3803 28.5592 26.6137 28.3232 26.8475 28.1461C27.3146 27.792 27.8983 27.6738 28.3655 27.9102L40.9203 33.2228C41.2706 33.341 41.6795 33.2817 41.9129 32.9869C42.1463 32.6916 42.2049 32.2786 42.0298 31.9833C42.0298 31.9833 39.6944 27.5557 39.6944 27.4967C39.2273 26.7884 39.461 25.8437 40.2198 25.3125C40.5701 25.0766 41.0373 24.9584 41.4462 25.0173C41.7965 25.0761 42.0885 25.3125 42.3219 25.6078C42.3802 25.6667 47.3434 32.7513 48.8615 35.1714C50.5546 37.7687 50.6714 41.2517 49.2117 44.4987L49.2116 44.4986Z" fill="white"/>
</svg>
