<svg xmlns="http://www.w3.org/2000/svg" width="25.656" height="19.219" viewBox="0 0 25.656 19.219">
  <defs>
    <style>
      .cls-1 {
        fill-rule: evenodd;
      }
    </style>
  </defs>
  <path id="mail" class="cls-1" d="M483,309.3s9.75,6.527,10.484,7.049a3.906,3.906,0,0,0,4.616.071c0.749-.463,10.52-7.013,10.52-7.013v10.735c0,2.09-.682,3.077-3.041,3.077H486.292c-2.4,0-3.292-.954-3.292-3.292V309.3Zm2.4-5.3a2.321,2.321,0,0,0-1.574,4.043c1.136,0.852,9.28,6.282,10.234,6.906a2.648,2.648,0,0,0,3.506,0c0.664-.446,8.9-5.936,10.055-6.727A2.321,2.321,0,0,0,506.473,304H485.4Z" transform="translate(-483 -304)"/>
</svg>
