<svg width="108" height="115" viewBox="0 0 108 115" fill="none" xmlns="http://www.w3.org/2000/svg">
<g clip-path="url(#clip0_348_1240)">
<path d="M52.1972 0C54.2122 0.795173 55.0242 2.2985 54.8738 4.41996C54.8077 5.35016 54.8799 6.29237 54.8588 7.22557C54.8137 9.32903 53.6227 10.6673 51.5115 10.8564C50.7897 10.9224 50.5792 11.1324 50.5852 11.8526C50.6213 15.5194 50.6003 19.1892 50.6033 22.856C50.6033 23.117 50.6063 23.3811 50.6364 23.6421C50.8138 25.2595 51.0333 25.4545 52.6333 25.4545C61.6376 25.4545 70.6388 25.4545 79.6431 25.4545C81.5167 25.4545 81.219 25.5866 81.237 23.8132C81.2491 22.4659 81.237 21.1186 81.237 19.7713C81.237 18.7871 80.7608 18.294 79.8085 18.292C76.9214 18.292 74.0312 18.292 71.1441 18.292C66.6419 18.292 62.1398 18.292 57.6377 18.292C57.2257 18.292 56.8046 18.301 56.4076 18.217C55.6167 18.0519 55.1746 17.5148 55.1295 16.7196C55.0814 15.8735 55.4964 15.2673 56.3234 15.0453C56.7505 14.9312 57.2136 14.9312 57.6617 14.9312C65.1653 14.9252 72.6688 14.9222 80.1694 14.9282C83.3001 14.9282 84.6144 16.2485 84.6144 19.3662C84.6144 21.2386 84.6264 23.108 84.6114 24.9804C84.5903 27.2999 83.1588 28.7432 80.831 28.8273C80.7197 28.8303 80.6055 28.8273 80.4942 28.8303C78.8882 28.8503 78.0852 29.6805 78.0852 31.3208C78.0852 41.6521 78.0973 51.9833 78.0642 62.3115C78.0612 63.2598 78.2386 63.5778 79.2732 63.5688C85.4625 63.5148 91.6518 63.5268 97.8411 63.5598C98.7403 63.5658 99.0651 63.4728 98.8817 62.4166C97.7057 55.6021 92.2142 50.72 85.0083 50.1829C84.7828 50.1649 84.5572 50.1739 84.3347 50.1469C83.3212 50.0269 82.7347 49.3967 82.7528 48.4545C82.7708 47.5303 83.3873 46.8492 84.4069 46.8252C86.1001 46.7862 87.7842 46.9932 89.3992 47.5213C96.5629 49.8588 100.897 54.7079 102.199 62.1375C102.382 63.1847 102.65 63.6138 103.823 63.5808C106.319 63.5118 107.934 65.2102 107.985 67.7277C108.003 68.6639 107.997 69.6001 107.985 70.5363C107.958 73.2639 106.409 74.8753 103.651 74.8753C102.659 74.8753 102.403 75.1393 102.406 76.1295C102.448 84.6634 102.445 93.1973 102.409 101.731C102.406 102.64 102.611 102.94 103.57 102.934C106.358 102.913 107.964 104.561 107.985 107.324C107.994 108.447 107.997 109.569 107.985 110.694C107.955 113.389 106.319 115.009 103.606 115.009C85.3001 115.012 66.9938 115.009 48.6845 115.009C34.0173 115.009 19.347 115.009 4.67975 115.009C1.52796 115.009 0.000181411 113.479 -0.00282602 110.322C-0.00282602 109.311 -0.0118483 108.3 -0.00282602 107.291C0.0212335 104.591 1.64525 102.955 4.3339 102.91C5.31231 102.894 5.80152 102.39 5.80152 101.398C5.80152 77.6689 5.7925 53.9367 5.8316 30.2076C5.8316 29.0343 5.50379 28.7883 4.39705 28.8093C1.34451 28.8603 0.00920372 27.483 0.00318885 24.4523C0.00318885 22.805 0.00318885 21.1576 0.00318885 19.5102C0.00318885 16.2005 1.29639 14.9222 4.65569 14.9222C13.8855 14.9222 23.1123 14.9252 32.3421 14.9192C34.2849 14.9192 34.0143 15.1473 34.0443 13.2779C34.0474 13.0168 34.0083 12.7468 34.0504 12.4917C34.2489 11.3515 33.8789 10.8534 32.6248 10.7753C31.1692 10.6853 29.9753 9.41004 29.879 7.94273C29.7708 6.30437 29.7828 4.65101 29.864 3.00965C29.9452 1.43131 31.1001 0.636138 32.3842 0H52.1942L52.1972 0ZM31.3617 28.9053C31.2143 28.8783 31.076 28.8333 30.9377 28.8333C23.9604 28.8303 16.9832 28.8453 10.0029 28.8093C9.08564 28.8033 9.18489 29.3104 9.18489 29.8805C9.18489 53.8737 9.1909 77.8669 9.16684 101.86C9.16684 102.691 9.36834 102.928 10.2194 102.922C15.5095 102.883 20.7996 102.883 26.0897 102.922C26.9588 102.928 27.2235 102.715 27.2175 101.815C27.1754 95.6398 27.1934 89.4644 27.1964 83.2861C27.1964 79.6073 29.037 77.7649 32.7211 77.7619C39.0247 77.7559 45.3252 77.7589 51.6288 77.7619C55.4543 77.7619 57.2768 79.5863 57.2798 83.4091C57.2828 89.5485 57.2918 95.6878 57.2648 101.824C57.2617 102.607 57.3941 102.934 58.2963 102.928C63.436 102.883 68.5757 102.88 73.7154 102.928C74.6297 102.937 74.7259 102.595 74.7259 101.827C74.7079 77.8699 74.7049 53.9157 74.7349 29.9585C74.7349 28.9833 74.4222 28.8033 73.526 28.8093C67.1111 28.8453 60.6962 28.8273 54.2814 28.8303C53.0965 28.8303 53.0904 28.8393 53.6679 29.8775C55.9776 34.0304 58.3023 38.1743 60.597 42.3332C63.5503 47.6864 60.3053 53.1926 54.1851 53.2046C46.2696 53.2196 38.354 53.2046 30.4384 53.2106C29.5693 53.2106 28.7152 53.1295 27.8851 52.8775C23.4913 51.5362 21.6477 46.7232 23.9544 42.5162C26.237 38.3513 28.5738 34.2134 30.8775 30.0575C31.07 29.7125 31.3677 29.4034 31.3647 28.9083L31.3617 28.9053ZM53.9415 111.633C67.1803 111.633 80.422 111.633 93.6607 111.633C96.8877 111.633 100.112 111.603 103.336 111.651C104.334 111.666 104.692 111.297 104.626 110.337C104.575 109.593 104.617 108.84 104.617 108.092C104.617 106.878 104.022 106.271 102.833 106.271C70.2779 106.271 37.7224 106.271 5.16695 106.271C4.90531 106.271 4.64065 106.28 4.37901 106.271C3.66023 106.247 3.3655 106.607 3.37753 107.303C3.39558 108.201 3.37753 109.101 3.38054 109.998C3.38054 111.086 3.91887 111.631 4.99553 111.633C21.3109 111.633 37.6262 111.633 53.9415 111.633ZM99.0621 88.9123C99.0621 84.5734 99.0441 80.2344 99.0771 75.8985C99.0831 75.1213 98.8606 74.8783 98.0726 74.8813C91.739 74.9083 85.4023 74.9113 79.0687 74.8813C78.2777 74.8783 78.0702 75.1153 78.0702 75.8925C78.0973 84.5704 78.0973 93.2453 78.0702 101.923C78.0702 102.703 78.2717 102.925 79.0627 102.922C85.3963 102.889 91.733 102.892 98.0666 102.922C98.8425 102.925 99.0862 102.727 99.0771 101.929C99.038 97.5902 99.0591 93.2513 99.0591 88.9153L99.0621 88.9123ZM30.5738 92.4321C30.5738 95.6128 30.5738 98.7965 30.5738 101.977C30.5738 102.475 30.4986 102.925 31.2775 102.913C34.1286 102.877 36.9796 102.889 39.8307 102.907C40.378 102.91 40.5464 102.709 40.5314 102.187C40.5043 101.14 40.4923 100.09 40.5374 99.0425C40.5825 97.9203 41.3073 97.2241 42.2937 97.2601C43.2291 97.2962 43.8666 97.9863 43.8937 99.0635C43.9208 100.036 43.9478 101.014 43.8877 101.983C43.8396 102.745 44.1343 102.925 44.8531 102.916C47.5177 102.88 50.1822 102.868 52.8438 102.922C53.6799 102.937 53.9295 102.715 53.9235 101.863C53.8874 95.6128 53.9085 89.3594 53.9024 83.1091C53.9024 81.5547 53.4603 81.1376 51.8634 81.1316C49.5747 81.1226 47.2861 81.1736 44.9974 81.1076C44.0802 81.0806 43.8666 81.3837 43.8817 82.2479C43.9328 85.0535 43.9117 87.8621 43.8937 90.6707C43.8847 91.949 43.1719 92.6631 42.0682 92.5701C41.1028 92.4891 40.5344 91.796 40.5284 90.5837C40.5103 87.7751 40.4863 84.9665 40.5434 82.1609C40.5615 81.2907 40.2727 81.0956 39.4547 81.1136C37.13 81.1646 34.8022 81.1226 32.4775 81.1346C31.0008 81.1436 30.5768 81.5937 30.5738 83.1151C30.5678 86.2207 30.5738 89.3294 30.5738 92.4351V92.4321ZM42.3298 49.8378C46.1944 49.8378 50.065 49.6998 53.9205 49.8798C57.4602 50.0449 59.4482 46.9062 57.5775 43.7375C54.552 38.6184 51.7762 33.3553 48.8319 28.1851C47.7252 26.2437 47.1508 24.2393 47.2049 21.9918C47.2861 18.7001 47.1959 15.4053 47.247 12.1106C47.259 11.2194 47.0786 10.8594 46.0951 10.8864C43.5839 10.9554 41.0697 10.9434 38.5555 10.8924C37.6833 10.8744 37.3916 11.1174 37.4067 12.0206C37.4548 15.4624 37.3976 18.9071 37.4367 22.3519C37.4608 24.3143 36.9856 26.0967 36.0172 27.81C32.9978 33.1512 30.0294 38.5194 27.0491 43.8785C25.2747 47.0712 26.8776 49.8288 30.5166 49.8378C34.4564 49.8468 38.3931 49.8378 42.3328 49.8378H42.3298ZM18.7335 18.292C13.9727 18.292 9.21496 18.307 4.45419 18.277C3.63016 18.271 3.32941 18.502 3.36249 19.3572C3.42565 20.9626 3.45272 22.5769 3.35648 24.1793C3.29032 25.2565 3.6873 25.4815 4.68877 25.4785C13.8705 25.4455 23.0522 25.4305 32.2339 25.4935C33.4609 25.5025 33.8759 24.9684 33.9361 23.9782C34.0263 22.4869 33.9511 20.9866 34.0654 19.4982C34.1436 18.457 33.7346 18.268 32.7902 18.277C28.1047 18.322 23.4221 18.298 18.7365 18.298L18.7335 18.292ZM91.1405 66.9055C87.9135 66.9055 84.6896 66.8935 81.4626 66.9115C80.3829 66.9175 78.9574 66.4524 78.3108 67.0856C77.604 67.7757 78.2085 69.219 78.0672 70.3173C77.9349 71.3345 78.3318 71.5506 79.3002 71.5445C86.6504 71.5055 94.0036 71.5235 101.354 71.5235C104.641 71.5235 104.599 71.5235 104.632 68.2618C104.644 67.1426 104.22 66.8725 103.173 66.8845C99.1613 66.9325 95.1464 66.9055 91.1345 66.9055H91.1405ZM42.3569 3.36973C40.3329 3.36973 38.3089 3.36973 36.2849 3.36973C33.0489 3.36973 33.0669 3.36973 33.1632 6.62244C33.1812 7.27658 33.3466 7.55264 34.0534 7.54964C39.563 7.52864 45.0756 7.53164 50.5852 7.54964C51.2409 7.54964 51.5506 7.3846 51.4995 6.66745C51.4454 5.92329 51.4363 5.16712 51.4995 4.42596C51.5747 3.60078 51.3191 3.33072 50.4529 3.34873C47.7552 3.40574 45.0546 3.36973 42.3569 3.36973Z" fill="black"/>
<path d="M42.5163 59.3054C50.4289 59.3054 58.3384 59.3054 66.251 59.3054C68.705 59.3054 69.7426 60.3376 69.7486 62.7652C69.7516 64.1485 69.7486 65.5348 69.7486 66.9181C69.7486 69.6396 68.8223 70.5788 66.1307 70.5818C58.97 70.5818 51.8063 70.5818 44.6456 70.5818C36.0954 70.5818 27.5483 70.5818 18.9982 70.5818C16.3366 70.5818 15.3983 69.6546 15.3892 67.0261C15.3832 65.5288 15.3712 64.0344 15.3953 62.5371C15.4283 60.3616 16.493 59.3084 18.6673 59.3054C26.616 59.2994 34.5646 59.3054 42.5133 59.3054H42.5163ZM55.1265 62.6751C51.713 62.6751 48.2996 62.6991 44.8862 62.6571C44.0922 62.6481 43.8306 62.8792 43.8847 63.6653C43.9478 64.5595 43.9268 65.4627 43.8907 66.3599C43.8666 66.9631 44.029 67.2271 44.6967 67.2271C51.6739 67.2091 58.6512 67.2091 65.6284 67.2271C66.2299 67.2271 66.4074 67.0141 66.3833 66.4409C66.3442 65.5077 66.3171 64.5655 66.3893 63.6353C66.4525 62.8102 66.1217 62.6541 65.3668 62.6631C61.9534 62.6991 58.5399 62.6781 55.1265 62.6781V62.6751ZM29.6114 67.2151C32.9496 67.2151 36.2879 67.2001 39.6262 67.2271C40.2848 67.2331 40.5795 67.0801 40.5374 66.3599C40.4803 65.3907 40.4983 64.4125 40.5314 63.4433C40.5524 62.8732 40.378 62.6631 39.7735 62.6631C33.0218 62.6811 26.2701 62.6811 19.5184 62.6631C18.9019 62.6631 18.7485 62.9152 18.7636 63.4643C18.7876 64.3615 18.8207 65.2647 18.7546 66.1589C18.6914 66.9931 18.9711 67.2481 19.8222 67.2361C23.0853 67.1881 26.3483 67.2181 29.6114 67.2151Z" fill="black"/>
<path d="M66.0435 99.2923C65.4089 99.2923 64.7743 99.3164 64.1397 99.2893C63.1052 99.2443 62.3984 98.5572 62.3984 97.63C62.3984 96.7568 63.0601 96.0006 64.0285 95.9586C65.4059 95.8986 66.7923 95.8926 68.1697 95.9646C69.1261 96.0156 69.7697 96.8078 69.7396 97.684C69.7095 98.5662 69.0268 99.2383 68.0584 99.2863C67.3878 99.3194 66.7141 99.2923 66.0435 99.2953V99.2923Z" fill="black"/>
<path d="M66.0644 90.5618C65.3938 90.5618 64.7201 90.5798 64.0494 90.5558C63.078 90.5197 62.5036 89.9586 62.4224 89.0374C62.3412 88.1042 62.8555 87.3961 63.7878 87.288C65.3035 87.108 66.8464 87.099 68.3621 87.2941C69.2944 87.4141 69.7997 88.1102 69.7155 89.0494C69.6403 89.9226 69.0989 90.4867 68.1907 90.5468C67.4839 90.5948 66.7742 90.5558 66.0644 90.5558V90.5618Z" fill="black"/>
<path d="M19.0824 90.5628C18.4087 90.5628 17.7321 90.5898 17.0584 90.5568C16.093 90.5118 15.5096 89.9897 15.4404 89.0295C15.3682 88.0693 15.8735 87.3581 16.8148 87.2891C18.3035 87.1781 19.8132 87.1781 21.3019 87.2831C22.2372 87.3491 22.7665 88.0363 22.7064 89.0025C22.6462 89.9597 22.0688 90.4968 21.1094 90.5538C20.4357 90.5928 19.7591 90.5598 19.0854 90.5628H19.0824Z" fill="black"/>
<path d="M18.983 99.2907C18.3484 99.2907 17.7138 99.3177 17.0823 99.2847C16.0838 99.2337 15.4522 98.6006 15.4252 97.6794C15.3981 96.7762 16.0086 96.014 16.977 95.963C18.3514 95.891 19.7378 95.891 21.1152 95.957C22.1408 96.005 22.7784 96.7942 22.7182 97.7394C22.6611 98.6336 21.9994 99.2457 21.001 99.2877C20.3303 99.3147 19.6596 99.2937 18.986 99.2937L18.983 99.2907Z" fill="black"/>
<path d="M19.1272 78.549C19.84 78.549 20.5558 78.495 21.2595 78.564C22.1647 78.654 22.676 79.2301 22.7031 80.1363C22.7301 81.0425 22.258 81.6847 21.3587 81.7927C19.834 81.9787 18.2882 81.9757 16.7634 81.7927C15.8551 81.6847 15.401 81.0275 15.4311 80.1273C15.4612 79.2241 15.9664 78.642 16.8777 78.561C17.6205 78.495 18.3754 78.546 19.1242 78.549H19.1272Z" fill="black"/>
<path d="M66.0431 78.5353C66.7559 78.5353 67.4716 78.4903 68.1784 78.5473C69.1407 78.6253 69.7031 79.2165 69.7182 80.1587C69.7362 81.1039 69.1859 81.761 68.2295 81.815C66.81 81.896 65.3784 81.896 63.9589 81.824C62.9875 81.776 62.3079 80.9658 62.4041 80.1016C62.5094 79.1744 63.0387 78.5893 64.0131 78.5353C64.6867 78.4993 65.3634 78.5293 66.0371 78.5293V78.5353H66.0431Z" fill="black"/>
<path d="M89.2063 99.2876C88.5357 99.2876 87.862 99.3176 87.1914 99.2816C86.226 99.2306 85.5252 98.5434 85.5403 97.6583C85.5583 96.7071 86.0906 96.0439 87.0139 95.9809C88.4635 95.8819 89.9281 95.8819 91.3747 95.9779C92.304 96.0379 92.8333 96.7071 92.8664 97.6463C92.8965 98.5345 92.1897 99.2276 91.2243 99.2816C90.5537 99.3176 89.88 99.2876 89.2094 99.2876H89.2063Z" fill="black"/>
<path d="M89.1944 90.5633C88.5237 90.5633 87.8501 90.5844 87.1794 90.5573C86.214 90.5183 85.6366 89.9632 85.5524 89.039C85.4682 88.0998 85.9825 87.4037 86.9148 87.2896C88.4305 87.1036 89.9703 87.1096 91.4891 87.2896C92.3733 87.3917 92.8785 88.0608 92.8515 88.94C92.8214 89.8612 92.2951 90.4823 91.3207 90.5483C90.6139 90.5964 89.9042 90.5573 89.1944 90.5573V90.5663V90.5633Z" fill="black"/>
<path d="M89.2424 78.5369C89.9161 78.5369 90.5958 78.5039 91.2664 78.5429C92.2409 78.5999 92.8093 79.191 92.8484 80.1212C92.8875 81.0514 92.3672 81.7536 91.4018 81.8106C89.9462 81.8946 88.4786 81.8946 87.0199 81.8166C86.0636 81.7626 85.5222 81.0904 85.5493 80.1482C85.5734 79.206 86.1418 78.6209 87.1042 78.5489C87.8139 78.4979 88.5297 78.5399 89.2424 78.5369Z" fill="black"/>
<path d="M42.402 46.4653C39.2532 46.4653 36.1014 46.4713 32.9526 46.4653C30.8324 46.4593 30.1467 45.265 31.1842 43.3926C33.2534 39.6658 35.3405 35.951 37.3976 32.2152C38.2758 30.6189 39.572 29.9977 41.3975 29.8147C44.6936 29.4876 46.7327 30.7269 48.1462 33.7245C49.707 37.0312 51.6679 40.1459 53.4453 43.3506C54.528 45.301 53.8513 46.4593 51.6258 46.4653C48.5522 46.4713 45.4756 46.4653 42.402 46.4653ZM35.3074 42.9245C35.4819 43.0175 35.542 43.0776 35.6022 43.0776C39.9509 43.0866 44.3027 43.0836 48.6514 43.1016C49.5386 43.1046 49.2108 42.6845 48.9883 42.2884C47.68 39.9359 46.2335 37.6464 45.0997 35.2129C44.3237 33.5535 43.2952 32.9654 41.5419 33.1994C40.8983 33.2864 40.5404 33.4785 40.2457 34.0336C39.4397 35.5519 38.5825 37.0463 37.7465 38.5466C36.9345 40.0049 36.1225 41.4602 35.3104 42.9245H35.3074Z" fill="black"/>
</g>
<defs>
<clipPath id="clip0_348_1240">
<rect width="108" height="115" fill="white"/>
</clipPath>
</defs>
</svg>
