<svg width="124" height="91" viewBox="0 0 124 91" fill="none" xmlns="http://www.w3.org/2000/svg">
<path d="M120.183 39.998H3.81723C1.71141 39.998 0 41.7141 0 43.8255V87.1693C0 89.2808 1.71141 90.9968 3.81723 90.9968H120.183C122.289 90.9968 124 89.2808 124 87.1693V43.8255C124 41.7141 122.289 39.998 120.183 39.998ZM120.227 87.1693C120.227 87.1934 120.207 87.2141 120.183 87.2141H3.81723C3.79322 87.2141 3.77265 87.1934 3.77265 87.1693V43.8255C3.77265 43.8015 3.79322 43.7808 3.81723 43.7808H120.183C120.207 43.7808 120.227 43.8015 120.227 43.8255V87.1693Z" fill="black"/>
<path d="M28.1783 37.6972H95.8253C96.8679 37.6972 97.7116 36.8512 97.7116 35.8058C97.7082 16.0631 81.6881 0 61.9984 0C42.3086 0 26.292 16.0631 26.292 35.8058C26.292 36.8512 27.1357 37.6972 28.1783 37.6972ZM64.4574 29.6054C64.3305 30.2657 63.9567 30.8331 63.4011 31.208C62.8455 31.5828 62.1801 31.7204 61.5251 31.5931C60.87 31.4659 60.3007 31.091 59.9268 30.5339C59.1552 29.3888 59.4535 27.8241 60.5991 27.0469C61.0175 26.7615 61.5011 26.617 61.9949 26.617C62.1561 26.617 62.3139 26.6308 62.4751 26.6617C63.1302 26.789 63.6995 27.1638 64.0733 27.7209C64.4472 28.278 64.5843 28.9452 64.4574 29.602V29.6054ZM31.2959 26.985H38.8343V23.2022H32.6438C34.5712 18.7076 37.4933 14.7391 41.1356 11.5822L45.7931 16.2522L48.4614 13.5768L44.1572 9.26094C48.7667 6.13499 54.2301 4.18857 60.1155 3.84124V10.3855H63.8881V3.84124C69.7734 4.18513 75.2369 6.13499 79.8464 9.26094L75.5422 13.5768L78.2104 16.2522L82.868 11.5822C86.5103 14.7391 89.4324 18.7076 91.3598 23.2022H85.1693V26.985H92.7077C93.3422 29.2065 93.7469 31.5243 93.8841 33.9144H66.0763C67.1566 32.9927 67.894 31.741 68.1649 30.3242C68.3193 29.5263 68.3158 28.7216 68.1649 27.9445L77.4319 22.5248L75.5319 19.2578L66.3746 24.6156C64.2894 22.5832 60.9935 22.2221 58.4898 23.9175C55.6226 25.8605 54.8681 29.7808 56.8058 32.6557C57.1282 33.1337 57.5089 33.5533 57.9342 33.9178H30.1195C30.2601 31.5278 30.6614 29.21 31.2959 26.9884V26.985Z" fill="black"/>
<path d="M8.74561 55.46L10.1758 61.2751L14.7441 60.2297V80.557H22.1316V53.2109H16.6785L8.74561 55.46Z" fill="black"/>
<path d="M38.3882 62.7488C36.5705 62.7488 35.2946 63.1374 34.0565 63.7186L34.2898 59.6056H46.4754V53.3984H28.3701L27.5985 67.1678L32.0467 69.6506C33.3226 68.8735 34.715 68.2923 36.3784 68.2923C38.738 68.2923 40.3637 69.4959 40.3637 71.4354V71.5111C40.3637 73.4541 38.8547 74.6955 36.3784 74.6955C34.0977 74.6955 32.0056 73.6088 29.8003 71.7449L25.5063 76.7898C28.329 79.4274 31.6969 81.0953 36.4916 81.0953C43.0697 81.0953 47.6724 77.4879 47.6724 71.4354V71.3563C47.6724 65.4621 43.2618 62.7454 38.3882 62.7454V62.7488Z" fill="black"/>
<path d="M63.391 65.1953H50.7046V71.6742H63.391V65.1953Z" fill="black"/>
<path d="M80.2303 64.3376L86.6918 58.7906V53.3984H67.1152V59.4887H77.4831L71.2548 65.1147L72.3386 69.0316H75.5111C78.3337 69.0316 79.9216 70.0805 79.9216 71.8275V71.9031C79.9216 73.571 78.5704 74.6577 76.4405 74.6577C73.9643 74.6577 71.9133 73.5332 69.979 71.5558L65.2598 76.2877C67.8903 79.197 71.5669 81.0987 76.7869 81.0987C82.8232 81.0987 87.2337 77.567 87.2337 72.0579V71.9822C87.2337 67.3638 84.099 65.1938 80.2303 64.3376Z" fill="black"/>
<path d="M102.757 52.8594C95.0572 52.8594 90.1836 59.3004 90.1836 66.9795V67.0551C90.1836 74.7376 94.9406 81.0961 102.678 81.0961C110.415 81.0961 115.251 74.6551 115.251 66.9795V66.9004C115.251 59.2179 110.453 52.8594 102.757 52.8594ZM107.709 67.0551C107.709 71.3606 105.775 74.4281 102.757 74.4281C99.7387 74.4281 97.7289 71.3228 97.7289 66.9795V66.9004C97.7289 62.5571 99.7009 59.5308 102.681 59.5308C105.662 59.5308 107.709 62.6705 107.709 66.9795V67.0551Z" fill="black"/>
</svg>
