<svg width="68" height="68" viewBox="0 0 68 68" fill="none" xmlns="http://www.w3.org/2000/svg">
<path d="M33.9999 24.4581C31.8066 24.4581 29.9421 28.7355 29.9421 33.9998C29.9421 39.2641 31.6971 43.5415 33.9999 43.5415C39.2643 43.5415 43.5417 39.2641 43.5417 33.9998C43.5417 28.7355 39.2643 24.4581 33.9999 24.4581ZM33.9999 30.4905C31.0385 30.4905 31.4776 29.0645 31.6963 27.9681C32.2449 25.9943 33.0122 25.4458 33.9999 25.4458C36.7419 25.4458 38.9352 26.5428 38.9352 27.9681C38.9352 29.284 36.7419 30.4905 33.9999 30.4905ZM33.671 11.0774V17.4387C25.0068 18.3162 25.0068 49.6839 33.671 50.5613V56.9226C31.3673 56.703 29.503 55.0582 28.0776 52.4256C25.6647 48.2577 24.0197 41.5673 24.0197 34.0002C24.0197 26.4323 25.6646 19.7419 28.0776 15.5748C29.5029 12.9415 31.3673 11.1873 33.671 11.077V11.0774ZM68 34C68 52.645 52.9744 67.7806 34.329 68V62.7357C50.1228 62.5161 62.8452 49.6839 62.8452 34.0002C62.8452 18.2064 50.1224 5.37439 34.4387 5.26471V0.00039149C52.9736 0.219962 68 15.3548 68 34.0004V34ZM33.671 68C15.026 67.7804 0 52.6456 0 34C0 15.355 15.0256 0.219355 33.671 0V5.26432C32.684 5.37372 31.6972 5.59329 30.8196 6.14184C25.1161 9.32209 20.949 20.6196 20.949 33.9999C20.949 47.3805 25.1169 58.787 30.8196 61.858C31.6971 62.4065 32.684 62.6261 33.671 62.7355V68ZM48.5871 51.6579C44.748 54.8381 39.8127 56.8127 34.4391 56.9222V50.6702C43.433 50.4506 50.6712 43.1022 50.6712 34.1091C50.6712 25.1151 43.4323 17.6575 34.4391 17.548V11.1867C36.6325 11.1867 38.8258 11.5157 40.9099 12.1736C41.2388 12.283 41.5678 12.3932 41.7874 12.5026C42.2258 12.612 42.5555 12.7222 42.9939 12.941C43.1033 13.0504 43.2135 13.0504 43.4323 13.1605C43.9808 13.3801 44.5293 13.5989 45.0771 13.9287C45.0771 13.9287 45.1865 13.9287 45.1865 14.0381C45.8445 14.367 46.5024 14.8062 47.0509 15.2446C49.2443 16.78 51.1088 18.5351 52.6443 20.7284C52.8638 20.948 52.9733 21.277 53.1928 21.4965C53.7414 22.3741 54.2899 23.361 54.8377 24.348C55.2761 25.3349 55.7152 26.3218 56.0442 27.4189C56.1536 27.6385 56.1536 27.8573 56.2637 28.0769C56.8123 30.0507 57.1412 32.1347 57.1412 34.2186C57.1412 37.3989 56.4833 40.3603 55.3862 43.1023C54.8377 44.5283 54.0703 45.7347 53.3022 47.0507C51.7675 48.5869 50.3423 50.2325 48.5872 51.6577L48.5871 51.6579Z" fill="black"/>
</svg>
