<svg xmlns="http://www.w3.org/2000/svg" width="746.375" height="745" viewBox="0 0 746.375 745">
  <defs>
    <style>
      .cls-1 {
        fill-rule: evenodd;
      }
    </style>
  </defs>
  <path id="respect" class="cls-1" d="M394,50c39.86-.245,36.285,19.127,52,41,35.953-17.96,70.027,6.455,69,46,17.571-3.109,50.384-10.875,58,10l4-4c23.415-11.246,26.751-12.053,55-6-1.333-44.015,32.832-58.724,70-46,6.079-33.455,44.555-54.412,76-31,17.626,13.123,9.554,30.273,18,54,13.373-6.478,29.928-7.075,43,0,32.494,17.586,25.006,65.637,25,115q0.5,16.5,1,33c12.967-6.984,30.775-10.232,47-4,43.433,16.682,34,74.985,34,134v87c-8.4,51.132-24.039,85.3-54,114l-51,43V786l-5,6-8,3c-13-6.355-10-21.118-10-40V628l71-66c36.611-44.5,32.987-98.952,33-180,0-29.523,7.533-85.8-10-99-5.641-4.247-14.961-7.291-24-5-46,11.66-11.533,102.053-28,143-26.334,3.474-57.968,8.379-74,23l-19,43c-12.878,23.364-30.19,45.168-47,65-24.856,29.325-61.3,56.931-94,78l-41,25c0.257,30.586,5.781,118.931-4,138-7.42,1.543-9.282,1.205-16-1-9.46-26.457-3.135-102.988-3-138-56.766-25.825-130.16-86.771-163-137l-31-54q-2.5-8.5-5-17c-12.5-17.456-68.064-17.6-77-28-14.962-14.895,10.789-115.2-13-134-15.726-12.427-40.687-5.738-47,11q-0.5,68.493-1,137c0,58.118,5.075,95.474,30,127l74,69V753c0,13.212,2.935,33.3-5,39l-8,3-7-3c-10.135-28.732-3-80.372-3-115V636l-18-14c-20.169-16.151-43.422-36.391-58-58-33.723-49.989-28.99-119.048-29-203,0-31.244-3.816-69.261,10-87,22.693-29.137,42.626-16.182,72-13-1.211-75.02-16.739-175.283,69-147C351.066,70.419,364.229,62.735,394,50Zm2,23c-7.475,4.341-15.531,5.891-19,14q-0.5,111.489-1,223l23-23,23-13q-0.5-92.991-1-186C417.27,78.847,408.509,73.673,396,73Zm349,0c-7.477,4.331-15.536,5.9-19,14q-0.5,93.99-1,188c20.274,9.1,30.443,22.265,46,35V136C771,103.529,776.521,74.747,745,73ZM446,267c14.858-.653,31.459-2.14,46,0q-0.5-71.992-1-144c-3.135-7.169-13.518-17.683-26-15-7.09,1.524-15.462,7.827-18,14Q446.5,194.492,446,267ZM674,108c-7.353,4.966-14.356,6.349-18,15q-0.5,71.993-1,144c13.932-2.209,33.138-3,46,1q-0.5-72.993-1-146C695.946,113.085,687.03,108.254,674,108ZM323,132c-23.914,14.439-17,39.885-17,76V400c18.711,1.877,32.481,9.876,48,14v-6c-6.573-21.972,1.246-54.1,8-71-10.933.643-16.47,4.2-27,3l-3-5c-1.884-2.354-2.023-4.258-2-9,6.943-11.935,16.056-4.7,22-11V263c0-25.2,6.2-109.525-4-123C343.057,133.468,334.927,131.8,323,132Zm489,0c-6.24,3.581-13.333,6.1-16,13q-0.5,84.992-1,170c12.147,0.726,18.8,4.109,23,13l-6,12c-10.469,1.346-16.127-2.214-27-3,8.129,21.415,8.746,48.061,8,77h3c7.987-8.454,30.981-12.514,45-14V201C841,165.667,848.956,131.937,812,132ZM533,155c-5.888,3.723-13.194,6.4-16,13-5.468,12.872-5.269,90.474-1,106,20.295,4.133,32.16,20.154,46,31,0.423-24.273,4.532-126.771-3-139C554.123,158.082,546.206,154.948,533,155Zm70,0-15,10c-6.963,9.99-3.26,117.2-3,140,15.574-11.716,27.01-23.6,47-32C632.9,231.186,646.5,154.691,603,155ZM469,288l-20,2c-22.79,6.246-44.221,18.637-56,36-64,94.343,45,203.884,92,246,11.381,10.2,74.6,63.1,91,60,19.24-3.633,37.242-23.943,52-34,55.076-37.533,107.719-86.285,133-153,14.232-37.558,12.815-95.437-10-123-28.541-34.481-97.465-45.142-137-13-14.472,11.766-25.791,48.546-35,54-19.127,9.627-22.609-27.125-30-37C529.965,300.565,507.6,295.258,469,288Zm257,59,7,1c14.717,11.018,14.322,51.089,9,73-11.883,48.925-48.661,89.163-81,119l-12-1c-1.6-2.7-.339-1.377-3-3V525l28-30c15.6-18.239,33.354-44.226,42-68,4.092-11.252,8.846-29.412,6-45-1.442-7.9-8.224-21.514-3-29C721.027,349.2,722.562,349.23,726,347ZM419,643l12,3c3.93,9.923,7.367,46.582-2,53l-8,3-9-5c-2.733-15.274-4.141-40.842,3-52Zm37,0,11,5c4.121,14.09,3.553,42.055-3,52h-2c-5.887,1.726-9.7-.009-14-2C441.307,680.731,444.392,650.068,456,643Zm231,0c7,0.314,8.9,2.206,13,5,3.443,14.612,3.873,41.542-3,52l-9,2-7-3c-3.93-9.923-7.367-46.582,2-53Zm35,0c21.591,0.641,20.689,57.07,1,59l-7-3C709.647,682.705,710.629,651.651,722,643Z" transform="translate(-200.5 -50)"/>
</svg>
