<svg xmlns="http://www.w3.org/2000/svg" width="125" height="119" viewBox="0 0 125 119">
  <defs>
    <style>
      .cls-1 {
        fill-rule: evenodd;
      }
    </style>
  </defs>
  <path id="commit" class="cls-1" d="M18.074,0c3.107,0.136,5.106,3.741,6.835,5.471L40.857,21.429c3.977,2.772,8.832-.974,13.821,0,3.583,0.7,5.315,3.053,7.746,4.863h0.3c2.29-1.857,4.147-4.151,7.594-4.863,4.5-.93,9.013,2.5,13.062.456,2.784-1.4,4.841-4.692,6.987-6.839l9.872-9.575c1.63-1.622,4.03-5.784,6.987-5.319,5.1,3.6,9.283,9.261,13.669,13.678,1.447,1.457,4.419,2.817,3.949,5.623L103.281,41.187c-2.84,4.384,1.878,13.92-2.43,17.326l2.43,4.711c0.826,3.262-.332,6.522-0.912,9.271-0.531,2.522.7,3.824,0.76,5.927l-0.608.912-1.519.3c-5.222-2.914.3-11.122-1.367-15.958C98.949,61.688,88.745,48.59,87.029,47.266a3.856,3.856,0,0,0-5.468,1.064c-1.938,3.833,3.121,5.216,2.734,8.967a3.887,3.887,0,0,1-1.974.76c-2.337-1.289-3.681-4.306-5.62-6.079L62.12,37.539c-1.386-1.368-5.166-7.049-8.2-4.407-3.458,3.01,2.381,6.942,3.949,8.511L73.663,57.6c1.877,1.878,5.643,3.911,3.342,6.839H75.334L52.855,41.794c-2.394-2.4-5.509-7.311-9.417-4.1-1.032,4.329,3.742,7.089,6.227,9.423L71.081,68.695c0.074,1.249.006,1.855-.759,2.28a2.126,2.126,0,0,1-1.519.3c-2.3-1.478-4.253-3.931-6.075-5.927L52.248,55.169l-3.19-3.5c-2.463-1.643-4.82.528-4.86,3.04,1.162,2.507,3.333,3.943,5.164,5.775l14.885,15.2c0.063,1.2-.02,1.719-0.76,2.128a1.663,1.663,0,0,1-1.671.152c-3.784-1.747-8.483-12-13.214-8.663-1.1,3.955,5.175,8.191,7.594,10.487,3.373,3.2,9.161,10.931,13.062,12.766,3.538,1.664,8.563-.747,12.606.152,4.675,1.04,8.726,5.491,11.239,8.815l0.456-.456c1.829-1.106,3.2-3.233,4.708-4.711,2.99-2.926,6.621-5.742,9.114-9.119-0.811-1.244-2.02-1.494-2.127-3.5l0.911-1.216h1.216c2.2,0.466,3.9,3.293,5.315,4.711L125,99.7c-0.051.455-.1,0.912-0.152,1.367q-6.91,6.992-13.821,13.983c-1.395,1.395-2.6,3.81-5.164,3.951-2.031-.983-3.477-3.175-5.012-4.711L83.384,97.115c-3.54-2.072-8.441.59-13.214-.456-3.415-.748-4.736-2.976-7.139-4.559-2.761,1.761-4.265,4.625-8.05,5.471-4.7,1.051-9.073-2.481-13.214-.456-2.039,1-3.608,3.306-5.164,4.863l-11.543,11.4c-1.714,1.715-3.832,5.44-6.835,5.623-1.815-.87-3.043-2.741-4.4-4.1l-9.569-9.575C2.867,103.935.3,102.506,0,100.155c1.409-2.434,3.877-4.4,5.923-6.232l11.391-11.7c1.508-1.548,3.693-2.867,4.708-4.863,1.881-3.7-.842-9.3.456-13.678,0.39-1.314,2.095-2.894,2.278-3.951,0.034-.2-2.327-4.683-2.582-6.079-0.779-4.258,1.589-8.593-.152-12.006L5.62,24.773C3.947,22.99.327,21.15,0,18.238c1.606-2.7,4.484-4.682,6.683-6.839C10.5,7.652,13.919,3.4,18.074,0Zm0.3,4.559L4.557,18.694c2.131,1.949,8.406,9.529,10.632,10.183L29.01,14.894C27.95,13.15,20.155,5.059,18.378,4.559Zm87.788,0L95.99,15.046l11.24,10.942c0.877,0.96,1.82,2.471,3.189,2.888L120.6,18.542,106.774,4.559h-0.608ZM31.592,17.478L20.96,28.268c-1.054,1.055-2.838,2.115-3.341,3.648,2.668,1.607,7.75,7.04,8.505,10.487,1.087,4.959-1.89,11.421,1.367,14.438l0.152-.3c2.037-1.153,3.415-5.2,6.531-3.344,0.752,3.8-6.518,7.458-8.05,10.943-1.6,3.648,1.075,9.255-.152,13.222-1.106,3.576-4.384,5.879-6.683,8.359l-1.671,1.368c-0.351,1.047,2.661,2.941,3.189,3.5l10.784,10.942h0.3c2.145-3.119,6.42-7.591,10.632-8.511,6.8-1.485,9.618,3.241,15.188-1.216,0.951-.76,2.2-1.423,2.582-2.736-1.692-.87-14.646-13.987-15.34-15.654-1.631-3.92.937-7.108,3.493-8.359l-0.3-.3c-2.17-3.722-10.157-6.751-6.835-13.374,0.787-1.57,1.741-2.929,3.645-3.344A3.908,3.908,0,0,0,43.439,46.2l-0.608.608c-1.4.921-2.489,3.554-4.556,3.192a1.055,1.055,0,0,1-1.063-.76,1.667,1.667,0,0,1-.152-1.672,11.309,11.309,0,0,1,3.8-3.952c-3.33-6.519,1.153-13.449,8.657-10.031,1.968-4.58,4.349-4.768,9.72-4.1,0.473-1.066-.038-1-0.911-1.824-6.213-5.838-10.34.714-17.467-2.128C36.805,23.917,35.19,19.375,31.592,17.478Zm61.665,0c-2.582,3.4-6.523,7.8-11.543,8.663-4.221.728-7.231-2.185-11.087-1.064-3.778,1.1-5.7,4.982-8.809,6.839v0.3l16.1,15.806c0.581-3.863,6.059-6.687,10.328-4.407,2.429,1.3,8.207,9.424,10.024,12.006l0.456-.3c1.778-10.572-2.292-12.357,4.86-19.453,1.281-1.27,2.309-3.068,3.949-3.951C107.184,30.844,94.515,18.1,93.256,17.478ZM109.964,89.82L95.838,104.258l10.48,10.335,3.342-3.192,10.783-10.943C119.926,99.13,111.4,90.732,109.964,89.82Zm-95.231.3L4.557,100.458l0.3,0.3,13.821,13.831L29.01,104.258v-0.152L18.53,93.771C17.318,92.662,16.349,90.771,14.733,90.124Z"/>
</svg>
