<svg width="59" height="56" viewBox="0 0 59 56" fill="none" xmlns="http://www.w3.org/2000/svg">
<path d="M47.3055 0.278504C47.125 0.0929166 46.8739 -0.0083545 46.6143 0.000540343C46.3563 0.00562505 46.1116 0.114947 45.9357 0.303507L42.3998 4.10009H42.4002C42.0531 4.47043 42.0594 5.04754 42.4142 5.41067L42.6828 5.68609L41.279 7.08605L39.0614 6.53351C37.0887 6.04834 35.0055 6.628 33.5698 8.06147L28.3352 13.5466L22.8855 8.1118C22.2287 7.45291 21.3997 6.99019 20.493 6.7766C19.5863 6.56304 18.6375 6.60711 17.7546 6.90372C17.6471 6.93931 17.5472 6.99355 17.4584 7.06389L17.2196 7.25372L16.6087 6.60924L17.8038 5.41733C18.1756 5.04656 18.1756 4.44573 17.8038 4.07497L13.9968 0.278385C13.6255 -0.0919553 13.023 -0.0919553 12.6512 0.278385L0.278517 12.6173C-0.0928389 12.988 -0.0928389 13.5889 0.278517 13.9596L4.08551 17.7562C4.45729 18.1266 5.05977 18.1266 5.43111 17.7562L5.8611 17.3274L8.11592 19.5769L7.56187 21.7884L7.56229 21.788C7.07665 23.7333 7.64047 25.7904 9.05071 27.2188L16.3983 35.1972V35.1976C16.881 35.6476 17.4542 35.99 18.08 36.2018V43.0157C18.0779 43.8301 18.3044 44.6288 18.7339 45.3221C19.1631 46.0149 19.7783 46.5742 20.5099 46.9365C20.9246 47.1416 21.2739 47.4581 21.5173 47.8509C21.7608 48.2437 21.8887 48.6966 21.887 49.1585V49.356H20.9352C20.4097 49.356 19.9835 49.781 19.9835 50.3051V55.0509C19.9835 55.3025 20.0838 55.5441 20.2622 55.722C20.4407 55.9 20.6829 56 20.9352 56H39.0184C39.2708 56 39.513 55.9 39.6915 55.722C39.8699 55.5441 39.9702 55.3025 39.9702 55.0509V50.3051C39.9702 50.0534 39.8699 49.8119 39.6915 49.6339C39.513 49.456 39.2708 49.356 39.0184 49.356H38.0667V48.3831L39.1765 47.2877C40.8506 46.2318 41.8681 44.3963 41.8737 42.4204V31.2107C43.3298 31.4485 44.808 30.9357 45.8026 29.8484L50.8337 24.4001L50.8333 24.4005C51.4133 23.8264 51.8199 23.1018 52.0077 22.309C52.1951 21.5163 52.156 20.6866 51.8947 19.9146C51.7426 19.457 52.5609 17.9596 53.5394 16.8108V16.8113C53.7136 16.9833 53.9477 17.0816 54.1933 17.0854H54.2026C54.4521 17.0846 54.6913 16.9863 54.8689 16.8113L58.7196 13.0147C58.8993 12.8363 59 12.5944 59 12.3414C59 12.0889 58.8993 11.8469 58.7196 11.6685L47.3055 0.278504ZM5.13062 15.2587C5.03885 15.3498 4.96704 15.4587 4.9203 15.5786L4.75545 15.743L2.29407 13.2884L13.3213 2.29132L15.7827 4.74597L14.8556 5.67054C14.743 5.71376 14.6401 5.77816 14.5518 5.86037L5.13062 15.2587ZM18.0798 33.7492V34.1195V34.1191C17.9677 34.0525 17.864 33.9737 17.7697 33.8839L10.4212 25.9056V25.9051C9.46561 24.9462 9.08069 23.5598 9.40571 22.2471L10.0902 19.5153L10.0898 19.5157C10.1714 19.192 10.0766 18.85 9.84037 18.614L7.20397 15.9848L15.2586 7.95223L16.4359 9.19458H16.4363C16.7771 9.55432 17.338 9.59246 17.7246 9.28186L18.506 8.65432H18.5064C19.0367 8.50602 19.5971 8.50179 20.1299 8.64203C20.6627 8.78187 21.1484 9.0611 21.5368 9.45092L27.0186 14.9191L26.1277 15.8521V15.8517C25.8392 15.7691 25.5405 15.7259 25.2401 15.7229C25.0544 15.7119 24.8683 15.7148 24.683 15.7314C23.8647 15.8407 23.119 16.2581 22.5994 16.8979C22.0794 17.5377 21.8248 18.3517 21.8869 19.1729V29.0983C20.8128 29.3186 19.8478 29.9016 19.1544 30.7487C18.461 31.5957 18.0816 32.6554 18.0799 33.7491L18.0798 33.7492ZM38.0665 54.101H21.8868V51.2536H38.0665V54.101ZM39.97 30.009V42.4195C39.9662 43.7712 39.2554 45.0228 38.095 45.7215C38.03 45.7605 37.9701 45.8071 37.9161 45.8601L36.4486 47.3105C36.2659 47.488 36.1631 47.7312 36.1631 47.9855V49.3549H23.7904V49.1575C23.7929 48.3431 23.5669 47.5439 23.1373 46.8511C22.7082 46.1583 22.0925 45.599 21.3604 45.2376C20.9453 45.0325 20.5961 44.7155 20.3526 44.3228C20.1091 43.93 19.9812 43.4766 19.9834 43.0147V33.7482C19.9859 33.1613 20.1699 32.5893 20.5107 32.1109C20.8514 31.6325 21.332 31.2706 21.8868 31.0753V37.016H23.7903V19.172C23.7644 18.4153 24.3015 17.7547 25.0497 17.6241C25.4648 17.6339 25.8629 17.7898 26.1744 18.0635C26.4625 18.3076 26.635 18.6606 26.6503 19.0373V33.2191H28.5538V17.1379C28.5533 16.7336 28.725 16.3489 29.0262 16.0786C29.327 15.8082 29.729 15.6781 30.1318 15.7205C30.8872 15.8455 31.4319 16.5103 31.4043 17.2734V33.2191H33.3078V19.9853C33.3074 19.581 33.479 19.1963 33.7803 18.926C34.0811 18.6556 34.483 18.5255 34.8858 18.5679C35.643 18.6908 36.1902 19.3565 36.163 20.1208V33.219H38.0665V25.3801C38.6214 25.5754 39.1019 25.9373 39.4427 26.4156C39.7834 26.894 39.9674 27.4661 39.97 28.053L39.97 30.009ZM50.09 20.5175C50.2378 20.9616 50.2574 21.4383 50.1461 21.893C50.0352 22.3476 49.7972 22.7616 49.4607 23.0879L44.4296 28.537H44.43C43.76 29.2035 42.8018 29.4946 41.8735 29.3133V28.054C41.8718 26.9604 41.4924 25.9006 40.799 25.0536C40.1055 24.2066 39.1406 23.6235 38.0665 23.4032V20.1218C38.0771 19.2824 37.7784 18.4685 37.2269 17.8341C36.6754 17.1998 35.9098 16.7896 35.0753 16.6812C34.4648 16.6193 33.8495 16.7265 33.2964 16.9913C33.2807 16.7956 33.2488 16.6015 33.2012 16.4108C33.1851 16.3502 33.1604 16.293 33.1421 16.2333C33.1056 16.1083 33.0623 15.9854 33.013 15.8651C32.9837 15.7969 32.9454 15.7341 32.911 15.6676C32.8579 15.5642 32.8065 15.4608 32.7436 15.3638C32.7007 15.2973 32.6484 15.2367 32.6047 15.174C32.5388 15.0858 32.4742 14.9985 32.4011 14.9168C32.3467 14.857 32.289 14.8019 32.2308 14.746C32.1539 14.6719 32.0765 14.5998 31.9937 14.5333C31.9299 14.482 31.8632 14.4384 31.7957 14.3901C31.709 14.3303 31.6215 14.2744 31.5301 14.2231C31.4579 14.1833 31.3835 14.1473 31.3083 14.113C31.2131 14.0693 31.118 14.0312 31.0228 13.9973C30.9429 13.9698 30.863 13.946 30.781 13.9244C30.7343 13.913 30.6905 13.8931 30.6429 13.8837L34.9381 9.38587V9.38503C35.9001 8.43292 37.2898 8.04863 38.6062 8.37147L41.3455 9.05494C41.6697 9.13587 42.013 9.04096 42.2496 8.80494L43.8931 7.16601L52.2094 15.4596C51.3226 16.482 49.5296 18.8388 50.0901 20.5147L50.09 20.5175ZM54.2157 14.7904L53.9845 14.5532L53.9561 14.5256L44.4101 4.73033L46.6569 2.31592L56.7037 12.3387L54.2157 14.7904Z" fill="white"/>
</svg>
