<svg xmlns="http://www.w3.org/2000/svg" width="19.781" height="19.75" viewBox="0 0 19.781 19.75">
  <defs>
    <style>
      .cls-1 {
        fill: #8d8d8d;
        fill-rule: evenodd;
      }
    </style>
  </defs>
  <path id="inst" class="cls-1" d="M546.858,800.785a8.358,8.358,0,1,1-8.358,8.357A8.358,8.358,0,0,1,546.858,800.785Zm8.89-3.029a2.533,2.533,0,1,1-2.533,2.533A2.532,2.532,0,0,1,555.748,797.756Zm-8.89,4.774a6.613,6.613,0,1,1-6.613,6.612A6.612,6.612,0,0,1,546.858,802.53Zm8.853-3.049a0.808,0.808,0,1,1-.808.808A0.807,0.807,0,0,1,555.711,799.481Z" transform="translate(-538.5 -797.75)"/>
</svg>
