<svg xmlns="http://www.w3.org/2000/svg" width="19.969" height="16.375" viewBox="0 0 19.969 16.375">
  <defs>
    <style>
      .cls-1 {
        fill: #8d8d8d;
        fill-rule: evenodd;
      }
    </style>
  </defs>
  <path id="twitter" class="cls-1" d="M755.73,517.892a4.308,4.308,0,0,0,1.727-2.284,7.863,7.863,0,0,1-2.563,1c-2.113-2.511-8-1.306-7.076,3.788a11.632,11.632,0,0,1-8.524-4.29,4.22,4.22,0,0,0,1.225,5.516,2.746,2.746,0,0,1-1.782-.557,4.165,4.165,0,0,0,3.231,4.123,4.367,4.367,0,0,1-1.783.111,4.1,4.1,0,0,0,3.789,2.842c-0.548.841-3.364,1.972-5.962,1.727,9.358,5.4,18.425-2.079,17.941-10.475a7.582,7.582,0,0,0,2-2.117A6.98,6.98,0,0,1,755.73,517.892Z" transform="translate(-738 -515.344)"/>
</svg>
