<svg xmlns="http://www.w3.org/2000/svg" width="54.375" height="51.406" viewBox="0 0 54.375 51.406">
  <defs>
    <style>
      .cls-1 {
        fill: #fff;
        fill-rule: evenodd;
      }
    </style>
  </defs>
  <path id="cloud" class="cls-1" d="M372.18,215.05a0.826,0.826,0,0,1-.826-0.826v-2.595h-10.59v2.595a0.826,0.826,0,1,1-1.651,0V187.269a0.826,0.826,0,0,1,1.651,0v2.6h10.59v-2.6a0.826,0.826,0,0,1,1.651,0v26.955A0.825,0.825,0,0,1,372.18,215.05ZM357.52,198.3H346.55c-3.468,0-7.55-3.974-7.55-8.258a8.589,8.589,0,0,1,8.257-8.2,14.273,14.273,0,0,1,7.2-16.692c7.71-3.417,14.427-.7,18.226,5.308,4.342-1.241,12.858,4.307,12.858,11.443,5.33,0,7.844,4.654,7.844,8.316s-3.071,8.022-7.844,8.022H374.684V186.915a2.472,2.472,0,0,0-4.9,0v1.357h-7.432v-1.357a2.361,2.361,0,0,0-2.3-2.123,2.412,2.412,0,0,0-2.537,2.123V198.3Zm-4.069-4.129H347.2a4.008,4.008,0,0,1-4.01-4.247,3.932,3.932,0,0,1,4.01-3.951h5.6s-1.04-3.239-1.829-5.9,0.179-8.716,4.955-11.03,11.119-1.526,14.509,5.6c7.137-.581,10.263,2.426,11.089,7.55,1.111-.04,4.011-0.118,4.011-0.118s-0.136,3.224-.177,3.834a4.135,4.135,0,0,1,.177,8.257H378.7v-7.491a6.446,6.446,0,0,0-4.955-5.78c-3.244-.557-5.933.6-7.313,3.3h-0.708a6.413,6.413,0,0,0-6.96-3.362,6.619,6.619,0,0,0-5.308,6.016v7.314Zm17.9-2.654h-10.59v5.072h10.59v-5.072Zm0,6.724h-10.59v5.072h10.59V198.24Zm-10.59,6.724v5.013h10.59v-5.013h-10.59Z" transform="translate(-339 -163.656)"/>
</svg>
