<svg width="38" height="20" viewBox="0 0 38 20" fill="none" xmlns="http://www.w3.org/2000/svg">
<path d="M3.43524 19.5516L19.4302 3.61181L35.4252 19.5516C35.7109 19.837 36.0946 19.9967 36.4941 19.9967C36.8935 19.9967 37.2772 19.837 37.563 19.5516C37.7013 19.413 37.8113 19.2476 37.8863 19.065C37.9613 18.8824 38 18.6863 38 18.4883C38 18.2902 37.9613 18.0942 37.8863 17.9116C37.8113 17.729 37.7013 17.5636 37.563 17.425L20.5471 0.464423C20.2483 0.166653 19.8475 -1.58694e-06 19.4302 -1.62342e-06C19.0129 -1.6599e-06 18.6121 0.166653 18.3133 0.464422L1.29746 17.4217C1.15811 17.5604 1.04735 17.7263 0.971726 17.9095C0.896099 18.0926 0.857136 18.2895 0.857136 18.4883C0.857136 18.6871 0.896099 18.8839 0.971726 19.0671C1.04735 19.2503 1.15811 19.4162 1.29746 19.5549C1.58324 19.8402 1.96687 20 2.36635 20C2.76583 20 3.14947 19.8402 3.43524 19.5549L3.43524 19.5516Z" fill="#008698"/>
</svg>
