<svg width="38" height="20" viewBox="0 0 38 20" fill="none" xmlns="http://www.w3.org/2000/svg">
<path d="M34.5648 0.448398L18.5698 16.3882L2.57483 0.448398C2.28905 0.163032 1.90542 0.00327148 1.50594 0.00327148C1.10646 0.00327148 0.722827 0.163032 0.43705 0.448398C0.298677 0.587002 0.188748 0.752438 0.113701 0.93502C0.038655 1.1176 0 1.31366 0 1.5117C0 1.70975 0.038655 1.90581 0.113701 2.08839C0.188748 2.27097 0.298677 2.43641 0.43705 2.57501L17.4529 19.5356C17.7517 19.8333 18.1525 20 18.5698 20C18.9871 20 19.3879 19.8333 19.6867 19.5356L36.7025 2.57828C36.8419 2.43958 36.9526 2.27373 37.0283 2.09055C37.1039 1.90736 37.1429 1.71054 37.1429 1.5117C37.1429 1.31287 37.1039 1.11605 37.0283 0.932862C36.9526 0.749675 36.8419 0.583833 36.7025 0.445125C36.4168 0.159759 36.0331 0 35.6336 0C35.2342 0 34.8505 0.159759 34.5648 0.445125V0.448398Z" fill="#008698"/>
</svg>
