<svg width="33" height="30" viewBox="0 0 33 30" fill="none" xmlns="http://www.w3.org/2000/svg">
<path d="M29.8011 10.5119H26.5399V3.15708C26.5399 1.42246 25.1175 0 23.3828 0H3.15708C1.42246 0 0 1.42246 0 3.15708V26.6439C0 28.3786 1.42246 29.801 3.15708 29.801H28.448C30.9458 29.801 32.958 27.7889 32.958 25.2909V13.6689C32.958 11.9343 31.5356 10.5118 29.801 10.5118L29.8011 10.5119ZM3.15721 27.2337C2.84503 27.2337 2.60207 26.9907 2.60207 26.6786V3.15703C2.60207 2.84485 2.84504 2.60189 3.15721 2.60189H23.383C23.6951 2.60189 23.9381 2.84486 23.9381 3.15703L23.9379 25.3256C23.9379 26.0194 24.0765 26.6439 24.3541 27.2337L3.15721 27.2337ZM30.3562 25.3256C30.3562 26.3664 29.4888 27.2337 28.448 27.2337C27.4072 27.2337 26.5399 26.3664 26.5399 25.3256V13.1138H29.801C30.1132 13.1138 30.3562 13.3567 30.3562 13.6689L30.3562 25.3256Z" fill="white"/>
<path d="M6.62634 13.5302H10.4078C11.1364 13.5302 11.6913 12.9404 11.6913 12.2466V6.86894C11.6913 6.14027 11.1016 5.58538 10.4078 5.58538H6.62634C5.89767 5.58538 5.34278 6.17512 5.34278 6.86894V12.2115C5.30793 12.9401 5.89767 13.5301 6.62634 13.5301V13.5302Z" fill="white"/>
<path d="M19.9136 16.3056H6.62634C5.89767 16.3056 5.34277 16.8953 5.34277 17.5891C5.34277 18.2829 5.93252 18.8727 6.62634 18.8727H19.9136C20.6423 18.8727 21.1971 18.2829 21.1971 17.5891C21.1971 16.8956 20.642 16.3056 19.9136 16.3056Z" fill="white"/>
<path d="M19.9135 10.9282H15.2645C14.5359 10.9282 13.981 11.518 13.981 12.2118C13.981 12.9056 14.5707 13.4953 15.2645 13.4953H19.9133C20.6419 13.4953 21.1968 12.9056 21.1968 12.2118C21.1971 11.518 20.6419 10.9282 19.9135 10.9282Z" fill="white"/>
<path d="M19.9135 5.58557H15.2645C14.5359 5.58557 13.981 6.17531 13.981 6.86913C13.981 7.56295 14.5707 8.15269 15.2645 8.15269H19.9133C20.6419 8.15269 21.1968 7.56295 21.1968 6.86913C21.1971 6.17534 20.6419 5.58557 19.9135 5.58557Z" fill="white"/>
<path d="M19.9136 21.6482H6.62634C5.89767 21.6482 5.34277 22.238 5.34277 22.9318C5.34277 23.6604 5.93252 24.2153 6.62634 24.2153H19.9136C20.6423 24.2153 21.1971 23.6256 21.1971 22.9318C21.1971 22.238 20.642 21.6482 19.9136 21.6482Z" fill="white"/>
</svg>
