<svg width="119" height="118" viewBox="0 0 119 118" fill="none" xmlns="http://www.w3.org/2000/svg">
<g clip-path="url(#clip0_348_1198)">
<path d="M40.7748 46.183C42.5851 46.183 44.3398 45.8184 45.9863 45.0984C46.8452 44.7214 47.2375 43.7201 46.8637 42.861C46.4868 42.002 45.4859 41.6095 44.6271 41.9865C43.413 42.518 42.1156 42.7869 40.7779 42.7869C35.4737 42.7869 31.1581 38.4698 31.1581 33.1639C31.1581 27.858 35.4737 23.541 40.7779 23.541C46.0821 23.541 50.3978 27.858 50.3978 33.1639C50.3978 34.5793 50.0981 35.939 49.5081 37.209C49.1126 38.0589 49.4833 39.0724 50.3329 39.4649C51.1824 39.8604 52.1957 39.4896 52.588 38.6398C53.3881 36.9186 53.7928 35.0737 53.7928 33.1609C53.7928 25.9792 47.9511 20.1387 40.7748 20.1387C33.5986 20.1387 27.7568 25.9823 27.7568 33.1609C27.7568 40.3394 33.5986 46.183 40.7748 46.183Z" fill="black"/>
<path d="M12.3167 37.2773L17.4325 38.0808C18.0379 40.9547 19.1779 43.7111 20.7812 46.1771L17.7321 50.3613C17.2378 51.0381 17.312 51.9713 17.9051 52.5646L21.3527 56.0133C21.9458 56.6066 22.8788 56.6777 23.5553 56.1864L27.7288 53.1425C30.1971 54.7556 32.9558 55.9051 35.8319 56.5139L36.6289 61.6035C36.7586 62.4317 37.4723 63.0405 38.3063 63.0405H43.1811C44.0183 63.0405 44.7289 62.4317 44.8586 61.6035L45.6556 56.5263C48.5379 55.9237 51.3089 54.7772 53.7865 53.161L57.9353 56.1864C58.6118 56.6777 59.5448 56.6066 60.1379 56.0133L63.5855 52.5646C64.1786 51.9713 64.2497 51.0381 63.7585 50.3613L60.7403 46.2204C62.3621 43.739 63.5144 40.9639 64.123 38.0746L69.1739 37.2835C70.0018 37.1537 70.6104 36.4429 70.6104 35.6055V34.8669H81.642V58.6091C81.642 59.5485 82.4019 60.3087 83.3411 60.3087C83.5233 60.3087 83.6994 60.2778 83.8631 60.2253C84.0269 60.2778 84.203 60.3087 84.3852 60.3087H92.8219C93.5973 63.7512 96.6772 66.3285 100.347 66.3285C104.604 66.3285 108.064 62.8643 108.064 58.6091C108.064 54.3539 104.601 50.8897 100.347 50.8897C96.6741 50.8897 93.5973 53.4701 92.8219 56.9095H85.0401V34.8608H92.8219C93.5973 38.3033 96.6772 40.8805 100.347 40.8805C104.604 40.8805 108.064 37.4164 108.064 33.1611C108.064 28.9059 104.601 25.4418 100.347 25.4418C96.6741 25.4418 93.5973 28.0221 92.8219 31.4615H85.0401V9.41899H92.8219C93.5973 12.8615 96.6772 15.4387 100.347 15.4387C104.604 15.4387 108.064 11.9746 108.064 7.71937C108.064 3.46413 104.607 0 100.35 0C96.6772 0 93.6004 2.58033 92.825 6.01975H84.3883C84.2061 6.01975 84.03 6.05065 83.8662 6.10318C83.7025 6.05065 83.5264 6.01975 83.3442 6.01975C82.405 6.01975 81.6451 6.77994 81.6451 7.71937V31.4615H70.6135V30.723C70.6135 29.8855 70.0049 29.1748 69.177 29.045L64.1261 28.2508C63.5175 25.3614 62.3652 22.5864 60.7434 20.105L63.7616 15.9641C64.2558 15.2873 64.1817 14.3541 63.5886 13.7607L60.141 10.3121C59.5479 9.71874 58.6149 9.64766 57.9384 10.139L53.7895 13.1643C51.312 11.5481 48.541 10.4017 45.6587 9.79908L44.8617 4.72185C44.7319 3.89368 44.0183 3.2849 43.1842 3.2849H38.3094C37.4723 3.2849 36.7617 3.89368 36.632 4.72185L35.835 9.81453C32.9589 10.4233 30.1971 11.5698 27.7319 13.1829L23.5584 10.139C22.8819 9.64766 21.9489 9.71874 21.3558 10.3121L17.9082 13.7607C17.3151 14.3541 17.244 15.2873 17.7352 15.9641L20.7843 20.1482C19.181 22.6111 18.041 25.3676 17.4355 28.2415L12.3198 29.045C11.4919 29.1748 10.8833 29.8855 10.8833 30.723V35.5993C10.8833 36.4368 11.4919 37.1475 12.3198 37.2773H12.3167ZM100.35 54.2797C102.732 54.2797 104.669 56.2173 104.669 58.5998C104.669 60.9824 102.732 62.9199 100.35 62.9199C97.9685 62.9199 96.0316 60.9824 96.0316 58.5998C96.0316 56.2173 97.9685 54.2797 100.35 54.2797ZM100.35 28.841C102.732 28.841 104.669 30.7786 104.669 33.1611C104.669 35.5437 102.732 37.4813 100.35 37.4813C97.9685 37.4813 96.0316 35.5437 96.0316 33.1611C96.0316 30.7786 97.9685 28.841 100.35 28.841ZM100.35 3.39924C102.732 3.39924 104.669 5.33681 104.669 7.71937C104.669 10.1019 102.732 12.0395 100.35 12.0395C97.9685 12.0395 96.0316 10.1019 96.0316 7.71937C96.0316 5.33681 97.9685 3.39924 100.35 3.39924ZM14.2814 32.1754L18.1955 31.5604C18.3623 31.6315 18.5415 31.6747 18.733 31.6871C19.6227 31.752 20.4074 31.1154 20.534 30.2316C21.0098 26.9034 22.3196 23.7112 24.3214 21.0042C24.8497 20.2873 24.7385 19.2861 24.065 18.7051C23.9847 18.634 23.8982 18.5753 23.8086 18.5228L21.3372 15.1328L22.7274 13.7422L26.073 16.1835C26.1286 16.2885 26.1997 16.3874 26.28 16.4801C26.8608 17.1538 27.8648 17.2651 28.5784 16.7335C31.2228 14.7651 34.3367 13.4548 37.5866 12.948C38.3156 12.8337 38.8871 12.262 39.0014 11.5327L39.7614 6.68723H41.7292L42.4861 11.5203C42.6004 12.2527 43.175 12.8244 43.9071 12.9357C47.1045 13.427 50.1844 14.7002 52.8134 16.6223C53.4096 17.058 54.2189 17.058 54.8152 16.6223L58.7601 13.7453L60.1503 15.1359L57.2773 19.079C56.8417 19.6754 56.8417 20.4881 57.2773 21.0846C59.205 23.7143 60.4839 26.7984 60.9813 30.0029C61.0956 30.7353 61.6671 31.307 62.3961 31.4213L67.203 32.1754V34.1438L62.3961 34.8978C61.6671 35.0122 61.0925 35.587 60.9813 36.3162C60.4839 39.5208 59.205 42.6048 57.2773 45.2346C56.8386 45.831 56.8386 46.6438 57.2773 47.2402L60.1503 51.1833L58.7601 52.5739L54.8121 49.6969C54.2159 49.2612 53.4065 49.2612 52.8103 49.6969C50.1782 51.6159 47.0983 52.8891 43.904 53.3804C43.1719 53.4917 42.5973 54.0665 42.483 54.7958L41.7261 59.6289H39.7583L39.0694 55.2407C39.0694 55.2222 39.0725 55.2037 39.0756 55.182C39.1404 54.2982 38.5164 53.5102 37.6391 53.3773C34.3954 52.8798 31.2753 51.5788 28.6247 49.6166C27.908 49.0881 26.9071 49.1994 26.3263 49.8761C26.2831 49.9287 26.2429 49.9812 26.2059 50.0368L22.7274 52.5739L21.3372 51.1833L23.7252 47.9077C23.858 47.8428 23.9878 47.7593 24.1052 47.6604C24.7786 47.0795 24.8868 46.0752 24.3554 45.3613C22.3505 42.6636 21.0314 39.4837 20.5433 36.1617C20.4136 35.281 19.6227 34.6475 18.7361 34.7124C18.6064 34.7217 18.4766 34.7464 18.3561 34.7835L14.2814 34.1438V32.1754Z" fill="black"/>
<path d="M89.8254 101.773L84.4594 104.644C84.4038 104.675 84.3513 104.706 84.2988 104.743H84.2957C74.9755 111.18 60.1719 115.021 52.1924 114.567C44.1141 114.109 13.0829 110.654 12.7709 110.621H12.7647C12.74 110.621 12.7152 110.617 12.6905 110.614C12.6535 110.614 12.6164 110.608 12.5793 110.608H3.39815V90.9729H12.5855C12.6596 90.9729 12.7307 90.9667 12.8017 90.9574C12.8203 90.9574 12.8388 90.9513 12.8574 90.9482C12.9284 90.9358 12.9995 90.9204 13.0643 90.9018H13.0736C13.1477 90.8771 13.2188 90.8462 13.2898 90.8153C13.3022 90.8091 13.3176 90.8029 13.33 90.7967C13.4011 90.7628 13.469 90.7226 13.5339 90.6793H13.537C13.5648 90.6577 16.4161 88.7047 20.6854 86.5415C20.9975 86.3839 21.3187 86.2232 21.6462 86.0625C22.4896 85.6515 22.8386 84.6318 22.4247 83.7881C22.0107 82.9445 20.9944 82.5953 20.151 83.0063C19.8081 83.1732 19.4745 83.3401 19.147 83.5069C15.6068 85.2992 13.0427 86.9247 12.0542 87.5767H1.69907C0.759949 87.5767 0 88.3369 0 89.2764V112.311C0 113.25 0.759949 114.01 1.69907 114.01H12.4866C14.7171 114.258 43.972 117.509 51.9978 117.963C52.4736 117.991 52.974 118.003 53.493 118.003C62.1984 118.003 76.4923 114.224 86.1338 107.604L91.4256 104.774C92.2535 104.332 92.5655 103.303 92.1237 102.475C91.682 101.646 90.6533 101.334 89.8254 101.776V101.773Z" fill="black"/>
<path d="M118.296 83.0226C116.664 79.747 112.698 78.3935 109.42 79.9602C109.414 79.1228 109.226 78.2884 108.843 77.5158C108.076 75.8688 105.21 73.4213 99.6923 75.7297C99.6583 75.7451 99.6243 75.7606 99.5903 75.7761L95.9976 77.5684C96.1026 76.5177 95.9172 75.4578 95.4353 74.4905C94.0452 71.7001 90.6439 70.5598 87.8544 71.9504L84.7281 73.5109C84.6817 72.7785 84.4933 72.0462 84.1473 71.3478C82.7572 68.5573 79.3559 67.417 76.5664 68.8076L53.6258 80.2476H53.391C47.1415 76.4435 38.9149 76.1654 28.9336 79.4194C28.0408 79.7099 27.5527 80.671 27.8431 81.5609C28.1335 82.454 29.0943 82.9423 29.984 82.6518C39.1806 79.6543 46.5824 79.8984 51.9823 83.3749C52.2573 83.551 52.5754 83.6468 52.9029 83.6468H76.1987C76.3069 83.6468 76.4119 83.653 76.5169 83.6623C76.5509 83.6654 76.5849 83.6716 76.6189 83.6746C76.6899 83.6839 76.7579 83.6932 76.8258 83.7056C76.866 83.7117 76.9031 83.7241 76.9432 83.7334C77.005 83.7488 77.0668 83.7643 77.1286 83.7828C77.1688 83.7952 77.2058 83.8075 77.2429 83.8199C77.3047 83.8415 77.3634 83.8632 77.4221 83.8848C77.456 83.9002 77.4931 83.9126 77.5271 83.928C77.5889 83.9559 77.6507 83.9868 77.7125 84.0177C77.7403 84.0331 77.7711 84.0455 77.799 84.0609C77.8669 84.1011 77.9349 84.1413 78.0028 84.1845C78.0214 84.1969 78.0399 84.2062 78.0554 84.2185C78.3087 84.3916 78.5373 84.6017 78.735 84.8366C78.7535 84.8582 78.769 84.8798 78.7875 84.9046C78.8308 84.9602 78.874 85.0158 78.9142 85.0745C78.9389 85.1116 78.9605 85.1456 78.9852 85.1827C79.013 85.229 79.0408 85.2723 79.0686 85.3186C79.0964 85.3681 79.1211 85.4175 79.1459 85.467C79.1644 85.501 79.1798 85.5381 79.1953 85.572C79.2231 85.6339 79.2509 85.6957 79.2756 85.7605C79.2849 85.7822 79.2911 85.8038 79.3003 85.8285C79.3281 85.9058 79.3528 85.983 79.3775 86.0634V86.0788C79.4054 86.1715 79.427 86.2643 79.4455 86.357C79.4455 86.3601 79.4455 86.3631 79.4455 86.3693C79.4764 86.5331 79.4918 86.7031 79.498 86.873C79.498 86.8792 79.498 86.8823 79.498 86.8885C79.498 86.9163 79.498 86.9472 79.5011 86.9781C79.5011 87.0399 79.4949 87.0986 79.4918 87.1573C79.4888 87.2099 79.4888 87.2624 79.4826 87.3118C79.4764 87.3706 79.464 87.4293 79.4548 87.4849C79.4455 87.5343 79.4393 87.5869 79.4301 87.6363C79.4177 87.6919 79.4023 87.7476 79.3868 87.8032C79.3745 87.8526 79.3621 87.9021 79.3467 87.9515C79.3312 88.004 79.3096 88.0566 79.288 88.1091C79.2694 88.1586 79.254 88.2049 79.2324 88.2544C79.2107 88.3038 79.186 88.3532 79.1613 88.4027C79.1397 88.449 79.118 88.4985 79.0933 88.5417C79.0686 88.5881 79.0377 88.6345 79.0099 88.6808C78.9821 88.7241 78.9574 88.7704 78.9265 88.8137C78.8956 88.8569 78.8616 88.9002 78.8308 88.9435C78.7999 88.9837 78.769 89.0269 78.7381 89.0671C78.7041 89.1073 78.667 89.1474 78.63 89.1845C78.596 89.2216 78.562 89.2618 78.5249 89.2989C78.4879 89.3359 78.4446 89.3699 78.4075 89.407C78.3674 89.441 78.3303 89.4781 78.2901 89.5121C78.25 89.5461 78.2036 89.577 78.1604 89.6079C78.1202 89.6388 78.0801 89.6728 78.0368 89.7006C77.9905 89.7315 77.9441 89.7562 77.8947 89.7871C77.8515 89.8149 77.8082 89.8427 77.7619 89.8675C77.7125 89.8953 77.6599 89.9169 77.6105 89.9416C77.5642 89.9632 77.5209 89.988 77.4746 90.0065C77.419 90.0312 77.3634 90.0467 77.3047 90.0683C77.2614 90.0838 77.2151 90.1023 77.1718 90.1178C77.1101 90.1363 77.0483 90.1487 76.9865 90.1641C76.9432 90.1734 76.9 90.1888 76.8567 90.1981C76.7857 90.2136 76.7146 90.2197 76.6436 90.2321C76.6065 90.2383 76.5694 90.2445 76.5293 90.2506C76.4181 90.263 76.3069 90.2692 76.1926 90.2692C76.1277 90.2692 76.0628 90.2723 76.001 90.2815C75.9979 90.2815 75.9918 90.2815 75.9887 90.2815L48.3617 93.6468C48.3216 93.653 48.2783 93.6591 48.2382 93.6684C48.2289 93.6684 48.2196 93.6684 48.2073 93.6746C48.1579 93.687 48.1084 93.6993 48.059 93.7148H48.0497C47.8397 93.7828 47.6512 93.8909 47.4875 94.0238L47.4782 94.0331C47.4442 94.0609 47.4103 94.0918 47.3794 94.1227C47.3701 94.1289 47.3639 94.1381 47.3547 94.1443C47.3269 94.1721 47.3021 94.1999 47.2774 94.2308C47.2651 94.2432 47.2527 94.2587 47.2434 94.271C47.2218 94.2957 47.2033 94.3235 47.1848 94.3483C47.1724 94.3668 47.1569 94.3854 47.1446 94.4039C47.1291 94.4286 47.1137 94.4533 47.1013 94.4781C47.089 94.4997 47.0735 94.5244 47.0612 94.5491C47.0488 94.5739 47.0365 94.5986 47.0241 94.6233C47.0118 94.648 46.9994 94.6727 46.9901 94.6975C46.9778 94.7253 46.9685 94.7562 46.9592 94.784C46.95 94.8056 46.9438 94.8303 46.9376 94.852C46.9283 94.8891 46.9191 94.9231 46.9098 94.9601C46.9067 94.9787 46.9005 94.9941 46.8975 95.0127C46.8882 95.0559 46.8851 95.0961 46.8789 95.1394C46.8789 95.1517 46.8758 95.1641 46.8727 95.1764V95.1826C46.8696 95.2166 46.8696 95.2537 46.8696 95.2908C46.8696 95.3124 46.8696 95.3371 46.8696 95.3588C46.8696 95.3773 46.8696 95.3959 46.8727 95.4144C46.8727 95.4546 46.8758 95.4947 46.882 95.5349V95.5442C46.9098 95.7481 46.9716 95.9428 47.0643 96.119C47.0674 96.1252 47.0704 96.1344 47.0766 96.1437C47.1199 96.224 47.1693 96.2982 47.2249 96.3693C47.2342 96.3816 47.2404 96.3909 47.2496 96.4033C47.3052 96.4713 47.367 96.5331 47.4319 96.5949C47.4412 96.6041 47.4535 96.6134 47.4628 96.6227C47.5277 96.6814 47.5987 96.7308 47.6759 96.7772C47.6883 96.7834 47.7007 96.7926 47.7099 96.7988C47.7871 96.8421 47.8644 96.8823 47.9478 96.9162C47.9601 96.9224 47.9756 96.9255 47.9879 96.9317C48.0714 96.9626 48.1579 96.9873 48.2474 97.0059C48.2598 97.0059 48.2691 97.0059 48.2814 97.012C48.3247 97.0182 48.3679 97.0275 48.4143 97.0306L64.5833 98.517C66.0877 98.656 67.5891 98.724 69.0812 98.724C73.4123 98.724 77.6847 98.1431 81.8335 96.9904C82.9919 96.669 83.3781 96.5114 83.6036 96.3971L83.6252 96.3878L110.823 83.069C112.454 82.2562 114.443 82.9206 115.256 84.5523C116.068 86.1839 115.404 88.174 113.773 88.9867C113.758 88.9929 113.745 89.0022 113.73 89.0084L98.92 96.9255C98.0921 97.3674 97.7801 98.3965 98.2218 99.2246C98.5276 99.7963 99.1146 100.124 99.7232 100.124C99.9919 100.124 100.267 100.059 100.523 99.923L115.314 92.0152C118.605 90.3588 119.945 86.3353 118.302 83.035L118.296 83.0226ZM89.3712 74.9911C90.4833 74.4349 91.8395 74.8892 92.3955 76.0047C92.6643 76.5455 92.7076 77.1543 92.516 77.726C92.3245 78.2977 91.9229 78.7612 91.3823 79.0301L82.0466 83.6839C82.0374 83.6685 82.0281 83.653 82.0188 83.6376C81.9292 83.4831 81.8366 83.3316 81.7377 83.1833C81.7099 83.1431 81.6821 83.1061 81.6574 83.069C81.5647 82.9392 81.469 82.8094 81.3639 82.6858C81.3268 82.6394 81.2867 82.5962 81.2496 82.5529C81.1569 82.4447 81.0612 82.3397 80.9592 82.2377C80.9098 82.1883 80.8573 82.1388 80.8079 82.0894C80.709 81.9967 80.6071 81.904 80.502 81.8174C80.4464 81.7711 80.3908 81.7278 80.3352 81.6815C80.224 81.5918 80.1097 81.5084 79.9923 81.4281C79.9429 81.3941 79.8904 81.3601 79.8378 81.3261C79.7081 81.2396 79.5722 81.1592 79.4362 81.082C79.3992 81.0603 79.359 81.0387 79.3219 81.0202C79.1675 80.9398 79.013 80.8626 78.8524 80.7946C78.8308 80.7853 78.806 80.7729 78.7844 80.7637C78.6238 80.6957 78.46 80.637 78.2932 80.5813L81.6111 78.9281C81.8489 78.8076 82.0713 78.6716 82.2876 78.5233L89.3743 74.988L89.3712 74.9911ZM78.0801 71.8484C79.1922 71.2921 80.5484 71.7464 81.1044 72.862C81.5802 73.8168 81.3114 74.951 80.5237 75.603L71.2127 80.2445H61.2407L78.0801 71.8484ZM64.8922 95.1177L64.5616 95.0868L76.3069 93.6561C76.3779 93.6561 76.4428 93.6468 76.5138 93.6437C76.6467 93.6375 76.7764 93.6313 76.9062 93.619C76.9958 93.6097 77.0853 93.5943 77.1749 93.5819C77.2985 93.5634 77.419 93.5448 77.5395 93.5201C77.629 93.5016 77.7186 93.4799 77.8082 93.4583C77.9256 93.4305 78.0399 93.3996 78.1542 93.3656C78.2438 93.3378 78.3303 93.31 78.4168 93.2791C78.528 93.2389 78.6361 93.1987 78.7443 93.1555C78.8277 93.1215 78.9111 93.0844 78.9945 93.0473C79.0995 92.9978 79.2046 92.9453 79.3065 92.8928C79.3868 92.8495 79.4671 92.8093 79.5444 92.763C79.6463 92.7043 79.7452 92.6425 79.844 92.5776C79.9182 92.5281 79.9923 92.4818 80.0634 92.4323C80.1622 92.3613 80.2549 92.2871 80.3507 92.2129C80.4155 92.1604 80.4835 92.111 80.5484 92.0553C80.6472 91.9719 80.7399 91.8823 80.8326 91.7927C80.8882 91.7401 80.9438 91.6907 80.9963 91.6351C81.1075 91.5207 81.2095 91.4033 81.3114 91.2828C81.3423 91.2488 81.3732 91.2148 81.4041 91.1777C81.5338 91.0201 81.6543 90.8532 81.7686 90.6833C81.7995 90.6369 81.8273 90.5844 81.8582 90.538C81.9385 90.4113 82.0157 90.2877 82.0868 90.1579C82.1239 90.0899 82.1548 90.0189 82.1918 89.9478C82.2505 89.8335 82.3061 89.7191 82.3587 89.5986C82.3926 89.5213 82.4204 89.441 82.4513 89.3607C82.4946 89.2463 82.5378 89.132 82.578 89.0145C82.6058 88.9311 82.6274 88.8446 82.6521 88.7581C82.6861 88.6406 82.717 88.5232 82.7417 88.4058C82.7602 88.3162 82.7788 88.2265 82.7942 88.1338C82.8066 88.0689 82.822 88.004 82.8313 87.9361L101.061 78.8477C104.589 77.3861 105.611 78.7056 105.772 78.9744C105.778 78.9899 105.772 78.9652 105.79 79.0115C106.059 79.5523 106.102 80.1611 105.911 80.7328C105.719 81.3045 105.318 81.768 104.777 82.0368L82.1146 93.3378L82.0992 93.344C82.0714 93.3563 81.8335 93.4583 80.9222 93.7117C75.7384 95.1517 70.3477 95.6307 64.8922 95.127V95.1177Z" fill="black"/>
</g>
<defs>
<clipPath id="clip0_348_1198">
<rect width="119" height="118" fill="white"/>
</clipPath>
</defs>
</svg>
