<svg width="58" height="59" viewBox="0 0 58 59" fill="none" xmlns="http://www.w3.org/2000/svg">
<path d="M44.1904 29.7239C44.1904 21.3738 37.3822 14.5013 28.9679 14.5013C20.5536 14.5013 13.7454 21.3096 13.7454 29.7239C13.7454 30.8798 13.8739 32.1003 14.1952 33.3206C14.7091 35.6329 15.6724 37.5599 17.0214 40.0003C17.728 41.2848 18.4345 42.0559 18.9484 42.6339C19.7191 43.469 19.8476 43.6617 19.8476 45.1389V48.6071C19.8476 50.0842 20.6828 51.3047 21.9032 51.9471C22.5457 56.1864 24.5368 58.884 28.9688 58.884C33.4008 58.884 35.3918 56.1863 36.0343 51.9471C37.2548 51.3047 38.0899 50.0847 38.0899 48.6071V45.1389C38.0899 43.6617 38.2826 43.469 38.9891 42.6339C39.503 42.0559 40.2096 41.2848 40.9161 40.0003C42.3292 37.5595 43.2925 35.6329 43.7424 33.3206C44.0623 32.1002 44.1904 30.8798 44.1904 29.7239H44.1904ZM34.1706 45.396V48.479H23.7655V45.396H34.1706ZM28.9681 54.9661C27.8763 54.9661 26.5273 54.9661 25.8852 52.3325H31.9869C31.409 54.9661 30.0599 54.9661 28.9681 54.9661ZM40.0157 32.4213C39.6304 34.2838 38.7952 35.8895 37.5748 38.0737C37.0609 38.9729 36.5471 39.5509 36.0977 40.0647C35.6478 40.5786 35.2625 41.028 34.9418 41.5419H22.995C22.6737 41.028 22.2884 40.5141 21.839 40.0647C21.3892 39.5508 20.9398 39.0369 20.3619 38.0737C19.1414 35.9541 18.3063 34.3483 17.921 32.4858V32.4217C17.6643 31.5225 17.5998 30.5593 17.5998 29.724C17.5998 23.4937 22.6737 18.3552 28.9686 18.3552C35.263 18.3552 40.3374 23.4291 40.3374 29.724C40.337 30.5587 40.2084 31.4579 40.0158 32.4212L40.0157 32.4213Z" fill="white"/>
<path d="M56.073 27.7328H51.3843C50.2924 27.7328 49.4573 28.5679 49.4573 29.6598C49.4573 30.7517 50.2924 31.5868 51.3843 31.5868H56.073C57.1648 31.5868 58 30.7517 58 29.6598C58 28.568 57.1008 27.7328 56.073 27.7328Z" fill="white"/>
<path d="M44.7684 15.786C45.2823 15.786 45.7316 15.5933 46.1174 15.208L49.4575 11.8679C50.2281 11.0973 50.2281 9.8769 49.4575 9.17025C48.6869 8.39963 47.4665 8.39963 46.7598 9.17025L43.4198 12.5103C42.6491 13.281 42.6491 14.5014 43.4198 15.208C43.8046 15.5933 44.3185 15.786 44.7684 15.786Z" fill="white"/>
<path d="M28.9678 9.23449C30.0596 9.23449 30.8948 8.39936 30.8948 7.30747V2.61879C30.8948 1.52694 30.0597 0.691772 28.9678 0.691772C27.8759 0.691772 27.0408 1.5269 27.0408 2.61879V7.30747C27.0408 8.33526 27.8759 9.23449 28.9678 9.23449Z" fill="white"/>
<path d="M11.8185 15.2079C12.2038 15.5932 12.7177 15.7858 13.1675 15.7858C13.6174 15.7858 14.1308 15.5932 14.5166 15.2079C15.2872 14.4373 15.2872 13.2169 14.5166 12.5102L11.1765 9.17013C10.4059 8.39951 9.18549 8.39951 8.47885 9.17013C7.70822 9.94075 7.70822 11.1611 8.47885 11.8678L11.8185 15.2079Z" fill="white"/>
<path d="M8.54272 29.6597C8.54272 28.5678 7.70759 27.7327 6.6157 27.7327H1.92702C0.835163 27.7327 0 28.5678 0 29.6597C0 30.7515 0.835128 31.5867 1.92702 31.5867H6.6157C7.64304 31.5863 8.54272 30.7516 8.54272 29.6597Z" fill="white"/>
<path d="M11.8184 44.1114L8.47836 47.4515C7.70773 48.2221 7.70773 49.4425 8.47836 50.1491C8.86367 50.5344 9.37756 50.7271 9.82742 50.7271C10.2773 50.7271 10.7907 50.5344 11.1765 50.1491L14.5166 46.809C15.2872 46.0384 15.2872 44.818 14.5166 44.1114C13.7455 43.3403 12.5251 43.3403 11.8186 44.1114H11.8184Z" fill="white"/>
<path d="M46.1174 44.1114C45.3468 43.3408 44.1264 43.3408 43.4198 44.1114C42.6491 44.882 42.6491 46.1024 43.4198 46.8091L46.7598 50.1492C47.1452 50.5345 47.659 50.7271 48.1089 50.7271C48.5587 50.7271 49.0722 50.5345 49.458 50.1492C50.2286 49.3785 50.2286 48.1581 49.458 47.4515L46.1174 44.1114Z" fill="white"/>
</svg>
