<?xml version="1.0" encoding="utf-8"?>
<!-- Generator: Adobe Illustrator 26.2.1, SVG Export Plug-In . SVG Version: 6.00 Build 0)  -->
<svg version="1.1" id="a" xmlns="http://www.w3.org/2000/svg" xmlns:xlink="http://www.w3.org/1999/xlink" x="0px" y="0px"
	 viewBox="0 0 91 55" style="enable-background:new 0 0 91 55;" xml:space="preserve">
<style type="text/css">
	.st0{fill:#FFFFFF;}
</style>
<g>
	<g>
		<g>
			<path class="st0" d="M7.1,16.5l9.9-5.7l6.3,3.6h3.8L17.6,9c-0.4-0.2-0.8-0.2-1.2,0L5.8,15.1c-0.4,0.2-0.6,0.6-0.6,1v6.7h1.9V16.5
				L7.1,16.5z"/>
			<path class="st0" d="M27.8,22.6c-0.2-0.4-0.3-0.9-0.2-1.3c0-0.1,0.1-0.3,0.1-0.4H27V28l-9.9,5.7l-7.6-4.4H5.7
				c0.1,0,0.1,0.1,0.2,0.1l10.6,6.1c0.2,0.1,0.4,0.2,0.6,0.2s0.4,0,0.6-0.2l10.6-6.1c0.4-0.2,0.6-0.6,0.6-1v-5
				C28.4,23.3,28,23,27.8,22.6L27.8,22.6z"/>
			<path class="st0" d="M16.9,23.8h-16c-0.4,0-0.7,0.3-0.8,0.6c0,0.2,0,0.4,0.2,0.6s0.3,0.2,0.6,0.2h16c0.4,0,0.7-0.3,0.7-0.7
				S17.3,23.8,16.9,23.8z"/>
			<path class="st0" d="M16.9,26.9h-16c-0.4,0-0.7,0.3-0.7,0.7s0.3,0.7,0.7,0.7h16c0.4,0,0.7-0.3,0.7-0.7S17.3,26.9,16.9,26.9z"/>
			<path class="st0" d="M33.7,15.5l-4.1-2.6c-0.3-0.2-0.7-0.1-0.9,0.2c-0.1,0.2-0.2,0.4-0.1,0.6s0.1,0.4,0.3,0.5l2,1.2H18.5
				c-0.4,0-0.7,0.3-0.7,0.7c0,0.2,0,0.4,0.2,0.6s0.3,0.2,0.5,0.2h14.9c0.4,0,0.7-0.3,0.7-0.7C34,15.9,33.9,15.6,33.7,15.5L33.7,15.5
				z"/>
			<path class="st0" d="M33.3,18.5H18.4c-0.2,0-0.4,0.1-0.5,0.2c-0.1,0.2-0.2,0.4-0.2,0.6c0,0.4,0.3,0.6,0.7,0.6h12.3l-1.9,1.2l0,0
				c-0.2,0.1-0.3,0.3-0.3,0.5c0,0.2,0,0.4,0.1,0.6c0.1,0.1,0.1,0.1,0.2,0.2c0.2,0.1,0.5,0.1,0.7,0c0,0,4.1-2.6,4.1-2.6
				c0.2-0.1,0.3-0.4,0.3-0.6C34,18.8,33.7,18.5,33.3,18.5L33.3,18.5z"/>
		</g>
		<g>
			<path class="st0" d="M10.8,39.8l-0.9,1.6c-0.7-0.4-1.6-0.7-2.5-0.7c-1.5,0-2.3,0.8-2.3,1.8s1,1.8,2.4,1.8c0.9,0,1.7-0.3,2.3-0.7
				l0.9,1.6c-1,0.5-2.1,0.9-3.4,0.9c-2.8,0-4.5-1.5-4.5-3.6s1.7-3.6,4.5-3.6C8.7,38.9,9.7,39.2,10.8,39.8L10.8,39.8z"/>
			<path class="st0" d="M16.6,39c1.8,0,2.8,0.8,2.8,1.8s-0.6,1.3-1.5,1.6v0c1,0.2,1.6,0.8,1.6,1.7c0,1.2-1,1.8-2.8,1.8h-4.9v-7
				L16.6,39L16.6,39z M14.1,41.8h2.2c0.5,0,0.8-0.2,0.8-0.6c0-0.3-0.3-0.5-0.8-0.5h-2.2L14.1,41.8L14.1,41.8z M14.1,44.4h2.2
				c0.5,0,0.8-0.2,0.8-0.6c0-0.4-0.3-0.6-0.9-0.6h-2.2C14.1,43.2,14.1,44.4,14.1,44.4z"/>
			<path class="st0" d="M24.1,39l1.9,4.1h0L28,39h3.4v7H29v-4.8h0L26.8,46h-1.7l-2.2-4.8h0V46h-2.1v-7C20.7,39,24.1,39,24.1,39z"/>
		</g>
	</g>
	<g>
		<path class="st0" d="M35.8,15.5c0-1.2,0.8-2.1,2.2-2.1c0.7,0,1.1,0.2,1.5,0.4V15h0c-0.4-0.3-0.8-0.5-1.4-0.5c-0.7,0-1.1,0.4-1.1,1
			s0.4,1,1.1,1c0.5,0,1-0.2,1.4-0.5h0v1.1c-0.3,0.2-0.8,0.4-1.5,0.4C36.6,17.5,35.9,16.7,35.8,15.5L35.8,15.5z"/>
		<path class="st0" d="M40.3,13.6h3.4l0,0.9h-2.3v0.5h1.8v0.9h-1.8v0.6h2.3l0,0.9h-3.4C40.4,17.5,40.4,13.6,40.3,13.6z"/>
		<path class="st0" d="M44.6,13.6h1.2l1.7,2.2h0v-2.2h1.1v3.9h-1.2l-1.7-2.2h0v2.2h-1.1C44.6,17.5,44.6,13.6,44.6,13.6z"/>
		<path class="st0" d="M50.6,14.6h-1.3l0-1H53l0,1h-1.3v2.9h-1.2C50.6,17.5,50.6,14.6,50.6,14.6z"/>
		<path class="st0" d="M53.7,13.6h3.4l0,0.9h-2.3v0.5h1.8v0.9h-1.8v0.6h2.3l0,0.9h-3.4C53.7,17.5,53.7,13.6,53.7,13.6z"/>
		<path class="st0" d="M58,13.6h2.2c1,0,1.5,0.5,1.5,1.4c0,0.6-0.2,1-0.8,1.2l0.9,1.2h-1.3l-0.7-1h-0.8v1H58L58,13.6L58,13.6z
			 M60,15.5c0.4,0,0.5-0.2,0.5-0.5s-0.1-0.5-0.5-0.5h-0.9v1H60z"/>
		<path class="st0" d="M63.8,13.6h3.3l0,0.9h-2.2v0.7h1.8v0.9h-1.8v1.3h-1.2L63.8,13.6L63.8,13.6z"/>
		<path class="st0" d="M67.6,15.5c0-1.3,0.9-2.1,2.2-2.1s2.2,0.8,2.2,2.1s-0.9,2-2.2,2S67.6,16.8,67.6,15.5z M70.8,15.5
			c0-0.7-0.4-1.1-1.1-1.1s-1.1,0.4-1.1,1.1s0.4,1.1,1.1,1.1S70.8,16.2,70.8,15.5L70.8,15.5z"/>
		<path class="st0" d="M72.7,13.6H75c1,0,1.5,0.5,1.5,1.4c0,0.6-0.2,1-0.8,1.2l0.9,1.2h-1.3l-0.7-1h-0.8v1h-1.2L72.7,13.6L72.7,13.6
			z M74.8,15.5c0.4,0,0.5-0.2,0.5-0.5s-0.1-0.5-0.5-0.5h-0.9v1H74.8z"/>
		<path class="st0" d="M36.1,19.1h2.4c0.8,0,1.3,0.3,1.3,1c0,0.4-0.2,0.7-0.7,0.9c0.5,0.2,0.7,0.5,0.7,0.9c0,0.8-0.6,1.1-1.5,1.1
			h-2.3V19.1L36.1,19.1z M38.2,20.7c0.3,0,0.5-0.1,0.5-0.4c0-0.2-0.1-0.3-0.5-0.3h-1v0.7H38.2z M38.2,22.1c0.3,0,0.5-0.1,0.5-0.4
			c0-0.2-0.1-0.4-0.5-0.4h-1v0.7L38.2,22.1L38.2,22.1z"/>
		<path class="st0" d="M40.6,19.1h2.2c1,0,1.5,0.5,1.5,1.4c0,0.6-0.2,1-0.8,1.2l0.9,1.2h-1.3l-0.7-1h-0.8v1h-1.2L40.6,19.1
			L40.6,19.1z M42.7,21.1c0.4,0,0.5-0.2,0.5-0.5S43,20,42.7,20h-0.9v1H42.7z"/>
		<path class="st0" d="M45.1,19.1h3.4l0,0.9h-2.3v0.5H48v0.9h-1.8V22h2.3l0,0.9h-3.4C45.1,23,45.1,19.1,45.1,19.1z"/>
		<path class="st0" d="M50.3,19.1h1.9l1.3,3.9h-1.2l-0.3-0.8h-1.6L50.2,23H49L50.3,19.1L50.3,19.1z M50.8,21.3h1l-0.4-1.2h-0.2
			L50.8,21.3L50.8,21.3z"/>
		<path class="st0" d="M54.1,19.1h1.2v1.4h0.5l1.1-1.4h1.3L56.7,21l1.6,2h-1.4l-1.2-1.5h-0.5V23h-1.2L54.1,19.1L54.1,19.1z"/>
		<path class="st0" d="M59.8,20.1h-1.3l0-1h3.8l0,1H61V23h-1.2C59.8,23,59.8,20.1,59.8,20.1z"/>
		<path class="st0" d="M63,19.1h1.2v1.4h1.6v-1.4H67V23h-1.2v-1.5h-1.6V23H63C63,23,63,19.1,63,19.1z"/>
		<path class="st0" d="M67.9,19.1h2.2c1,0,1.5,0.5,1.5,1.4c0,0.6-0.2,1-0.8,1.2l0.9,1.2h-1.3l-0.7-1h-0.8v1h-1.2L67.9,19.1
			L67.9,19.1z M70,21.1c0.4,0,0.5-0.2,0.5-0.5S70.4,20,70,20h-0.9v1H70z"/>
		<path class="st0" d="M72.2,21c0-1.3,0.9-2,2.2-2s2.2,0.8,2.2,2s-0.9,2-2.2,2S72.2,22.3,72.2,21z M75.5,21c0-0.7-0.4-1.1-1.1-1.1
			s-1.1,0.4-1.1,1.1s0.4,1.1,1.1,1.1S75.5,21.7,75.5,21L75.5,21z"/>
		<path class="st0" d="M77.3,21.5v-2.3h1.2v2.3c0,0.5,0.4,0.7,0.8,0.7s0.8-0.1,0.8-0.7v-2.3h1.2v2.3c0,1.2-0.8,1.6-2,1.6
			S77.4,22.7,77.3,21.5L77.3,21.5z"/>
		<path class="st0" d="M81.9,21.1c0-1.2,0.8-2.1,2.4-2.1c0.6,0,1.1,0.1,1.5,0.4v1l0,0c-0.5-0.2-0.9-0.4-1.4-0.4
			c-0.8,0-1.2,0.4-1.2,1.1c0,0.6,0.4,1,1.1,1c0.5,0,0.9-0.2,0.9-0.6H84v-0.8h2.2c0,0.1,0,0.3,0,0.4c0,1.4-0.9,2-2.1,2
			C82.8,23.1,82,22.3,81.9,21.1L81.9,21.1z"/>
		<path class="st0" d="M86.9,19.1h1.2v1.4h1.6v-1.4h1.2V23h-1.2v-1.5h-1.6V23h-1.2V19.1z"/>
		<path class="st0" d="M36.1,24.6h1.4l1,1.8l1-1.8h1.3v3.9h-1.1v-2.3h0l-1.2,2h-0.1l-1.2-2h0v2.3H36L36.1,24.6L36.1,24.6z"/>
		<path class="st0" d="M41.7,24.6h3.4l0,0.9h-2.3v0.5h1.8v0.9h-1.8v0.6h2.3l0,0.9h-3.4C41.7,28.5,41.7,24.6,41.7,24.6z"/>
		<path class="st0" d="M46,24.6h2.1c1.2,0,1.9,0.7,1.9,1.9s-0.7,1.9-1.9,1.9H46V24.6z M47.9,27.5c0.6,0,0.9-0.3,0.9-1s-0.3-1-0.9-1
			h-0.8v2C47.1,27.5,47.9,27.5,47.9,27.5z"/>
		<path class="st0" d="M50.7,24.6h1.2v3.9h-1.2V24.6z"/>
		<path class="st0" d="M52.6,26.6c0-1.2,0.8-2,2.2-2c0.7,0,1.1,0.2,1.5,0.4V26h0c-0.4-0.3-0.8-0.5-1.4-0.5c-0.7,0-1.1,0.4-1.1,1
			s0.4,1,1.1,1c0.5,0,1-0.2,1.4-0.5h0v1.1c-0.3,0.2-0.8,0.4-1.5,0.4C53.3,28.6,52.6,27.7,52.6,26.6L52.6,26.6z"/>
		<path class="st0" d="M57.1,24.6h1.2v3.9h-1.2V24.6z"/>
		<path class="st0" d="M59.2,24.6h1.2l1.7,2.2h0v-2.2h1.1v3.9H62l-1.7-2.2h0v2.2h-1.1V24.6z"/>
		<path class="st0" d="M64.1,24.6h3.4l0,0.9h-2.3v0.5h1.8v0.9h-1.8v0.6h2.3l0,0.9h-3.4C64.1,28.5,64.1,24.6,64.1,24.6z"/>
		<path class="st0" d="M68.3,28.2v-1.1l0,0c0.7,0.3,1.3,0.5,1.8,0.5c0.4,0,0.6-0.1,0.6-0.3s-0.1-0.2-1-0.4c-0.9-0.1-1.5-0.4-1.5-1.2
			c0-0.7,0.6-1.3,1.9-1.3c0.5,0,1,0.1,1.5,0.3v1l0,0c-0.5-0.3-1.1-0.4-1.6-0.4c-0.4,0-0.6,0.1-0.6,0.3c0,0.2,0.3,0.2,0.9,0.4
			c0.9,0.1,1.5,0.4,1.5,1.2c0,0.6-0.5,1.3-1.8,1.3C69.4,28.6,68.8,28.5,68.3,28.2L68.3,28.2z"/>
	</g>
</g>
</svg>
