<svg width="150" height="68" viewBox="0 0 150 68" fill="none" xmlns="http://www.w3.org/2000/svg">
<g clip-path="url(#clip0_454_4846)">
<path d="M17.909 19.636L43.2371 5.07717L59.2474 14.2778H68.87L44.7374 0.400485C43.8114 -0.128287 42.6745 -0.128287 41.7486 0.400485L14.5803 16.0169C13.6661 16.5456 13.0918 17.5327 13.0918 18.5902V35.5227H17.909V19.636Z" fill="white"/>
<path d="M44.7374 68.001L71.894 52.3846C72.8199 51.8558 73.3943 50.8688 73.3943 49.8112V37.0385C72.2691 36.7447 71.2846 36.0279 70.6868 35.0056C70.1008 33.9951 69.9484 32.82 70.2531 31.7037C70.3469 31.363 70.4758 31.0457 70.6282 30.752H68.5771V48.7654L43.2372 63.3243L23.699 52.0908H14.1702C14.2991 52.1966 14.4397 52.3023 14.5804 52.3846L41.737 68.001" fill="white"/>
<path d="M42.7917 38.0137H1.9338C0.949267 38.0137 0.117106 38.7187 0.0116203 39.6587C-0.0469826 40.1993 0.117106 40.7163 0.480444 41.1158C0.832061 41.5036 1.34777 41.7386 1.87519 41.7386H42.7917C43.8231 41.7386 44.667 40.9043 44.667 39.882C44.667 38.8597 43.8231 38.0254 42.7917 38.0254V38.0137Z" fill="white"/>
<path d="M42.7918 45.873H1.87529C0.843882 45.873 0 46.7073 0 47.7296C0 48.7519 0.843882 49.5862 1.87529 49.5862H42.7918C43.8232 49.5862 44.6671 48.7519 44.6671 47.7296C44.6671 46.7073 43.8232 45.873 42.7918 45.873Z" fill="white"/>
<path d="M85.6541 17.0035L75.2111 10.3409C74.4141 9.88266 73.3944 10.1177 72.8435 10.8815C72.5271 11.3162 72.3981 11.845 72.4802 12.362C72.574 12.8673 72.867 13.3021 73.2889 13.5371L78.2936 16.7214H46.8355C45.9213 16.7214 45.1478 17.4265 45.054 18.3665C44.9954 18.907 45.1478 19.4241 45.4877 19.8236C45.8159 20.2113 46.2847 20.4463 46.7769 20.4463H84.7751C85.7362 20.4463 86.5097 19.6121 86.5097 18.5898C86.5097 17.9082 86.1464 17.3325 85.6307 17.0035H85.6541Z" fill="white"/>
<path d="M84.7984 24.5703H46.7886C46.2963 24.5703 45.8275 24.7936 45.4993 25.1931C45.1594 25.5926 45.0188 26.1096 45.0657 26.6501C45.1594 27.5902 45.933 28.2952 46.8472 28.2952H78.3052L73.3943 31.4208L73.3005 31.4796C72.8669 31.7264 72.5738 32.1611 72.4918 32.6546C72.398 33.1717 72.527 33.6887 72.8434 34.1352C72.9958 34.3467 73.1833 34.5112 73.3943 34.6405C73.9452 34.9812 74.6367 35.0165 75.2227 34.6757C75.2227 34.6757 85.6423 28.0367 85.6657 28.0132C86.1814 27.6842 86.5448 27.1202 86.5448 26.4269C86.5448 25.4046 85.7712 24.5703 84.8101 24.5703H84.7984Z" fill="white"/>
<path d="M99.5311 45.2637L97.3042 49.2707C95.5579 48.3541 93.4364 47.5903 91.2095 47.5903C87.5996 47.5903 85.6188 49.4469 85.6188 51.9498C85.6188 54.4526 87.9981 56.3327 91.5846 56.3327C93.706 56.3327 95.6868 55.5689 97.3042 54.6524L99.4022 58.6593C96.9878 59.9871 94.3506 60.8801 90.9751 60.8801C84.1537 60.8801 79.9343 57.1082 79.9343 51.9733C79.9343 46.8383 84.1655 43.0664 90.9751 43.0664C94.3624 43.0664 96.9174 43.9124 99.5311 45.2637Z" fill="white"/>
<path d="M113.772 43.4766C118.261 43.4766 120.511 45.4624 120.511 47.9182C120.511 50.3741 119.128 51.2084 116.924 51.8194V51.9252C119.491 52.5362 120.874 53.9462 120.874 56.0026C120.874 58.8109 118.436 60.4677 114.135 60.4677H102.039V43.4766H113.772ZM107.642 50.1626H112.951C114.287 50.1626 115.002 49.6808 115.002 48.7643C115.002 48.0005 114.311 47.46 113.057 47.46H107.653V50.1626H107.642ZM107.642 56.4843H113.08C114.381 56.4843 115.131 55.9203 115.131 55.1095C115.131 54.146 114.358 53.629 112.951 53.629H107.642V56.4843Z" fill="white"/>
<path d="M132.22 43.4766L136.908 53.5585H136.955L141.643 43.4766H150V60.4677H144.28V48.8583H144.233L138.795 60.4677H134.517L129.079 48.8583H129.032V60.4677H123.851V43.4766H132.208H132.22Z" fill="white"/>
</g>
<defs>
<clipPath id="clip0_454_4846">
<rect width="150" height="68" fill="white"/>
</clipPath>
</defs>
</svg>
