<svg width="223" height="54" viewBox="0 0 223 54" fill="none" xmlns="http://www.w3.org/2000/svg">
<g clip-path="url(#clip0_437_3004)">
<path d="M10.2091 11.1669L24.6551 2.88471L33.7864 8.11967H39.2748L25.5077 0.226615C24.9824 -0.0755384 24.3293 -0.0755384 23.804 0.226615L8.31599 9.10594C7.79212 9.40667 7.46631 9.96822 7.46631 10.5697V20.2001H10.2106V11.1669H10.2091Z" fill="white"/>
<path d="M40.3039 19.9054C39.971 19.3324 39.882 18.664 40.0542 18.0254C40.1059 17.8345 40.1791 17.6535 40.2709 17.4824H39.1012V27.73L24.6551 36.0121L13.5131 29.6242H8.08203C8.15523 29.6854 8.23273 29.7425 8.31742 29.7909L23.804 38.6702C24.0667 38.8213 24.3609 38.8969 24.6551 38.8969C24.9494 38.8969 25.2436 38.8213 25.5063 38.6702L40.9929 29.7909C41.5182 29.4902 41.8454 28.9286 41.8454 28.3258V21.0627C41.2039 20.8988 40.6427 20.4854 40.3039 19.9039V19.9054Z" fill="white"/>
<path d="M24.3997 21.6191H1.10086C0.536794 21.6191 0.0660246 22.0225 0.00717833 22.557C-0.0272682 22.8634 0.0674599 23.157 0.272704 23.385C0.475078 23.6088 0.765003 23.7371 1.06785 23.7371H24.3997C24.9881 23.7371 25.4661 23.2625 25.4661 22.6781C25.4661 22.0938 24.9881 21.6191 24.3997 21.6191Z" fill="white"/>
<path d="M24.3997 26.0898H1.06641C0.477946 26.0898 0 26.5645 0 27.1488C0 27.7332 0.477946 28.2078 1.06641 28.2078H24.3997C24.9881 28.2078 25.4661 27.7332 25.4661 27.1488C25.4661 26.5645 24.9881 26.0898 24.3997 26.0898V26.0898Z" fill="white"/>
<path d="M48.8396 9.66696C48.8238 9.65556 42.8861 5.87864 42.8861 5.87864C42.4325 5.61924 41.8513 5.75036 41.5341 6.18649C41.3518 6.43591 41.28 6.73379 41.3302 7.02596C41.3805 7.31387 41.5484 7.55758 41.791 7.69726L44.6457 9.50733H26.712C26.1881 9.50733 25.7518 9.91068 25.6972 10.4451C25.6657 10.7516 25.7532 11.0452 25.9427 11.2732C26.1307 11.497 26.3991 11.6253 26.6804 11.6253H48.3473C48.8927 11.6253 49.3376 11.1506 49.3376 10.5663C49.3376 10.1772 49.131 9.85082 48.8382 9.66696H48.8396Z" fill="white"/>
<path d="M48.3486 13.9766H26.6802C26.3989 13.9766 26.1305 14.1048 25.9425 14.3286C25.7516 14.5552 25.6655 14.8502 25.6971 15.1567C25.7516 15.6911 26.1894 16.0945 26.7118 16.0945H44.6456L41.8439 17.8704L41.7908 17.9046C41.5468 18.0442 41.3789 18.2894 41.3301 18.5759C41.2798 18.8666 41.3516 19.1645 41.5339 19.4153C41.62 19.5336 41.7276 19.6277 41.8453 19.7004C42.1597 19.8914 42.5558 19.9128 42.8859 19.7232C42.8859 19.7232 48.8236 15.9463 48.8394 15.9349C49.1322 15.751 49.3389 15.4246 49.3389 15.0355C49.3389 14.4512 48.8954 13.9766 48.3486 13.9766V13.9766Z" fill="white"/>
<path d="M15.557 44.7593L14.2337 47.1295C13.2003 46.5851 11.9372 46.1333 10.6153 46.1333C8.47105 46.1333 7.3013 47.235 7.3013 48.7144C7.3013 50.1938 8.71505 51.3112 10.8436 51.3112C12.1052 51.3112 13.2763 50.858 14.2337 50.315L15.4809 52.6852C14.0514 53.4705 12.4855 53.9993 10.479 53.9993C6.4344 53.9993 3.92554 51.7645 3.92554 48.7301C3.92554 45.6957 6.4344 43.4609 10.479 43.4609C12.4855 43.4609 14.0069 43.9583 15.557 44.7593V44.7593Z" fill="white"/>
<path d="M24.0035 43.7031C26.6645 43.7031 28.0022 44.8804 28.0022 46.3299C28.0022 47.7793 27.1812 48.2782 25.8737 48.6402V48.7001C27.3936 49.0621 28.2146 49.893 28.2146 51.1159C28.2146 52.7763 26.7707 53.7583 24.2159 53.7583H17.0396V43.7031H24.0035V43.7031ZM20.3694 47.6582H23.5169C24.3078 47.6582 24.7326 47.3717 24.7326 46.8273C24.7326 46.374 24.3221 46.0576 23.5772 46.0576H20.3694V47.6582V47.6582ZM20.3694 51.4023H23.593C24.3681 51.4023 24.8087 51.0703 24.8087 50.5871C24.8087 50.0141 24.3523 49.712 23.5169 49.712H20.3694V51.4023Z" fill="white"/>
<path d="M34.9503 43.7031L37.7319 49.6664H37.762L40.5436 43.7031H45.4996V53.7583H42.1095V46.8886H42.0793L38.8557 53.7583H36.3167L33.0931 46.8886H33.0629V53.7583H29.9915V43.7031H34.9475H34.9503Z" fill="white"/>
<path d="M53.53 10.3559C53.53 6.72867 56.0949 4.09766 60.4093 4.09766C62.4144 4.09766 63.9085 4.70481 64.9276 5.36328V8.68697H64.8946C63.5526 7.80902 62.3297 7.13487 60.6476 7.13487C58.4904 7.13487 57.1311 8.4005 57.1311 10.3217C57.1311 12.243 58.4559 13.4758 60.6304 13.4758C62.3283 13.4758 63.6028 12.8858 64.8946 11.9251H64.9276V15.2987C64.0277 15.8731 62.38 16.513 60.273 16.513C55.8222 16.513 53.53 13.949 53.53 10.3574V10.3559Z" fill="white"/>
<path d="M67.4006 4.40039H77.7977L77.9326 7.268H70.9515V8.88851H76.4385V11.501H70.9515V13.341H78.1365L78.0015 16.2086H67.4006V4.40039Z" fill="white"/>
<path d="M80.4243 4.40039H84.1273L89.2412 11.0962H89.2914V4.40039H92.6887V16.2086H89.1048L83.8718 9.34317H83.8216V16.2086H80.4243V4.40039V4.40039Z" fill="white"/>
<path d="M98.8303 7.4376H94.668L94.8043 4.40039H106.44L106.576 7.4376H102.414V16.2086H98.8288V7.4376H98.8303Z" fill="white"/>
<path d="M108.557 4.40039H118.954L119.089 7.268H112.108V8.88851H117.595V11.501H112.108V13.341H119.293L119.158 16.2086H108.557V4.40039Z" fill="white"/>
<path d="M121.581 4.40039H128.512C131.672 4.40039 133.218 5.88408 133.218 8.63482C133.218 10.5233 132.436 11.806 130.907 12.4146L133.727 16.2086H129.684L127.492 13.1058H125.147V16.2086H121.581V4.40039V4.40039ZM128.052 10.3366C129.241 10.3366 129.667 9.68095 129.667 8.78589C129.667 7.89083 129.242 7.24947 128.052 7.24947H125.147V10.3351H128.052V10.3366Z" fill="white"/>
<path d="M139.56 4.40039H149.787L149.923 7.28368H143.127V9.41015H148.733V12.1267H143.127V16.2072H139.56V4.40039V4.40039Z" fill="white"/>
<path d="M151.225 10.3052C151.225 6.45983 153.857 4.04688 158.019 4.04688C162.182 4.04688 164.816 6.45983 164.816 10.3052C164.816 14.1505 162.183 16.5634 158.019 16.5634C153.856 16.5634 151.225 14.1505 151.225 10.3052ZM161.265 10.3052C161.265 8.2642 160.076 7.04988 158.019 7.04988C155.963 7.04988 154.776 8.2642 154.776 10.3052C154.776 12.3461 155.964 13.5604 158.004 13.5604C160.043 13.5604 161.265 12.3461 161.265 10.3052V10.3052Z" fill="white"/>
<path d="M167.031 4.40039H173.963C177.123 4.40039 178.669 5.88408 178.669 8.63482C178.669 10.5233 177.887 11.806 176.358 12.4146L179.178 16.2086H175.135L172.943 13.1058H170.598V16.2086H167.031V4.40039V4.40039ZM173.503 10.3366C174.692 10.3366 175.118 9.68095 175.118 8.78589C175.118 7.89083 174.693 7.24947 173.503 7.24947H170.598V10.3351H173.503V10.3366Z" fill="white"/>
<path d="M54.1917 21.2617H61.6838C64.1639 21.2617 65.6581 22.2737 65.6581 24.2305C65.6581 25.5475 65.1327 26.4739 63.6544 26.9471C65.183 27.5542 65.9135 28.3467 65.9135 29.7463C65.9135 32.192 64.0276 33.07 61.4125 33.07H54.1931V21.2617H54.1917ZM60.7322 25.985C61.7182 25.985 62.1244 25.6814 62.1244 24.9218C62.1244 24.2134 61.6823 23.9098 60.7322 23.9098H57.7081V25.985H60.7322ZM60.9016 30.3876C61.9551 30.3876 62.3627 30.0484 62.3627 29.2745C62.3627 28.5476 61.9536 28.1756 60.9016 28.1756H57.7081V30.4033L60.9016 30.3862V30.3876Z" fill="white"/>
<path d="M68.0464 21.2617H74.9773C78.1378 21.2617 79.6836 22.7454 79.6836 25.4962C79.6836 27.3846 78.9014 28.6673 77.3728 29.2759L80.1931 33.07H76.1499L73.9583 29.9672H71.613V33.07H68.0464V21.2617V21.2617ZM74.518 27.1979C75.7064 27.1979 76.1327 26.5423 76.1327 25.6472C76.1327 24.7522 75.7079 24.1108 74.518 24.1108H71.613V27.1965H74.518V27.1979Z" fill="white"/>
<path d="M82.0029 21.2617H92.4001L92.535 24.1293H85.5538V25.7498H91.0409V28.3623H85.5538V30.2023H92.7388L92.6039 33.07H82.0029V21.2617V21.2617Z" fill="white"/>
<path d="M98.1843 21.2617H103.927L108.055 33.07H104.319L103.486 30.6242H98.5761L97.7264 33.07H94.0579L98.1857 21.2617H98.1843ZM99.4416 27.9747H102.635L101.362 24.2647H100.716L99.4416 27.9747Z" fill="white"/>
<path d="M109.83 21.2617H113.397V25.613H114.858L118.34 21.2617H122.35L122.367 21.2788L117.815 26.9314L122.621 33.0543L122.604 33.0714H118.442L114.842 28.5348H113.397V33.0714H109.83V21.2631V21.2617Z" fill="white"/>
<path d="M127.422 24.297H123.26L123.396 21.2598H135.032L135.168 24.297H131.006V33.068H127.421V24.297H127.422Z" fill="white"/>
<path d="M137.149 21.2617H140.716V25.5289H145.779V21.2617H149.363V33.07H145.779V28.5334H140.716V33.07H137.149V21.2617V21.2617Z" fill="white"/>
<path d="M152.244 21.2617H159.175C162.335 21.2617 163.881 22.7454 163.881 25.4962C163.881 27.3846 163.099 28.6673 161.57 29.2759L164.391 33.07H160.347L158.156 29.9672H155.811V33.07H152.244V21.2617V21.2617ZM158.716 27.1979C159.904 27.1979 160.33 26.5423 160.33 25.6472C160.33 24.7522 159.905 24.1108 158.716 24.1108H155.811V27.1965H158.716V27.1979Z" fill="white"/>
<path d="M165.588 27.1645C165.588 23.3192 168.22 20.9062 172.382 20.9062C176.545 20.9062 179.178 23.3192 179.178 27.1645C179.178 31.0099 176.546 33.4228 172.382 33.4228C168.219 33.4228 165.588 31.0099 165.588 27.1645ZM175.627 27.1645C175.627 25.1236 174.439 23.9093 172.382 23.9093C170.325 23.9093 169.139 25.1236 169.139 27.1645C169.139 29.2055 170.327 30.4198 172.366 30.4198C174.406 30.4198 175.627 29.2055 175.627 27.1645V27.1645Z" fill="white"/>
<path d="M181.294 28.4302V21.2612H184.861V28.1594C184.861 29.8127 185.999 30.3016 187.324 30.3016C188.648 30.3016 189.804 29.8284 189.804 28.2107V21.2598H193.372V28.396C193.372 32.1245 190.89 33.4386 187.306 33.4386C183.722 33.4386 181.292 32.1045 181.292 28.4288L181.294 28.4302Z" fill="white"/>
<path d="M195.47 27.3332C195.47 23.7743 198.087 20.9238 202.724 20.9238C204.491 20.9238 206.173 21.3785 207.277 22.0526V25.2067H207.26C205.833 24.43 204.541 23.9083 202.876 23.9083C200.448 23.9083 199.106 25.2238 199.106 27.366C199.106 29.2901 200.294 30.5557 202.589 30.5557C204.101 30.5557 205.341 29.8972 205.443 28.5988H201.824V26.1004H208.688C208.722 26.488 208.755 26.9113 208.755 27.4501C208.755 31.6161 205.902 33.4062 202.266 33.4062C197.952 33.4062 195.47 30.9248 195.47 27.3332V27.3332Z" fill="white"/>
<path d="M210.786 21.2617H214.353V25.5289H219.416V21.2617H223V33.07H219.416V28.5334H214.353V33.07H210.786V21.2617Z" fill="white"/>
<path d="M54.1917 38.1211H58.3712L61.5316 43.6539L64.6232 38.1211H68.7855V49.9293H65.3208V42.9456H65.2705L61.5675 49.221H61.3637L57.6952 42.9627H57.6449V49.9293H54.196V38.1211H54.1917Z" fill="white"/>
<path d="M71.6633 38.1211H82.0604L82.1954 40.9887H75.2142V42.6092H80.7012V45.2217H75.2142V47.0617H82.3992L82.2643 49.9293H71.6633V38.1211V38.1211Z" fill="white"/>
<path d="M84.6855 38.1206H91.0897C94.81 38.1206 97.0691 40.2285 97.0691 44.024C97.0691 47.8194 94.81 49.9274 91.0897 49.9274H84.6855V38.1191V38.1206ZM90.6993 46.9928C92.4317 46.9928 93.468 46.1348 93.468 44.024C93.468 41.9132 92.4317 41.0395 90.6993 41.0395H88.2522V46.9928H90.6993Z" fill="white"/>
<path d="M99.3052 38.1211H102.889V49.9293H99.3052V38.1211V38.1211Z" fill="white"/>
<path d="M105.111 44.0766C105.111 40.4494 107.676 37.8184 111.99 37.8184C113.995 37.8184 115.489 38.4255 116.508 39.084V42.4077H116.475C115.133 41.5297 113.911 40.8556 112.228 40.8556C110.071 40.8556 108.712 42.1212 108.712 44.0424C108.712 45.9637 110.037 47.1965 112.211 47.1965C113.911 47.1965 115.185 46.6065 116.475 45.6459H116.508V49.0194C115.608 49.5938 113.961 50.2337 111.854 50.2337C107.403 50.2337 105.111 47.6697 105.111 44.0781V44.0766Z" fill="white"/>
<path d="M119 38.1211H122.584V49.9293H119V38.1211V38.1211Z" fill="white"/>
<path d="M125.468 38.1211H129.171L134.284 44.8169H134.335V38.1211H137.732V49.9293H134.148L128.915 43.0639H128.865V49.9293H125.468V38.1211V38.1211Z" fill="white"/>
<path d="M140.612 38.1211H151.009L151.144 40.9887H144.163V42.6092H149.65V45.2217H144.163V47.0617H151.348L151.213 49.9293H140.612V38.1211V38.1211Z" fill="white"/>
<path d="M153.363 49.1515V45.9133H153.381C155.368 46.9082 157.305 47.397 158.987 47.397C160.26 47.397 160.906 47.0934 160.906 46.5034C160.906 45.9133 160.482 45.7622 157.933 45.3575C155.147 44.9171 153.296 44.0919 153.296 41.7145C153.296 39.504 155.251 37.8008 159.071 37.8008C160.6 37.8008 162.197 38.12 163.674 38.7443V41.9497L163.657 41.9668C162.248 41.1573 160.344 40.6513 158.816 40.6513C157.458 40.6513 156.914 40.9705 156.914 41.5093C156.914 42.2034 157.745 42.269 159.836 42.6238C162.622 43.097 164.474 43.8724 164.474 46.368C164.474 48.3092 163.013 50.2489 158.816 50.2489C156.743 50.2489 155.096 49.8256 153.363 49.1501V49.1515Z" fill="white"/>
</g>
<defs>
<clipPath id="clip0_437_3004">
<rect width="223" height="54" fill="white"/>
</clipPath>
</defs>
</svg>
