<svg xmlns="http://www.w3.org/2000/svg" xmlns:xlink="http://www.w3.org/1999/xlink"><symbol id="icon-arr-left" viewBox="0 0 10 16"><path d="M.232 7.433a.81.81 0 000 1.134l6.669 6.703c.344.31.86.31 1.169 0l.79-.79c.31-.31.31-.825 0-1.169L3.566 7.983 8.86 2.689c.31-.344.31-.86 0-1.169L8.07.73C7.76.42 7.245.42 6.9.73L.233 7.433z"/></symbol><symbol id="icon-arr-right" viewBox="0 0 10 16"><path d="M9.66 8.567a.81.81 0 000-1.134L2.991.73c-.344-.31-.86-.31-1.169 0l-.79.79c-.31.31-.31.825 0 1.17l5.294 5.293-5.294 5.328c-.31.344-.31.86 0 1.169l.79.79c.31.31.825.31 1.17 0L9.66 8.567z"/></symbol><symbol id="icon-burger" viewBox="0 0 29.656 18.312"><path d="M2.048 0h25.575a2.05 2.05 0 110 4.1H2.048a2.05 2.05 0 010-4.1zm0 7.084h25.575a2.05 2.05 0 010 4.1H2.048a2.05 2.05 0 010-4.1zm0 7.13h25.575a2.048 2.048 0 110 4.095H2.048a2.048 2.048 0 110-4.095z" fill-rule="evenodd"/></symbol><symbol id="icon-close" viewBox="0 0 16 16"><path fill-rule="evenodd" clip-rule="evenodd" d="M8.248 4.754l3.455-3.455a1.977 1.977 0 012.8 0l.416.417a1.977 1.977 0 010 2.8L11.464 8.03l3.455 3.454a1.977 1.977 0 010 2.8l-.417.417a1.977 1.977 0 01-2.8 0l-3.454-3.455-3.514 3.455a1.977 1.977 0 01-2.8 0l-.417-.417a1.977 1.977 0 010-2.8L4.972 8.03 1.517 4.515a1.977 1.977 0 010-2.8l.417-.416a1.977 1.977 0 012.8 0l3.514 3.455z"/></symbol><symbol id="icon-cloud" viewBox="0 0 54.375 51.406"><path d="M33.18 51.394a.826.826 0 01-.826-.826v-2.595h-10.59v2.595a.826.826 0 11-1.651 0V23.613a.826.826 0 011.651 0v2.6h10.59v-2.6a.826.826 0 011.651 0v26.955a.825.825 0 01-.825.826zm-14.66-16.75H7.55C4.082 34.644 0 30.67 0 26.386a8.589 8.589 0 018.257-8.2 14.273 14.273 0 017.2-16.692c7.71-3.417 14.427-.7 18.226 5.308 4.342-1.241 12.858 4.307 12.858 11.443 5.33 0 7.844 4.654 7.844 8.316s-3.071 8.022-7.844 8.022H35.684V23.259a2.472 2.472 0 00-4.9 0v1.357h-7.432v-1.357a2.361 2.361 0 00-2.3-2.123 2.412 2.412 0 00-2.537 2.123v11.385zm-4.069-4.129H8.2a4.008 4.008 0 01-4.01-4.247 3.932 3.932 0 014.01-3.951h5.6s-1.04-3.239-1.829-5.9.179-8.716 4.955-11.03 11.119-1.526 14.509 5.6c7.137-.581 10.263 2.426 11.089 7.55 1.111-.04 4.011-.118 4.011-.118s-.136 3.224-.177 3.834a4.135 4.135 0 01.177 8.257H39.7v-7.491a6.446 6.446 0 00-4.955-5.78c-3.244-.557-5.933.6-7.313 3.3h-.708a6.413 6.413 0 00-6.96-3.362 6.619 6.619 0 00-5.308 6.016v7.314zm17.9-2.654h-10.59v5.072h10.59v-5.072zm0 6.724h-10.59v5.072h10.59v-5.073zm-10.59 6.724v5.013h10.59v-5.013h-10.59z" fill-rule="evenodd"/></symbol><symbol id="icon-flask" viewBox="0 0 69 69"><path d="M66.663 14.144L53.987 1.468a5.395 5.395 0 00-7.399 0 5.188 5.188 0 00-1.495 3.647L3.24 46.969a11.108 11.108 0 000 15.68l2.287 2.287a11.091 11.091 0 0015.68 0l41.854-41.854a5.231 5.231 0 003.648-8.968l-.046.03zM53.06 24.607l-35.59 35.56a5.905 5.905 0 01-8.357 0l-1.15-1.136a5.98 5.98 0 010-8.37l28.026-28.117c.282-.28.665-.436 1.062-.434h14.947a1.496 1.496 0 011.376.927c.234.556.11 1.199-.315 1.629l.001-.059z"/></symbol><symbol id="icon-formula" viewBox="0 0 49 69"><path d="M14.97 17.441h15.457a5.19 5.19 0 000-10.377h-2.572V5.15a5.155 5.155 0 00-10.313 0v1.915H14.97a5.189 5.189 0 000 10.377zm0-6.853h15.457a1.661 1.661 0 010 3.323H14.97a1.661 1.661 0 010-3.323zM47.232 58.397H8.114l1.769 2.97v3.71l-1.769 2.97h39.118L49 65.077v-3.71l-1.768-2.97zM3.692 60.932L.356 62.64a.655.655 0 000 1.166L3.69 65.51c.019-.04.042-.079.065-.118l.894-1.502v-1.339l-.894-1.502a.978.978 0 01-.062-.118zM33.988 43.944v-5.062c0-.521-.278-1.003-.73-1.263l-3.653-2.11v-4.222c0-.521-.278-1.003-.73-1.263l-3.654-2.11V25.75a2.375 2.375 0 10-2.92 0v2.163l-3.655 2.11c-.452.26-.73.743-.73 1.264v4.221l-3.653 2.11a1.46 1.46 0 00-.73 1.264v4.186l-2.695 1.433a1.462 1.462 0 00-.602 1.975 1.46 1.46 0 001.975.603l2.754-1.464 3.681 2.126c.452.26 1.008.26 1.46 0l3.655-2.11 3.655 2.11c.451.26 1.007.26 1.46 0l4.382-2.531c.452-.261.73-.743.73-1.266zM22.3 43.101l-2.924 1.688-2.922-1.688v-3.375l2.922-1.688 2.924 1.688v3.376zm4.385-7.595l-2.924 1.688-2.925-1.688V32.13l2.925-1.687 2.924 1.687v3.376zM5.17 10.87A8.67 8.67 0 000 18.76v38.91l4.04-2.202V18.76a4.577 4.577 0 011.535-3.414 9.666 9.666 0 01-.404-4.477zM41.36 18.76v35.597h4.04V18.761a8.658 8.658 0 00-5.178-7.891 9.673 9.673 0 01-.404 4.477 4.562 4.562 0 011.542 3.414zM16.776 51.102a1.683 1.683 0 100 3.367h11.85a1.686 1.686 0 001.686-1.683 1.683 1.683 0 00-1.687-1.684H16.776z"/></symbol><symbol id="icon-hands" viewBox="0 0 59 56"><path d="M47.306.279A.92.92 0 0046.614 0a.954.954 0 00-.678.303L42.4 4.1a.947.947 0 00.014 1.31l.269.276-1.404 1.4-2.218-.552A5.81 5.81 0 0033.57 8.06l-5.235 5.486-5.45-5.435a4.996 4.996 0 00-5.13-1.208.965.965 0 00-.297.16l-.238.19-.611-.645 1.195-1.192a.947.947 0 000-1.342L13.997.278a.954.954 0 00-1.346 0L.28 12.618a.948.948 0 000 1.342l3.807 3.796c.371.37.974.37 1.345 0l.43-.429 2.255 2.25-.554 2.211a5.747 5.747 0 001.489 5.43l7.347 7.98c.483.45 1.056.792 1.682 1.004v6.814a4.358 4.358 0 002.43 3.92 2.476 2.476 0 011.377 2.222v.198h-.952a.95.95 0 00-.951.95v4.745a.948.948 0 00.951.949h18.083a.953.953 0 00.952-.95v-4.745a.948.948 0 00-.952-.949h-.951v-.973l1.11-1.095a5.775 5.775 0 002.697-4.868V31.21a4.371 4.371 0 003.929-1.362l5.03-5.448a4.355 4.355 0 001.062-4.485c-.152-.458.666-1.955 1.644-3.104.175.172.409.27.654.274h.01c.25 0 .488-.099.666-.274l3.85-3.796a.948.948 0 000-1.347L47.307.278zM5.13 15.259a.924.924 0 00-.21.32l-.166.164-2.46-2.455L13.32 2.291l2.462 2.455-.927.925a.94.94 0 00-.304.19L5.13 15.258zm12.949 18.49v.37a1.732 1.732 0 01-.31-.235l-7.349-7.978a3.865 3.865 0 01-1.015-3.659l.684-2.732a.947.947 0 00-.25-.901l-2.636-2.63 8.055-8.032 1.177 1.243c.341.36.902.397 1.289.087l.781-.628a3.1 3.1 0 013.03.797l5.483 5.468-.891.933a3.347 3.347 0 00-.888-.13 3.754 3.754 0 00-.557.01 3.236 3.236 0 00-2.084 1.166 3.221 3.221 0 00-.712 2.275v9.925a4.77 4.77 0 00-2.733 1.65 4.748 4.748 0 00-1.074 3.001zm19.986 20.352h-16.18v-2.847h16.18V54.1zm1.904-24.092v12.41a3.868 3.868 0 01-1.875 3.303.962.962 0 00-.179.138l-1.467 1.45a.94.94 0 00-.286.675v1.37H23.79v-.197a4.351 4.351 0 00-2.43-3.92 2.46 2.46 0 01-1.377-2.223v-9.267a2.843 2.843 0 011.904-2.673v5.941h1.903V19.172a1.52 1.52 0 011.26-1.548c.415.01.813.166 1.124.44.288.244.461.597.476.973V33.22h1.904V17.138c0-.404.171-.79.472-1.06.301-.27.703-.4 1.106-.357.755.124 1.3.79 1.272 1.552V33.22h1.904V19.985a1.43 1.43 0 011.578-1.417 1.52 1.52 0 011.277 1.553v13.098h1.904V25.38a2.853 2.853 0 011.903 2.673v1.956zm10.12-9.492a2.485 2.485 0 01-.63 2.57l-5.03 5.45a2.85 2.85 0 01-2.556.776v-1.259a4.748 4.748 0 00-1.075-3 4.77 4.77 0 00-2.733-1.65v-3.282a3.42 3.42 0 00-.84-2.288 3.438 3.438 0 00-2.15-1.153 3.339 3.339 0 00-1.78.31 3.578 3.578 0 00-.095-.58c-.016-.06-.04-.118-.059-.178a3.725 3.725 0 00-.129-.368c-.03-.068-.068-.13-.102-.197-.053-.104-.105-.207-.167-.304-.043-.067-.096-.127-.14-.19-.065-.088-.13-.175-.203-.257-.054-.06-.112-.115-.17-.171a3.526 3.526 0 00-.237-.213c-.064-.051-.13-.095-.198-.143a3.385 3.385 0 00-.266-.167 3.484 3.484 0 00-.507-.226 3.4 3.4 0 00-.242-.073c-.047-.011-.09-.03-.138-.04l4.295-4.498v-.001a3.896 3.896 0 013.668-1.014l2.74.684a.954.954 0 00.904-.25l1.643-1.639 8.316 8.294c-.886 1.022-2.68 3.379-2.119 5.055v.002zm4.126-5.727l-.232-.237-.028-.027L44.41 4.73l2.247-2.414 10.047 10.023-2.488 2.451z"/></symbol><symbol id="icon-help" viewBox="0 0 52 53"><path d="M50.438 34.227c-1.518-2.42-6.306-9.21-6.598-9.623-.467-.709-1.168-1.18-1.985-1.299-.876-.177-1.81.059-2.57.59-1.517 1.063-1.984 3.13-.992 4.605l1.11 2.184-5.664-2.302-6.131-12.81 3.445 1.77c1.868 1.181 4.262.591 5.43-1.298.584-.886.759-2.007.525-3.01-.233-1.063-.876-1.95-1.752-2.54-.525-.353-9.576-6.493-12.787-8.5C18.44-.486 13.302-.663 8.747 1.52A15.22 15.22 0 00.982 9.963c-1.401 3.719-1.285 7.793.234 11.453l7.24 15.703c.7 1.476 2.102 2.303 3.62 2.303.584 0 1.11-.118 1.693-.354.76-.354 1.343-.886 1.693-1.535l.935 2.007c.467 1.004 1.226 1.712 2.277 2.066.467.177.875.236 1.343.236.525 0 .992-.118 1.518-.295l.7.236c-.408.355-.758.768-.992 1.3-.409.885-.409 1.77-.058 2.656.35.826.934 1.417 1.752 1.712l12.203 4.84c1.285.473 2.628.709 3.912.709 4.847 0 9.576-2.952 11.737-7.734 1.751-3.778 1.576-7.91-.35-11.04h-.001zm-31.18 5.667a2.096 2.096 0 01-1.227-1.122l-2.277-4.9c0-.059-.058-.118-.058-.118l-4.846-10.39c-.234-.473-.76-.65-1.168-.414-.467.236-.643.768-.41 1.18l4.847 10.391a2.209 2.209 0 01-1.05 2.952c-1.11.531-2.395.059-2.92-1.063L2.85 20.707A13.508 13.508 0 019.448 3.173c4.03-1.889 8.526-1.77 12.087.414 3.212 1.948 12.67 8.383 12.729 8.442.525.295.817.826.993 1.417.117.59 0 1.18-.292 1.712-.293.53-.818.826-1.402 1.003-.584.118-1.168 0-1.693-.295 0 0-.058 0-.058-.06l-6.365-3.305c-.292-.177-.642-.118-.934.059-3.212 2.302-8.408 1.89-11.094-.827a.91.91 0 00-1.285 0 .934.934 0 000 1.3c3.153 3.187 8.876 3.778 12.846 1.416l6.131 12.988-2.044-1.004c-.992-.413-2.044-.235-2.977.296l-2.745-5.904c-.233-.472-.759-.65-1.167-.413-.468.236-.643.767-.41 1.18l3.037 6.495c-.058.058-.058.118-.117.235-.233.532-.35 1.063-.292 1.653l-.876-.354a3.328 3.328 0 00-2.802.177l-1.927-4.132c-.233-.472-.76-.65-1.168-.413-.467.235-.642.767-.409 1.18l2.16 4.664c-.058.118-.116.236-.174.413-.41.885-.41 1.771-.059 2.657.292.65.76 1.18 1.343 1.535-.409.354-.76.767-.993 1.298-.408.886-.408 1.771-.058 2.657l.175.354c-.175-.059-.233-.117-.35-.117zm29.954 4.605c-2.395 5.254-8.292 7.97-13.43 6.14l-12.203-4.842c-.35-.118-.585-.413-.76-.767-.175-.354-.117-.827.059-1.24.35-.827 1.342-1.24 2.102-.945l8.116 3.247a.904.904 0 001.168-.53.92.92 0 00-.526-1.182l-8.116-3.187-.117-.06s-3.97-1.593-4.087-1.652c-.234-.118-.35-.354-.467-.59-.175-.355-.117-.827.058-1.24.175-.473.584-.768.992-.945.35-.119 9.226 3.247 9.226 3.247a.904.904 0 001.168-.532.92.92 0 00-.526-1.18l-10.451-4.132c-.35-.119-.584-.414-.76-.768-.175-.354-.117-.827.059-1.24.175-.354.409-.59.7-.826.41-.236.934-.355 1.402-.177l12.145 4.84a.904.904 0 001.167-.53.92.92 0 00-.525-1.181l-8.525-3.424c-.41-.177-.7-.473-.818-.827-.175-.354-.117-.767 0-1.122.117-.295.35-.53.584-.708.468-.354 1.051-.472 1.518-.236l12.555 5.313c.35.118.76.059.993-.236.233-.295.292-.708.117-1.004 0 0-2.336-4.427-2.336-4.486-.467-.709-.233-1.653.526-2.184.35-.236.817-.355 1.226-.296.35.06.643.296.876.59.058.06 5.021 7.144 6.54 9.564 1.693 2.598 1.81 6.08.35 9.328z"/></symbol><symbol id="icon-idea" viewBox="0 0 58 59"><path d="M44.19 29.724c0-8.35-6.808-15.223-15.222-15.223S13.745 21.31 13.745 29.724c0 1.156.129 2.376.45 3.597.514 2.312 1.477 4.239 2.826 6.68.707 1.284 1.413 2.055 1.927 2.633.771.835.9 1.028.9 2.505v3.468c0 1.477.835 2.698 2.055 3.34.643 4.24 2.634 6.937 7.066 6.937s6.423-2.698 7.065-6.937c1.22-.642 2.056-1.862 2.056-3.34V45.14c0-1.477.193-1.67.9-2.505.513-.578 1.22-1.35 1.926-2.634 1.413-2.44 2.377-4.367 2.826-6.68.32-1.22.448-2.44.448-3.596zM34.17 45.396v3.083H23.766v-3.083h10.406zm-5.202 9.57c-1.092 0-2.44 0-3.083-2.633h6.102c-.578 2.633-1.927 2.633-3.019 2.633zm11.048-22.545c-.386 1.863-1.22 3.468-2.441 5.653-.514.899-1.028 1.477-1.477 1.99-.45.515-.835.964-1.156 1.478H22.995a8.365 8.365 0 00-1.156-1.477c-.45-.514-.9-1.028-1.477-1.991-1.22-2.12-2.056-3.726-2.441-5.588v-.064c-.257-.9-.321-1.863-.321-2.698 0-6.23 5.074-11.369 11.369-11.369a11.349 11.349 0 0111.368 11.369c0 .835-.129 1.734-.321 2.697zM56.073 27.733h-4.689a1.893 1.893 0 00-1.927 1.927c0 1.092.835 1.927 1.927 1.927h4.689A1.893 1.893 0 0058 29.66c0-1.092-.9-1.927-1.927-1.927zM44.768 15.786c.514 0 .964-.193 1.35-.578l3.34-3.34c.77-.77.77-1.991 0-2.698-.771-.77-1.991-.77-2.698 0l-3.34 3.34c-.77.771-.77 1.991 0 2.698.385.385.898.578 1.348.578zM28.968 9.234a1.893 1.893 0 001.927-1.927V2.62A1.893 1.893 0 0028.968.692a1.893 1.893 0 00-1.927 1.927v4.688c0 1.028.835 1.927 1.927 1.927zM11.819 15.208c.385.385.899.578 1.348.578.45 0 .964-.193 1.35-.578.77-.77.77-1.991 0-2.698l-3.34-3.34c-.771-.77-1.992-.77-2.698 0-.77.77-.77 1.991 0 2.698l3.34 3.34zM8.543 29.66a1.893 1.893 0 00-1.927-1.927H1.927A1.893 1.893 0 000 29.66c0 1.091.835 1.927 1.927 1.927h4.689a1.933 1.933 0 001.927-1.927zM11.818 44.111l-3.34 3.34c-.77.771-.77 1.992 0 2.698.386.385.9.578 1.35.578.45 0 .963-.193 1.349-.578l3.34-3.34c.77-.77.77-1.991 0-2.698-.771-.77-1.992-.77-2.698 0zM46.117 44.111c-.77-.77-1.99-.77-2.697 0-.77.771-.77 1.991 0 2.698l3.34 3.34c.385.386.899.578 1.349.578.45 0 .963-.192 1.349-.578.77-.77.77-1.99 0-2.697l-3.34-3.34z"/></symbol><symbol id="icon-news" viewBox="0 0 33 30"><path d="M29.801 10.512H26.54V3.157A3.169 3.169 0 0023.383 0H3.157A3.169 3.169 0 000 3.157v23.487A3.169 3.169 0 003.157 29.8h25.291a4.501 4.501 0 004.51-4.51V13.669a3.169 3.169 0 00-3.157-3.157zM3.157 27.234a.548.548 0 01-.555-.555V3.157c0-.312.243-.555.555-.555h20.226c.312 0 .555.243.555.555v22.169c0 .693.139 1.318.416 1.908H3.157zm27.2-1.908c0 1.04-.868 1.908-1.909 1.908a1.925 1.925 0 01-1.908-1.908V13.114H29.8c.312 0 .555.243.555.555v11.657z"/><path d="M6.626 13.53h3.782a1.28 1.28 0 001.283-1.283V6.869a1.28 1.28 0 00-1.283-1.284H6.626A1.28 1.28 0 005.343 6.87v5.342c-.035.73.555 1.32 1.283 1.32zM19.914 16.306H6.626a1.28 1.28 0 00-1.283 1.283c0 .694.59 1.284 1.283 1.284h13.288a1.28 1.28 0 001.283-1.284 1.28 1.28 0 00-1.283-1.283zM19.913 10.928h-4.649a1.28 1.28 0 00-1.283 1.284c0 .694.59 1.283 1.284 1.283h4.648a1.28 1.28 0 001.284-1.283 1.28 1.28 0 00-1.284-1.284zM19.913 5.586h-4.649a1.28 1.28 0 00-1.283 1.283c0 .694.59 1.284 1.284 1.284h4.648a1.28 1.28 0 001.284-1.284 1.28 1.28 0 00-1.284-1.283zM19.914 21.648H6.626a1.28 1.28 0 00-1.283 1.284c0 .728.59 1.283 1.283 1.283h13.288a1.28 1.28 0 001.283-1.283 1.28 1.28 0 00-1.283-1.284z"/></symbol><symbol id="icon-onion" viewBox="0 0 68 68"><path d="M34 24.458c-2.193 0-4.058 4.277-4.058 9.542 0 5.264 1.755 9.541 4.058 9.541 5.264 0 9.542-4.277 9.542-9.541 0-5.265-4.278-9.542-9.542-9.542zm0 6.033c-2.962 0-2.522-1.427-2.304-2.523.549-1.974 1.316-2.522 2.304-2.522 2.742 0 4.935 1.097 4.935 2.522 0 1.316-2.193 2.523-4.935 2.523zm-.329-19.414v6.362c-8.664.877-8.664 32.245 0 33.122v6.362c-2.304-.22-4.168-1.865-5.593-4.497C25.665 48.258 24.02 41.567 24.02 34c0-7.568 1.645-14.258 4.058-18.425 1.425-2.633 3.29-4.388 5.593-4.498zM68 34c0 18.645-15.026 33.78-33.671 34v-5.264C50.123 62.516 62.845 49.684 62.845 34c0-15.794-12.723-28.626-28.406-28.735V0C52.974.22 68 15.355 68 34zM33.671 68C15.026 67.78 0 52.646 0 34 0 15.355 15.026.22 33.671 0v5.264c-.987.11-1.974.33-2.851.878C25.116 9.322 20.949 20.62 20.949 34s4.168 24.787 9.87 27.858c.878.549 1.865.768 2.852.878V68zm14.916-16.342a22.889 22.889 0 01-14.148 5.264V50.67c8.994-.22 16.232-7.568 16.232-16.56 0-8.995-7.239-16.453-16.232-16.562v-6.361c2.194 0 4.387.329 6.47.987.33.109.659.22.878.329.439.109.769.22 1.207.438.11.11.22.11.438.22.549.22 1.097.438 1.645.768 0 0 .11 0 .11.11.657.328 1.315.767 1.864 1.206 2.193 1.535 4.058 3.29 5.593 5.483.22.22.33.549.549.768.548.878 1.097 1.865 1.645 2.852.438.987.877 1.974 1.206 3.07.11.22.11.44.22.659.548 1.974.877 4.058.877 6.142 0 3.18-.658 6.141-1.755 8.883-.548 1.426-1.316 2.633-2.084 3.949-1.535 1.536-2.96 3.181-4.715 4.607z"/></symbol><symbol id="icon-reactor" viewBox="0 0 73 68"><path d="M72.475 20.949c0-1.901-.295-3.717-.845-5.449-.042-.126-.084-.296-.126-.422-.043-.043-.043-.127-.085-.17-.506-1.393-1.182-2.914-2.238-4.307a2.946 2.946 0 00-.338-.423 9.927 9.927 0 00-1.267-1.393c-.084-.084-.169-.127-.253-.211l-8.7-6.589C56.933.718 54.863 0 52.752 0L20.019.042c-2.07 0-4.097.676-5.786 1.901l-9.039 6.63-.084.085c-.17.127-.38.296-.55.464l-.084.085c-.169.169-.38.337-.549.549l-.042.042c-.17.211-.38.423-.55.634-.169.253-.337.464-.506.718-.17.253-.296.507-.464.76v.043c-.17.253-.296.549-.423.802-.253.55-.507 1.098-.676 1.647-.042.085-.042.17-.084.254-.084.21-.127.38-.211.591-.042.085-.042.17-.084.254-.084.296-.17.549-.211.802-.211.719-.296 1.31-.38 1.648v.127A16.406 16.406 0 000 21.117l.042 33.578C.042 62.045 5.955 68 13.262 68h.043l46.079-.042c3.548 0 6.842-1.394 9.334-3.928 2.492-2.535 3.843-5.871 3.843-9.419l-.086-33.662zM7.644 14.698c.042-.043.042-.085.084-.17.042-.042.084-.126.127-.168.126-.211.295-.423.422-.592l.127-.127.084-.084c.084-.084.17-.127.21-.21l9.04-6.674a3.993 3.993 0 012.281-.76l32.733-.042c.845 0 1.647.295 2.322.802l8.574 6.505a8.395 8.395 0 011.648 2.322l-58.117.043a5.39 5.39 0 01.465-.845zm56.807 45.15c-1.394 1.393-3.21 2.154-5.153 2.154l-46.08.084c-4.012 0-7.306-3.294-7.306-7.391l-.043-33.24 60.693-.084.043 33.24c0 1.985-.76 3.843-2.154 5.237z"/><path d="M60.27 50.387H44.641a2.938 2.938 0 00-2.957 2.957 2.938 2.938 0 002.957 2.957H60.27a2.938 2.938 0 002.957-2.957 2.965 2.965 0 00-2.957-2.957z"/></symbol><symbol id="icon-soc-inst" viewBox="0 0 19.781 19.75"><path d="M8.358 3.035A8.358 8.358 0 110 11.392a8.358 8.358 0 018.358-8.357zm8.89-3.029a2.533 2.533 0 11-2.533 2.533A2.532 2.532 0 0117.248.006zM8.358 4.78a6.613 6.613 0 11-6.613 6.612A6.612 6.612 0 018.358 4.78zm8.853-3.049a.808.808 0 11-.808.808.807.807 0 01.808-.808z" fill-rule="evenodd"/></symbol><symbol id="icon-soc-linked" viewBox="0 0 21.625 20.625"><path d="M.305 6.748v13.877H4.88V6.748H.305zm11.818 1.944V6.71H7.51v13.915h4.613V12.2s.414-2.173 2.4-2.173A2.322 2.322 0 0117 12.2v8.387h4.613V12.2c0-3.15-1.949-5.832-4.994-5.832a4.977 4.977 0 00-4.496 2.324zM2.554 4.803A2.409 2.409 0 100 2.44 2.321 2.321 0 002.554 4.8z" fill-rule="evenodd"/></symbol><symbol id="icon-soc-twitter" viewBox="0 0 19.969 16.375"><path d="M17.73 2.548A4.308 4.308 0 0019.457.264a7.863 7.863 0 01-2.563 1c-2.113-2.511-8-1.306-7.076 3.788A11.632 11.632 0 011.294.762a4.22 4.22 0 001.225 5.516 2.746 2.746 0 01-1.782-.557 4.165 4.165 0 003.231 4.123 4.367 4.367 0 01-1.783.111 4.1 4.1 0 003.789 2.842c-.548.841-3.364 1.972-5.962 1.727 9.358 5.4 18.425-2.079 17.941-10.475a7.582 7.582 0 002-2.117 6.98 6.98 0 01-2.223.616z" fill-rule="evenodd"/></symbol> <view id="icon-arr-left-view-blue" viewBox="0 0 10 16"/><view id="icon-arr-left-view-dark" viewBox="0 26 10 16"/><view id="icon-arr-left-view-white" viewBox="0 52 10 16"/><view id="icon-arr-right-view-blue" viewBox="0 78 10 16"/><view id="icon-arr-right-view-dark" viewBox="0 104 10 16"/><view id="icon-arr-right-view-white" viewBox="0 130 10 16"/><view id="icon-burger-view-blue" viewBox="0 156 29.656 18.312"/><view id="icon-burger-view-dark" viewBox="0 184.312 29.656 18.312"/><view id="icon-burger-view-white" viewBox="0 212.624 29.656 18.312"/><view id="icon-close-view-blue" viewBox="0 240.936 16 16"/><view id="icon-close-view-dark" viewBox="0 266.93600000000004 16 16"/><view id="icon-close-view-white" viewBox="0 292.93600000000004 16 16"/><view id="icon-cloud-view-blue" viewBox="0 318.93600000000004 54.375 51.406"/><view id="icon-cloud-view-dark" viewBox="0 380.34200000000004 54.375 51.406"/><view id="icon-cloud-view-white" viewBox="0 441.74800000000005 54.375 51.406"/><view id="icon-flask-view-blue" viewBox="0 503.154 69 69"/><view id="icon-flask-view-dark" viewBox="0 582.154 69 69"/><view id="icon-flask-view-white" viewBox="0 661.154 69 69"/><view id="icon-formula-view-blue" viewBox="0 740.154 49 69"/><view id="icon-formula-view-dark" viewBox="0 819.154 49 69"/><view id="icon-formula-view-white" viewBox="0 898.154 49 69"/><view id="icon-hands-view-blue" viewBox="0 977.154 59 56"/><view id="icon-hands-view-dark" viewBox="0 1043.154 59 56"/><view id="icon-hands-view-white" viewBox="0 1109.154 59 56"/><view id="icon-help-view-blue" viewBox="0 1175.154 52 53"/><view id="icon-help-view-dark" viewBox="0 1238.154 52 53"/><view id="icon-help-view-white" viewBox="0 1301.154 52 53"/><view id="icon-idea-view-blue" viewBox="0 1364.154 58 59"/><view id="icon-idea-view-dark" viewBox="0 1433.154 58 59"/><view id="icon-idea-view-white" viewBox="0 1502.154 58 59"/><view id="icon-news-view-blue" viewBox="0 1571.154 33 30"/><view id="icon-news-view-dark" viewBox="0 1611.154 33 30"/><view id="icon-news-view-white" viewBox="0 1651.154 33 30"/><view id="icon-onion-view-blue" viewBox="0 1691.154 68 68"/><view id="icon-onion-view-dark" viewBox="0 1769.154 68 68"/><view id="icon-onion-view-white" viewBox="0 1847.154 68 68"/><view id="icon-reactor-view-blue" viewBox="0 1925.154 73 68"/><view id="icon-reactor-view-dark" viewBox="0 2003.154 73 68"/><view id="icon-reactor-view-white" viewBox="0 2081.154 73 68"/><view id="icon-soc-inst-view-blue" viewBox="0 2159.154 19.781 19.75"/><view id="icon-soc-inst-view-dark" viewBox="0 2188.904 19.781 19.75"/><view id="icon-soc-inst-view-white" viewBox="0 2218.654 19.781 19.75"/><view id="icon-soc-linked-view-blue" viewBox="0 2248.404 21.625 20.625"/><view id="icon-soc-linked-view-dark" viewBox="0 2279.029 21.625 20.625"/><view id="icon-soc-linked-view-white" viewBox="0 2309.654 21.625 20.625"/><view id="icon-soc-twitter-view-blue" viewBox="0 2340.279 19.969 16.375"/><view id="icon-soc-twitter-view-dark" viewBox="0 2366.654 19.969 16.375"/><view id="icon-soc-twitter-view-white" viewBox="0 2393.029 19.969 16.375"/> <use xlink:href="#icon-arr-left" x="0" y="0" width="10" height="16" style="fill:#638bf5"/><use xlink:href="#icon-arr-left" x="0" y="26" width="10" height="16" style="fill:#46557b"/><use xlink:href="#icon-arr-left" x="0" y="52" width="10" height="16" style="fill:#ffffff"/><use xlink:href="#icon-arr-right" x="0" y="78" width="10" height="16" style="fill:#638bf5"/><use xlink:href="#icon-arr-right" x="0" y="104" width="10" height="16" style="fill:#46557b"/><use xlink:href="#icon-arr-right" x="0" y="130" width="10" height="16" style="fill:#ffffff"/><use xlink:href="#icon-burger" x="0" y="156" width="29.656" height="18.312" style="fill:#638bf5"/><use xlink:href="#icon-burger" x="0" y="184.312" width="29.656" height="18.312" style="fill:#46557b"/><use xlink:href="#icon-burger" x="0" y="212.624" width="29.656" height="18.312" style="fill:#ffffff"/><use xlink:href="#icon-close" x="0" y="240.936" width="16" height="16" style="fill:#638bf5"/><use xlink:href="#icon-close" x="0" y="266.93600000000004" width="16" height="16" style="fill:#46557b"/><use xlink:href="#icon-close" x="0" y="292.93600000000004" width="16" height="16" style="fill:#ffffff"/><use xlink:href="#icon-cloud" x="0" y="318.93600000000004" width="54.375" height="51.406" style="fill:#638bf5"/><use xlink:href="#icon-cloud" x="0" y="380.34200000000004" width="54.375" height="51.406" style="fill:#46557b"/><use xlink:href="#icon-cloud" x="0" y="441.74800000000005" width="54.375" height="51.406" style="fill:#ffffff"/><use xlink:href="#icon-flask" x="0" y="503.154" width="69" height="69" style="fill:#638bf5"/><use xlink:href="#icon-flask" x="0" y="582.154" width="69" height="69" style="fill:#46557b"/><use xlink:href="#icon-flask" x="0" y="661.154" width="69" height="69" style="fill:#ffffff"/><use xlink:href="#icon-formula" x="0" y="740.154" width="49" height="69" style="fill:#638bf5"/><use xlink:href="#icon-formula" x="0" y="819.154" width="49" height="69" style="fill:#46557b"/><use xlink:href="#icon-formula" x="0" y="898.154" width="49" height="69" style="fill:#ffffff"/><use xlink:href="#icon-hands" x="0" y="977.154" width="59" height="56" style="fill:#638bf5"/><use xlink:href="#icon-hands" x="0" y="1043.154" width="59" height="56" style="fill:#46557b"/><use xlink:href="#icon-hands" x="0" y="1109.154" width="59" height="56" style="fill:#ffffff"/><use xlink:href="#icon-help" x="0" y="1175.154" width="52" height="53" style="fill:#638bf5"/><use xlink:href="#icon-help" x="0" y="1238.154" width="52" height="53" style="fill:#46557b"/><use xlink:href="#icon-help" x="0" y="1301.154" width="52" height="53" style="fill:#ffffff"/><use xlink:href="#icon-idea" x="0" y="1364.154" width="58" height="59" style="fill:#638bf5"/><use xlink:href="#icon-idea" x="0" y="1433.154" width="58" height="59" style="fill:#46557b"/><use xlink:href="#icon-idea" x="0" y="1502.154" width="58" height="59" style="fill:#ffffff"/><use xlink:href="#icon-news" x="0" y="1571.154" width="33" height="30" style="fill:#638bf5"/><use xlink:href="#icon-news" x="0" y="1611.154" width="33" height="30" style="fill:#46557b"/><use xlink:href="#icon-news" x="0" y="1651.154" width="33" height="30" style="fill:#ffffff"/><use xlink:href="#icon-onion" x="0" y="1691.154" width="68" height="68" style="fill:#638bf5"/><use xlink:href="#icon-onion" x="0" y="1769.154" width="68" height="68" style="fill:#46557b"/><use xlink:href="#icon-onion" x="0" y="1847.154" width="68" height="68" style="fill:#ffffff"/><use xlink:href="#icon-reactor" x="0" y="1925.154" width="73" height="68" style="fill:#638bf5"/><use xlink:href="#icon-reactor" x="0" y="2003.154" width="73" height="68" style="fill:#46557b"/><use xlink:href="#icon-reactor" x="0" y="2081.154" width="73" height="68" style="fill:#ffffff"/><use xlink:href="#icon-soc-inst" x="0" y="2159.154" width="19.781" height="19.75" style="fill:#638bf5"/><use xlink:href="#icon-soc-inst" x="0" y="2188.904" width="19.781" height="19.75" style="fill:#46557b"/><use xlink:href="#icon-soc-inst" x="0" y="2218.654" width="19.781" height="19.75" style="fill:#ffffff"/><use xlink:href="#icon-soc-linked" x="0" y="2248.404" width="21.625" height="20.625" style="fill:#638bf5"/><use xlink:href="#icon-soc-linked" x="0" y="2279.029" width="21.625" height="20.625" style="fill:#46557b"/><use xlink:href="#icon-soc-linked" x="0" y="2309.654" width="21.625" height="20.625" style="fill:#ffffff"/><use xlink:href="#icon-soc-twitter" x="0" y="2340.279" width="19.969" height="16.375" style="fill:#638bf5"/><use xlink:href="#icon-soc-twitter" x="0" y="2366.654" width="19.969" height="16.375" style="fill:#46557b"/><use xlink:href="#icon-soc-twitter" x="0" y="2393.029" width="19.969" height="16.375" style="fill:#ffffff"/></svg>