<svg xmlns="http://www.w3.org/2000/svg" xmlns:xlink="http://www.w3.org/1999/xlink"><symbol id="icon-arr-down" viewBox="0 0 37.031 21.125"><path d="M36.259 4.447L20.353 20.353a2.622 2.622 0 01-3.71 0L.737 4.447a2.623 2.623 0 113.71-3.71L18.5 14.789 32.551.737a2.623 2.623 0 013.708 3.71z" fill-rule="evenodd"/></symbol><symbol id="icon-arr-left" viewBox="0 0 10 16"><path d="M.232 7.433a.81.81 0 000 1.134l6.669 6.703c.344.31.86.31 1.169 0l.79-.79c.31-.31.31-.825 0-1.169L3.566 7.983 8.86 2.689c.31-.344.31-.86 0-1.169L8.07.73C7.76.42 7.245.42 6.9.73L.233 7.433z"/></symbol><symbol id="icon-arr-link" viewBox="0 0 20 20"><path fill-rule="evenodd" clip-rule="evenodd" d="M19.429 1.357a.786.786 0 00-.786-.786H9.215a.786.786 0 100 1.572h7.531L.802 18.086a.787.787 0 001.112 1.112L17.857 3.254v7.531a.785.785 0 101.572 0V1.357z"/></symbol><symbol id="icon-arr-right" viewBox="0 0 10 16"><path d="M9.66 8.567a.81.81 0 000-1.134L2.991.73c-.344-.31-.86-.31-1.169 0l-.79.79c-.31.31-.31.825 0 1.17l5.294 5.293-5.294 5.328c-.31.344-.31.86 0 1.169l.79.79c.31.31.825.31 1.17 0L9.66 8.567z"/></symbol><symbol id="icon-arr-thin-down" viewBox="0 0 38 20"><path d="M34.565.448L18.57 16.388 2.575.448a1.513 1.513 0 00-1.07-.445A1.513 1.513 0 00.115.935a1.517 1.517 0 00.323 1.64l17.016 16.96c.299.298.7.465 1.117.465.417 0 .818-.167 1.117-.464L36.702 2.578a1.49 1.49 0 00.44-1.066 1.518 1.518 0 00-.44-1.067A1.512 1.512 0 0035.635 0c-.4 0-.784.16-1.07.445v.003z"/></symbol><symbol id="icon-arr-thin-up" viewBox="0 0 38 20"><path d="M3.435 19.552L19.43 3.612l15.995 15.94c.286.285.67.445 1.07.445a1.513 1.513 0 001.391-.932 1.519 1.519 0 00-.323-1.64L20.547.465A1.582 1.582 0 0019.43 0c-.417 0-.818.167-1.117.464L1.297 17.422a1.49 1.49 0 00-.44 1.066 1.517 1.517 0 00.44 1.067c.286.285.67.445 1.07.445.399 0 .782-.16 1.068-.445v-.003z"/></symbol><symbol id="icon-arr-up" viewBox="0 0 37 21"><path d="M.741 16.548L16.633.736a2.632 2.632 0 013.707 0l15.893 15.812a2.6 2.6 0 010 3.688 2.63 2.63 0 01-3.707 0L18.487 6.269 4.447 20.237a2.629 2.629 0 01-3.706 0 2.6 2.6 0 010-3.689z" fill-rule="evenodd"/></symbol><symbol id="icon-burger" viewBox="0 0 24.938 19.094"><path d="M1.492 0h21.969a1.492 1.492 0 110 2.984H1.492a1.492 1.492 0 110-2.984zm0 8.146h21.969a1.492 1.492 0 010 2.984H1.492a1.492 1.492 0 010-2.984zm0 7.967h21.969a1.492 1.492 0 110 2.984H1.492a1.492 1.492 0 110-2.984z" fill-rule="evenodd"/></symbol><symbol id="icon-close-thin" viewBox="0 0 42 42"><path fill-rule="evenodd" clip-rule="evenodd" d="M1.024 1.069a3.495 3.495 0 014.944 0l15.01 15.025 15.01-15.025a3.497 3.497 0 014.988-.044 3.5 3.5 0 01-.043 4.993l-15.01 15.025 15.01 15.026a3.502 3.502 0 01-2.485 5.93 3.495 3.495 0 01-2.46-.982l-15.01-15.025-15.01 15.025A3.495 3.495 0 01.042 38.53a3.502 3.502 0 01.982-2.462l15.01-15.025L1.024 6.018a3.502 3.502 0 010-4.95z"/></symbol><symbol id="icon-close" viewBox="0 0 16 16"><path fill-rule="evenodd" clip-rule="evenodd" d="M8.248 4.754l3.455-3.455a1.977 1.977 0 012.8 0l.416.417a1.977 1.977 0 010 2.8L11.464 8.03l3.455 3.454a1.977 1.977 0 010 2.8l-.417.417a1.977 1.977 0 01-2.8 0l-3.454-3.455-3.514 3.455a1.977 1.977 0 01-2.8 0l-.417-.417a1.977 1.977 0 010-2.8L4.972 8.03 1.517 4.515a1.977 1.977 0 010-2.8l.417-.416a1.977 1.977 0 012.8 0l3.514 3.455z"/></symbol><symbol id="icon-cloud" viewBox="0 0 54.375 51.406"><path d="M33.18 51.394a.826.826 0 01-.826-.826v-2.595h-10.59v2.595a.826.826 0 11-1.651 0V23.613a.826.826 0 011.651 0v2.6h10.59v-2.6a.826.826 0 011.651 0v26.955a.825.825 0 01-.825.826zm-14.66-16.75H7.55C4.082 34.644 0 30.67 0 26.386a8.589 8.589 0 018.257-8.2 14.273 14.273 0 017.2-16.692c7.71-3.417 14.427-.7 18.226 5.308 4.342-1.241 12.858 4.307 12.858 11.443 5.33 0 7.844 4.654 7.844 8.316s-3.071 8.022-7.844 8.022H35.684V23.259a2.472 2.472 0 00-4.9 0v1.357h-7.432v-1.357a2.361 2.361 0 00-2.3-2.123 2.412 2.412 0 00-2.537 2.123v11.385zm-4.069-4.129H8.2a4.008 4.008 0 01-4.01-4.247 3.932 3.932 0 014.01-3.951h5.6s-1.04-3.239-1.829-5.9.179-8.716 4.955-11.03 11.119-1.526 14.509 5.6c7.137-.581 10.263 2.426 11.089 7.55 1.111-.04 4.011-.118 4.011-.118s-.136 3.224-.177 3.834a4.135 4.135 0 01.177 8.257H39.7v-7.491a6.446 6.446 0 00-4.955-5.78c-3.244-.557-5.933.6-7.313 3.3h-.708a6.413 6.413 0 00-6.96-3.362 6.619 6.619 0 00-5.308 6.016v7.314zm17.9-2.654h-10.59v5.072h10.59v-5.072zm0 6.724h-10.59v5.072h10.59v-5.073zm-10.59 6.724v5.013h10.59v-5.013h-10.59z" fill-rule="evenodd"/></symbol><symbol id="icon-facility-1" viewBox="0 0 119 118"><g clip-path="url(#clip0_348_1198)"><path d="M40.775 46.183c1.81 0 3.565-.365 5.211-1.085a1.698 1.698 0 10-1.36-3.112 9.547 9.547 0 01-3.848.8c-5.304 0-9.62-4.316-9.62-9.622s4.316-9.623 9.62-9.623c5.304 0 9.62 4.317 9.62 9.623 0 1.415-.3 2.775-.89 4.045a1.699 1.699 0 003.08 1.43 12.907 12.907 0 001.205-5.478c0-7.182-5.842-13.022-13.018-13.022-7.176 0-13.018 5.843-13.018 13.022 0 7.178 5.842 13.022 13.018 13.022z"/><path d="M12.317 37.277l5.116.804a23.938 23.938 0 003.348 8.096l-3.049 4.184c-.494.677-.42 1.61.173 2.204l3.448 3.448a1.7 1.7 0 002.202.173l4.174-3.044a23.891 23.891 0 008.103 3.372l.797 5.09a1.7 1.7 0 001.677 1.437h4.875c.837 0 1.548-.61 1.678-1.438l.797-5.077a23.857 23.857 0 008.13-3.365l4.15 3.025a1.7 1.7 0 002.202-.173l3.448-3.448a1.701 1.701 0 00.172-2.204l-3.018-4.14a23.949 23.949 0 003.383-8.146l5.05-.792a1.698 1.698 0 001.437-1.678v-.738h11.032v23.742a1.698 1.698 0 002.221 1.616c.164.053.34.084.522.084h8.437c.775 3.442 3.855 6.02 7.525 6.02 4.257 0 7.717-3.465 7.717-7.72s-3.463-7.72-7.717-7.72c-3.673 0-6.75 2.581-7.525 6.02H85.04V34.862h7.782c.775 3.442 3.855 6.02 7.525 6.02 4.257 0 7.717-3.465 7.717-7.72s-3.463-7.72-7.717-7.72c-3.673 0-6.75 2.581-7.525 6.02H85.04V9.42h7.782c.775 3.442 3.855 6.02 7.525 6.02 4.257 0 7.717-3.464 7.717-7.72 0-4.255-3.457-7.719-7.714-7.719-3.673 0-6.75 2.58-7.525 6.02h-8.437c-.182 0-.358.03-.522.083a1.698 1.698 0 00-2.221 1.616v23.743H70.614v-.739c0-.837-.61-1.548-1.437-1.678l-5.05-.794a23.948 23.948 0 00-3.384-8.146l3.019-4.14c.494-.678.42-1.61-.173-2.204l-3.448-3.449a1.7 1.7 0 00-2.203-.173l-4.149 3.025A23.856 23.856 0 0045.66 9.8l-.797-5.077a1.7 1.7 0 00-1.678-1.437H38.31c-.837 0-1.547.609-1.677 1.437l-.797 5.093a23.859 23.859 0 00-8.103 3.368l-4.174-3.044a1.7 1.7 0 00-2.202.173l-3.448 3.449a1.701 1.701 0 00-.173 2.203l3.05 4.184a23.9 23.9 0 00-3.35 8.093l-5.115.804c-.828.13-1.437.84-1.437 1.678v4.876c0 .838.609 1.549 1.437 1.678h-.003zM100.35 54.28a4.324 4.324 0 014.319 4.32 4.324 4.324 0 01-4.319 4.32 4.324 4.324 0 01-4.318-4.32 4.324 4.324 0 014.318-4.32zm0-25.439a4.324 4.324 0 014.319 4.32 4.324 4.324 0 01-4.319 4.32 4.324 4.324 0 01-4.318-4.32 4.324 4.324 0 014.318-4.32zm0-25.442a4.324 4.324 0 014.319 4.32 4.324 4.324 0 01-4.319 4.32 4.324 4.324 0 01-4.318-4.32 4.324 4.324 0 014.318-4.32zM14.281 32.175l3.914-.615c.167.072.346.115.538.127a1.696 1.696 0 001.801-1.455 20.437 20.437 0 013.787-9.228 1.702 1.702 0 00-.512-2.481l-2.472-3.39 1.39-1.39 3.346 2.44a1.697 1.697 0 002.505.55 20.414 20.414 0 019.009-3.785A1.698 1.698 0 0039 11.533l.76-4.846h1.968l.757 4.833a1.695 1.695 0 001.421 1.416 20.407 20.407 0 018.906 3.686 1.696 1.696 0 002.002 0l3.945-2.877 1.39 1.39-2.873 3.944a1.702 1.702 0 000 2.006 20.456 20.456 0 013.704 8.918 1.698 1.698 0 001.415 1.418l4.807.754v1.969l-4.807.754a1.698 1.698 0 00-1.415 1.418 20.457 20.457 0 01-3.704 8.919 1.693 1.693 0 000 2.005l2.873 3.943-1.39 1.39-3.948-2.876a1.696 1.696 0 00-2.002 0 20.47 20.47 0 01-8.906 3.683 1.698 1.698 0 00-1.421 1.416l-.757 4.833h-1.968l-.689-4.388c0-.019.003-.037.007-.059a1.698 1.698 0 00-1.437-1.805 20.422 20.422 0 01-9.014-3.76 1.698 1.698 0 00-2.42.42l-3.478 2.537-1.39-1.39 2.388-3.276a1.698 1.698 0 00.63-2.546 20.46 20.46 0 01-3.812-9.2 1.704 1.704 0 00-2.187-1.379l-4.075-.64v-1.968zM89.825 101.773l-5.366 2.871a1.763 1.763 0 00-.16.099h-.003c-9.32 6.437-24.124 10.278-32.104 9.824-8.078-.458-39.11-3.913-39.421-3.946h-.006c-.025 0-.05-.004-.075-.007-.037 0-.074-.006-.11-.006H3.397V90.973h9.188c.074 0 .145-.006.216-.016.018 0 .037-.006.055-.009.071-.012.143-.028.207-.046h.01c.074-.025.145-.056.216-.087l.04-.018c.071-.034.139-.074.204-.118h.003c.028-.021 2.88-1.974 7.148-4.138.313-.157.634-.318.961-.478a1.702 1.702 0 00-1.495-3.056c-.343.166-.677.333-1.004.5-3.54 1.792-6.104 3.418-7.093 4.07H1.7c-.94 0-1.699.76-1.699 1.7v23.034c0 .939.76 1.699 1.7 1.699h10.787c2.23.248 31.485 3.499 39.51 3.953.477.028.977.04 1.496.04 8.705 0 23-3.779 32.64-10.399l5.293-2.83a1.699 1.699 0 00-1.6-2.998v-.003z"/><path d="M118.296 83.023c-1.632-3.276-5.598-4.63-8.876-3.063a5.579 5.579 0 00-.577-2.444c-.767-1.647-3.633-4.095-9.15-1.786l-.103.046-3.592 1.792a5.62 5.62 0 00-.563-3.078 5.66 5.66 0 00-7.58-2.54l-3.127 1.56a5.663 5.663 0 00-.58-2.162 5.66 5.66 0 00-7.582-2.54l-22.94 11.44h-.235c-6.25-3.805-14.476-4.083-24.457-.829a1.7 1.7 0 001.05 3.233c9.197-2.998 16.598-2.754 21.998.723.275.176.593.272.92.272H76.2c.108 0 .213.006.318.015.034.003.068.01.102.013.07.009.139.018.207.03.04.007.077.02.117.028a4.097 4.097 0 01.3.087l.18.065c.033.015.07.028.104.043.062.028.124.059.186.09.027.015.058.028.086.043.068.04.136.08.204.123.018.013.037.022.052.035a3.4 3.4 0 01.68.618c.019.021.034.043.052.068.044.055.087.11.127.17l.071.108.084.136.077.148c.018.034.034.071.05.105.027.062.055.124.08.188.009.022.015.044.024.069.028.077.053.154.078.234v.016c.027.093.049.185.067.278v.012c.031.164.047.334.053.504v.015c0 .028 0 .06.003.09 0 .062-.006.12-.01.18-.002.052-.002.104-.008.154-.007.059-.019.117-.028.173-.01.05-.016.102-.025.151a3.303 3.303 0 01-.043.167 1.65 1.65 0 01-.099.306c-.019.05-.034.096-.056.145-.021.05-.046.1-.07.149-.022.046-.044.096-.069.139-.024.046-.055.093-.083.139-.028.043-.053.09-.084.133-.03.043-.064.086-.095.13l-.093.123c-.034.04-.071.08-.108.118-.034.037-.068.077-.105.114-.037.037-.08.07-.118.108-.04.034-.077.071-.117.105-.04.034-.086.065-.13.096-.04.03-.08.065-.123.093-.047.03-.093.055-.142.086a1.926 1.926 0 01-.133.08c-.05.028-.102.05-.151.075-.047.021-.09.046-.136.065-.056.024-.112.04-.17.061l-.133.05c-.062.018-.124.03-.185.046-.044.01-.087.025-.13.034-.071.016-.142.022-.213.034l-.115.019a3.022 3.022 0 01-.336.018c-.065 0-.13.003-.192.012h-.012l-27.627 3.366c-.04.006-.084.012-.124.021-.01 0-.018 0-.03.007-.05.012-.1.024-.149.04h-.01c-.21.068-.398.176-.562.309l-.009.01a1.355 1.355 0 00-.099.089c-.009.006-.015.015-.024.021a1.026 1.026 0 00-.078.087.415.415 0 00-.034.04c-.021.025-.04.052-.058.077-.013.019-.028.037-.04.056a.902.902 0 00-.044.074l-.04.071-.037.074c-.012.025-.025.05-.034.075-.012.027-.022.058-.03.086-.01.022-.016.046-.022.068l-.028.108c-.003.019-.01.034-.012.053-.01.043-.013.083-.02.126a.154.154 0 01-.005.037v.007c-.003.034-.003.07-.003.108v.068c0 .018 0 .037.003.055 0 .04.003.08.009.12v.01c.028.204.09.399.182.575.003.006.006.015.013.025.043.08.092.154.148.225l.025.034c.055.068.117.13.182.192.01.01.021.018.03.028.066.058.137.108.214.154.012.006.025.016.034.022.077.043.154.083.238.117.012.006.028.01.04.016.083.03.17.055.26.074.012 0 .021 0 .033.006.044.006.087.016.133.019l16.17 1.486c1.504.139 3.005.207 4.497.207 4.331 0 8.604-.58 12.752-1.734 1.159-.321 1.545-.479 1.77-.593l.022-.01 27.198-13.318a3.309 3.309 0 014.433 1.483 3.312 3.312 0 01-1.483 4.435c-.015.006-.028.015-.043.021l-14.81 7.918a1.699 1.699 0 101.603 2.997l14.791-7.908c3.291-1.656 4.631-5.68 2.988-8.98l-.006-.012zM89.371 74.99a2.255 2.255 0 112.011 4.04l-9.335 4.653a8.519 8.519 0 00-.309-.5c-.028-.04-.056-.078-.08-.115a5.707 5.707 0 00-.294-.383c-.037-.047-.077-.09-.114-.133a5.548 5.548 0 00-.29-.315l-.152-.149a6.438 6.438 0 00-.306-.272l-.167-.135a5.391 5.391 0 00-.497-.356 6.564 6.564 0 00-.986-.531l-.068-.031a6.688 6.688 0 00-.49-.183l3.317-1.653c.238-.12.46-.256.677-.405l7.086-3.535-.003.003zm-11.29-3.143a2.255 2.255 0 012.443 3.755l-9.311 4.642H61.24l16.84-8.397zm-13.189 23.27l-.33-.031 11.745-1.43c.07 0 .136-.01.207-.013.133-.007.262-.013.392-.025.09-.01.18-.025.269-.037.124-.019.244-.037.365-.062.089-.018.179-.04.268-.062a6.3 6.3 0 001.498-.565c.08-.043.161-.084.238-.13.102-.059.201-.12.3-.185.074-.05.148-.096.22-.146.098-.07.19-.145.287-.22.064-.052.133-.101.197-.157.1-.083.192-.173.285-.262.055-.053.11-.102.163-.158.112-.114.214-.232.315-.352.031-.034.062-.068.093-.105.13-.158.25-.325.365-.495.03-.046.058-.099.09-.145.08-.127.157-.25.228-.38.037-.068.068-.14.105-.21.059-.114.114-.229.167-.35.034-.077.061-.157.092-.237.044-.115.087-.229.127-.347.028-.083.05-.17.074-.256.034-.117.065-.235.09-.352.018-.09.037-.18.052-.272.013-.065.028-.13.037-.198l18.23-9.088c3.528-1.462 4.55-.142 4.711.126.006.016 0-.009.018.037.269.541.312 1.15.121 1.722a2.24 2.24 0 01-1.134 1.304l-22.662 11.3-.016.007c-.028.012-.266.114-1.177.368-5.184 1.44-10.574 1.919-16.03 1.415v-.01z"/></g><defs><clipPath id="clip0_348_1198"><path d="M0 0h119v118H0z"/></clipPath></defs></symbol><symbol id="icon-facility-2" viewBox="0 0 112 124"><g clip-path="url(#clip0_348_1205)"><path d="M104.847 51.592C103 35.316 92.873 20.846 78.101 13.439l.137-.563a4.053 4.053 0 00-.484-3.108 4.099 4.099 0 00-2.553-1.858l-6.298-1.528V4.37c0-2.408-1.97-4.366-4.392-4.366H47.487c-2.423 0-4.393 1.958-4.393 4.366v2.012L36.797 7.91a4.115 4.115 0 00-2.554 1.858 4.067 4.067 0 00-.484 3.108l.137.563c-12.61 6.324-21.827 17.78-25.41 31.127a1.669 1.669 0 00-1.01 1.528c0 .405.146.778.39 1.065a47.863 47.863 0 00-.719 4.433c-4.045.63-7.153 4.118-7.153 8.315v9.395c0 .672.402 1.247.977 1.51v5.937c0 .763.52 1.425 1.263 1.613l11.908 3.001a42.831 42.831 0 003.683 8.833l-6.286 10.494a1.655 1.655 0 00.256 2.027l10.592 10.53a1.677 1.677 0 002.04.254l10.556-6.248a43.576 43.576 0 008.885 3.661l3.016 11.837a1.671 1.671 0 001.622 1.256h14.982c.767 0 1.434-.517 1.622-1.256l3.017-11.837a43.407 43.407 0 008.885-3.661l10.556 6.248a1.68 1.68 0 002.039-.254l10.592-10.53a1.658 1.658 0 00.256-2.027L94.17 90.196a42.831 42.831 0 003.683-8.833l11.907-3.001a1.665 1.665 0 001.263-1.613v-5.937c.575-.263.977-.841.977-1.51v-9.395c0-4.197-3.104-7.686-7.153-8.315zm-3.381-.103h-9.378v-2.221a1.52 1.52 0 011.522-1.513h7.223c.261 1.232.474 2.475.633 3.734zm-53.98-48.16h17.025c.575 0 1.044.466 1.044 1.038v4.787a50.198 50.198 0 00-19.112 0V4.367c0-.572.468-1.038 1.044-1.038zM34.716 16.76l1.385 5.636a1.673 1.673 0 002.024 1.223 1.665 1.665 0 001.23-2.012l-2.338-9.523a.786.786 0 01.575-.944l5.506-1.334v.992c-.072.263-.079.545-.009.83 0 .011.01.02.01.03V30.03c0 .92.748 1.664 1.674 1.664.925 0 1.674-.745 1.674-1.664V12.546a46.8 46.8 0 0119.112 0V30.03c0 .92.749 1.664 1.674 1.664.925 0 1.674-.745 1.674-1.664V9.805l5.506 1.334a.776.776 0 01.484.354.77.77 0 01.091.59l-2.337 9.523a1.665 1.665 0 001.23 2.012 1.67 1.67 0 002.024-1.223l1.385-5.637c11.088 5.798 19.267 15.901 22.716 27.669h-6.386c-2.685 0-4.87 2.172-4.87 4.841v2.221H67.308v-2.221c0-2.672-2.186-4.841-4.87-4.841H49.58c-2.685 0-4.87 2.172-4.87 4.841v2.221H23.097v-2.221c0-2.672-2.186-4.841-4.87-4.841h-6.228c3.449-11.771 11.624-21.871 22.716-27.669zm29.236 34.73H48.047v-2.221a1.52 1.52 0 011.522-1.513h12.857c.84 0 1.522.68 1.522 1.513v2.221h.003zm-52.786-3.734h7.062c.84 0 1.521.68 1.521 1.513v2.221h-9.213c.155-1.259.371-2.502.63-3.734zM3.348 59.907c0-2.805 2.295-5.086 5.117-5.086h95.07c2.822 0 5.117 2.281 5.117 5.086v7.731H3.348v-7.731zm81.28 11.06C83.756 85.913 71.25 97.811 56 97.811S28.244 85.914 27.373 70.966H84.63h-.003zm11.465 7.407c-.627.157-1.08.65-1.217 1.234a39.806 39.806 0 01-4.082 9.777c-.012.021-.018.045-.03.066a2.175 2.175 0 00-.067.149c-.022.054-.043.106-.058.16a1.92 1.92 0 00-.061.318c-.003.048-.003.097-.003.142 0 .058 0 .115.006.173a2.442 2.442 0 00.064.314c.015.046.03.091.052.136.024.058.048.115.079.17.009.018.015.04.027.057l6.115 10.207-8.75 8.699-10.268-6.079c-.018-.012-.04-.015-.057-.027a1.82 1.82 0 00-.174-.082c-.045-.018-.088-.036-.134-.048a1.081 1.081 0 00-.17-.04c-.049-.009-.098-.018-.146-.024-.058-.006-.116-.006-.174-.006-.049 0-.097 0-.143.003a1.667 1.667 0 00-.478.118c-.052.021-.1.042-.149.067-.021.012-.046.018-.067.03a40.017 40.017 0 01-9.831 4.058 1.666 1.666 0 00-1.245 1.21l-2.938 11.513H49.818l-2.937-11.513a1.667 1.667 0 00-1.242-1.21 40.32 40.32 0 01-9.834-4.058c-.025-.012-.05-.021-.07-.033a2.748 2.748 0 00-.31-.124 1.915 1.915 0 00-.32-.058c-.046-.003-.092-.003-.137-.003-.061 0-.122 0-.18.006-.049.006-.094.015-.143.024a1.89 1.89 0 00-.177.043 1.884 1.884 0 00-.307.13c-.018.009-.04.015-.058.027l-10.267 6.079-8.75-8.699L21.2 91.073c.012-.018.019-.039.028-.057.03-.055.054-.112.079-.17.018-.045.036-.09.052-.139.018-.054.03-.109.04-.166l.024-.148c.006-.058.006-.112.006-.17 0-.048 0-.097-.003-.148a1.689 1.689 0 00-.028-.173 1.253 1.253 0 00-.091-.302 1.674 1.674 0 00-.07-.151c-.012-.022-.018-.046-.03-.067a39.522 39.522 0 01-4.082-9.777 1.662 1.662 0 00-1.218-1.234L4.325 75.45v-4.487H24.02c.873 16.784 14.884 30.173 31.981 30.173s31.108-13.389 31.981-30.174h19.694v4.488l-11.582 2.92v.003z"/></g><defs><clipPath id="clip0_348_1205"><path d="M0 0h112v124H0z"/></clipPath></defs></symbol><symbol id="icon-facility-3" viewBox="0 0 124 91"><path d="M120.183 39.998H3.817A3.825 3.825 0 000 43.826v43.343a3.825 3.825 0 003.817 3.828h116.366A3.825 3.825 0 00124 87.169V43.826a3.825 3.825 0 00-3.817-3.828zm.044 47.171c0 .024-.02.045-.044.045H3.817a.046.046 0 01-.044-.045V43.826c0-.025.02-.045.044-.045h116.366c.024 0 .044.02.044.044V87.17zM28.178 37.697h67.647a1.888 1.888 0 001.887-1.891C97.708 16.063 81.688 0 61.998 0c-19.69 0-35.706 16.063-35.706 35.806 0 1.045.844 1.891 1.886 1.891zm36.28-8.092c-.127.66-.501 1.228-1.057 1.603a2.485 2.485 0 01-1.876.385 2.482 2.482 0 01-1.598-1.06 2.52 2.52 0 01.672-3.486c.419-.285.902-.43 1.396-.43a2.482 2.482 0 012.078 1.104c.374.557.511 1.224.384 1.881v.003zm-33.162-2.62h7.538v-3.783h-6.19a32.169 32.169 0 018.492-11.62l4.657 4.67 2.668-2.675-4.304-4.316a31.696 31.696 0 0115.959-5.42v6.545h3.772V3.84a31.663 31.663 0 0115.958 5.42l-4.304 4.316 2.668 2.675 4.658-4.67a32.169 32.169 0 018.492 11.62h-6.19v3.783h7.538a31.853 31.853 0 011.176 6.93H66.076a6.24 6.24 0 002.089-3.59 6.24 6.24 0 000-2.38l9.267-5.42-1.9-3.267-9.157 5.358a6.272 6.272 0 00-7.885-.698c-2.867 1.942-3.622 5.863-1.684 8.738.322.478.703.897 1.128 1.262H30.12c.14-2.39.541-4.708 1.176-6.93v-.003z"/><path d="M8.746 55.46l1.43 5.815 4.568-1.045v20.327h7.388V53.211h-5.454L8.746 55.46zM38.388 62.749c-1.817 0-3.093.388-4.331.97l.233-4.113h12.185v-6.208H28.37l-.771 13.77 4.448 2.483c1.276-.777 2.668-1.359 4.331-1.359 2.36 0 3.986 1.204 3.986 3.143v.076c0 1.943-1.51 3.184-3.986 3.184-2.28 0-4.372-1.086-6.578-2.95l-4.294 5.045c2.823 2.637 6.19 4.305 10.986 4.305 6.578 0 11.18-3.607 11.18-9.66v-.079c0-5.894-4.41-8.61-9.284-8.61v.003zM63.391 65.195H50.705v6.48H63.39v-6.48zM80.23 64.338l6.462-5.547v-5.393H67.115v6.09h10.368l-6.228 5.627 1.084 3.917h3.172c2.823 0 4.41 1.049 4.41 2.796v.075c0 1.668-1.35 2.755-3.48 2.755-2.477 0-4.528-1.125-6.462-3.102l-4.72 4.732c2.631 2.909 6.308 4.81 11.528 4.81 6.036 0 10.447-3.531 10.447-9.04v-.076c0-4.618-3.135-6.788-7.004-7.644zM102.757 52.86c-7.7 0-12.573 6.44-12.573 14.12v.075c0 7.683 4.757 14.041 12.494 14.041s12.573-6.44 12.573-14.117V66.9c0-7.682-4.798-14.04-12.494-14.04zm4.952 14.195c0 4.306-1.934 7.373-4.952 7.373s-5.028-3.105-5.028-7.448v-.08c0-4.343 1.972-7.37 4.952-7.37 2.981 0 5.028 3.14 5.028 7.45v.075z"/></symbol><symbol id="icon-facility-4" viewBox="0 0 103 103"><g clip-path="url(#clip0_348_1229)"><path d="M51.547 0h42.456c5.53 0 8.975 3.462 8.975 9.019v58.45c0 5.47-3.475 8.941-8.945 8.947-1.73 0-3.461.025-5.19-.014-.615-.014-.856.127-.829.796.053 1.279.025 2.56.014 3.84-.014 1.422-.607 2.088-2.025 1.991-1.134-.078-1.336.336-1.317 1.37.067 3.288.02 6.575.025 9.863.005 3.367 2.06 5.403 5.453 5.406 3.944.006 7.888.02 11.832-.014.727-.005 1.021.109 1.007.941-.042 2.397 0 2.399-2.438 2.399-3.528 0-7.059.012-10.587 0-4.99-.019-8.568-3.59-8.587-8.572-.014-3.459-.022-6.921.014-10.38.008-.73-.114-1.024-.943-1.002-1.93.05-2.394-.458-2.397-2.355 0-1.176-.016-2.352.009-3.529.01-.488-.061-.751-.66-.746-3.459.025-6.92.02-10.38.006-.443 0-.601.138-.601.593.014 4.05.014 8.098 0 12.148 0 .486.22.569.63.563.588-.01 1.184-.036 1.76.053 2.444.366 4.214 2.391 4.253 4.888.033 2.144.022 4.292.003 6.436-.012 1.284-.63 1.903-1.93 1.903-13.114.008-26.228.008-39.341 0-1.285 0-1.895-.63-1.903-1.928a322.182 322.182 0 010-6.333c.036-2.85 2.158-4.963 5-5.021.209-.006.42-.028.622.002.799.122 1.045-.166 1.035-1.001a427.255 427.255 0 010-11.316c.01-.87-.294-.996-1.057-.993-8.86.025-17.715.017-26.574.014C3.47 76.416 0 72.937 0 67.458V8.902C0 3.492 3.484 0 8.884 0h42.663zm0 3.323c-14.323 0-28.643-.002-42.966.003-3.117 0-5.253 2.1-5.253 5.182-.008 16.78 0 33.564-.022 50.345 0 .78.2.97.974.97 14.874-.024 29.752-.024 44.627 0 .826 0 .951-.274.94-1-.042-2.595-.072-5.191.011-7.785.033-1.026-.264-1.279-1.25-1.226-1.501.078-2.09-.552-2.095-2.028a580.365 580.365 0 010-5.812c.006-1.509.574-2.097 2.05-2.097a5062.98 5062.98 0 0115.879 0c1.406 0 1.991.608 2 2.045.01 1.8.002 3.598 0 5.398 0 2.072-.406 2.516-2.464 2.505-.663-.003-.884.16-.873.855a360.2 360.2 0 01.005 8.302c-.005.594.097.852.782.84 2.802-.038 5.606-.038 8.407 0 .655.01.81-.193.804-.82-.033-2.63-.066-5.26.012-7.887.03-1.03-.208-1.37-1.282-1.301-1.478.094-2.058-.56-2.063-2.056a528.09 528.09 0 010-5.917c.01-1.354.613-1.958 1.974-1.961 5.329-.008 10.657-.008 15.982 0 1.353 0 1.955.613 1.966 1.972.014 1.867.006 3.737.003 5.607 0 1.9-.469 2.413-2.39 2.363-.819-.022-.96.258-.95.996.042 2.7.045 5.399 0 8.095-.01.735.2.921.924.916 3.736-.037 7.472-.048 11.208.005.921.014 1.201-.197 1.199-1.168-.034-16.572-.023-33.148-.025-49.72 0-3.654-1.978-5.612-5.661-5.612H51.553l-.006-.009zm-.058 59.805h-31.35c-5.259 0-10.52.022-15.779-.023-.896-.008-1.115.259-1.057 1.102.075 1.068.017 2.144.02 3.218 0 3.734 1.952 5.673 5.708 5.673h65.398c6.712 0 13.427.014 20.14-.006 2.914-.008 5.039-2.141 5.083-5.043.02-1.246-.052-2.494.022-3.737.056-.912-.177-1.206-1.162-1.204-15.673.036-31.35.025-47.023.025v-.005zm.05 13.29c-3.562 0-7.123.031-10.684-.022-.843-.01-1.018.25-1.01 1.04.04 3.804.034 7.61.003 11.413-.005.663.158.877.854.874a3104.22 3104.22 0 0121.579 0c.699 0 .854-.22.849-.876a723.78 723.78 0 010-11.519c.005-.713-.164-.937-.907-.929-3.562.039-7.123.017-10.684.017v.002zm-.058 23.259c5.774 0 11.546-.014 17.318.019.765.006 1.02-.175.976-.965-.07-1.276 0-2.558-.025-3.837-.022-1.22-.643-1.853-1.87-1.853a21567.27 21567.27 0 00-32.772 0c-1.273 0-1.872.638-1.886 1.942-.017 1.245.044 2.491-.022 3.734-.039.763.166.987.96.982 5.771-.036 11.546-.02 17.318-.02l.003-.002zm8.312-44.888c0-1.418-.022-2.835.011-4.25.011-.538-.15-.719-.699-.708-1.761.03-3.525.023-5.286.003-.464-.005-.683.092-.677.621.022 2.902.02 5.807 0 8.709-.003.49.147.66.646.654 1.761-.025 3.525-.036 5.287.006.624.014.743-.228.732-.783-.033-1.414-.011-2.832-.011-4.25l-.003-.002zm16.608.036c0 1.381.023 2.766-.01 4.147-.015.577.066.874.767.855 1.726-.053 3.456-.034 5.181-.009.528.009.722-.133.716-.69a495.667 495.667 0 010-8.606c.006-.56-.191-.699-.716-.69-1.727.027-3.455.03-5.18 0-.575-.012-.788.138-.769.746.042 1.414.014 2.832.014 4.25l-.003-.003zm-19.983-8.306h4.249c2.488 0 2.452 0 2.468-2.463.006-.785-.297-.88-.962-.871-3.281.03-6.565.014-9.846.014-2.558 0-2.535 0-2.513 2.516.005.618.144.837.801.82 1.933-.044 3.87-.016 5.805-.016h-.002zm23.328 0h4.25c2.404 0 2.37 0 2.39-2.436.006-.746-.224-.912-.932-.904-3.28.036-6.565.017-9.846.017-2.627 0-2.604 0-2.543 2.59.014.603.202.752.773.744 1.97-.03 3.939-.01 5.908-.01zm4.962 31.6c0-1.132-.412-1.698-1.237-1.698-1.39 0-2.086.421-2.086 1.262 0 1.373.465 2.06 1.393 2.062 1.287 0 1.93-.542 1.93-1.626z"/><path d="M68.103 33.226H42.255c-1.91 0-2.393-.48-2.393-2.383V12.26c0-1.772.513-2.288 2.277-2.288H94.04c1.772 0 2.291.516 2.291 2.277v18.69c0 1.77-.519 2.29-2.277 2.29h-25.95l-.002-.002zm0-3.323c7.954 0 15.912-.009 23.866.014.752 0 1.074-.103 1.065-.985a900.659 900.659 0 01-.005-14.74c.005-.723-.18-.92-.915-.92-16.015.022-32.03.022-48.045 0-.751 0-.904.23-.901.935.03 4.877.039 9.756-.006 14.633-.008.86.206 1.085 1.074 1.082 7.954-.036 15.912-.022 23.867-.022v.003zM6.648 29.866c.02-4.744 4.84-7.915 9.22-6.028.621.269.962.197 1.417-.27a404.001 404.001 0 015.866-5.872c.41-.405.533-.735.347-1.34-.69-2.244.255-4.558 2.238-5.712a4.945 4.945 0 016.016.794 4.953 4.953 0 01.782 6.02c-1.153 1.98-3.458 2.907-5.719 2.235-.53-.158-.86-.138-1.265.275a351.126 351.126 0 01-6.015 6.017c-.42.408-.475.721-.22 1.248.84 1.754.84 3.551.006 5.305-.25.527-.114.785.274 1.126 3.603 3.182 7.198 6.375 10.779 9.584.419.375.746.414 1.284.23 2.235-.757 4.554.1 5.777 2.059a4.926 4.926 0 01-.59 6.037c-1.562 1.661-3.992 2.058-5.986.97-2.033-1.106-3.048-3.373-2.41-5.634.188-.668-.02-.987-.472-1.384a1450.571 1450.571 0 01-10.47-9.304c-.521-.47-.904-.594-1.606-.278-4.368 1.956-9.27-1.29-9.25-6.08l-.003.002zm9.958.03c0-1.803-1.495-3.303-3.295-3.315-1.809-.01-3.315 1.463-3.34 3.271-.025 1.845 1.504 3.385 3.348 3.368 1.8-.017 3.29-1.52 3.29-3.323h-.003zm11.68-13.293a1.674 1.674 0 001.602-1.703 1.674 1.674 0 00-1.703-1.604 1.668 1.668 0 00-1.6 1.704 1.673 1.673 0 001.703 1.603h-.003zm4.92 33.226a1.676 1.676 0 001.664-1.643 1.672 1.672 0 00-1.642-1.664 1.668 1.668 0 00-1.662 1.642 1.67 1.67 0 001.642 1.665h-.002zM81.385 68.103c0 1.113-.663 1.67-1.988 1.67-.89 0-1.335-.672-1.335-2.014 0-.873.68-1.31 2.04-1.31.853 0 1.28.551 1.28 1.654h.003zM86.444 66.448c1.056 0 1.584.519 1.584 1.556 0 1.177-.596 1.765-1.789 1.765-.139 0-.28-.02-.413.002-.882.15-1.304-.152-1.123-1.095.033-.167.005-.344.005-.516 0-1.143.58-1.715 1.74-1.715l-.004.003zM94.674 68.141c0 1.088-.641 1.632-1.923 1.632-.933 0-1.4-.685-1.398-2.053 0-.847.693-1.27 2.078-1.27.828 0 1.243.563 1.243 1.691z"/><path d="M67.986 19.936c-6.812 0-13.627-.02-20.439.022-.89.006-1.081-.255-1.062-1.096.056-2.247.014-2.25 2.272-2.25 13.246 0 26.49.009 39.737-.016.874 0 1.265.116 1.223 1.143-.089 2.194-.025 2.197-2.227 2.197H67.983h.003zM68.13 26.578c-6.848 0-13.696-.014-20.544.02-.829.002-1.129-.15-1.104-1.055.061-2.286.014-2.288 2.339-2.288 13.21 0 26.424.01 39.634-.023.96 0 1.31.164 1.265 1.213-.092 2.13-.025 2.133-2.189 2.133h-19.4z"/></g><defs><clipPath id="clip0_348_1229"><path d="M0 0h103v103H0z"/></clipPath></defs></symbol><symbol id="icon-facility-5" viewBox="0 0 108 115"><g clip-path="url(#clip0_348_1240)"><path d="M52.197 0c2.015.795 2.827 2.299 2.677 4.42-.066.93.006 1.872-.015 2.806-.045 2.103-1.236 3.441-3.348 3.63-.721.066-.932.276-.926.997.036 3.666.015 7.336.018 11.003 0 .261.003.525.033.786.178 1.617.397 1.813 1.997 1.813h27.01c1.874 0 1.576.132 1.594-1.642.012-1.347 0-2.694 0-4.042 0-.984-.476-1.477-1.428-1.479H57.637c-.412 0-.833.009-1.23-.075-.791-.165-1.233-.702-1.279-1.497-.048-.846.367-1.453 1.194-1.675.428-.114.89-.114 1.339-.114 7.503-.006 15.007-.009 22.507-.003 3.131 0 4.445 1.32 4.445 4.438 0 1.873.012 3.742-.003 5.614-.02 2.32-1.452 3.763-3.78 3.847-.111.003-.225 0-.337.003-1.606.02-2.409.85-2.409 2.49 0 10.332.012 20.663-.02 30.992-.004.948.174 1.266 1.208 1.257 6.19-.054 12.379-.042 18.568-.01.9.007 1.224-.086 1.04-1.142-1.175-6.815-6.667-11.697-13.873-12.234-.225-.018-.45-.01-.673-.036-1.014-.12-1.6-.75-1.582-1.692.018-.925.634-1.606 1.654-1.63 1.693-.039 3.377.168 4.992.696 7.164 2.338 11.498 7.187 12.8 14.617.183 1.047.451 1.476 1.624 1.443 2.496-.07 4.111 1.63 4.162 4.147.018.936.012 1.872 0 2.808-.027 2.728-1.576 4.34-4.334 4.34-.992 0-1.248.263-1.245 1.253.042 8.534.039 17.068.003 25.602-.003.909.202 1.209 1.161 1.203 2.788-.021 4.394 1.627 4.415 4.39.009 1.123.012 2.245 0 3.37-.03 2.695-1.666 4.315-4.379 4.315-18.306.003-36.612 0-54.921 0H4.68c-3.152 0-4.68-1.53-4.683-4.687 0-1.011-.009-2.022 0-3.031.024-2.7 1.648-4.336 4.337-4.381.978-.016 1.468-.52 1.468-1.512 0-23.73-.01-47.461.03-71.19 0-1.174-.328-1.42-1.435-1.399C1.345 28.86.01 27.483.003 24.452V19.51c0-3.31 1.293-4.588 4.653-4.588 9.23 0 18.456.003 27.686-.003 1.943 0 1.672.228 1.702-1.641.003-.261-.036-.531.006-.786.199-1.14-.171-1.639-1.425-1.717-1.456-.09-2.65-1.365-2.746-2.832a42.863 42.863 0 01-.015-4.933C29.945 1.43 31.1.636 32.384 0h19.813zM31.362 28.905c-.148-.027-.286-.072-.424-.072-6.978-.003-13.955.012-20.935-.024-.917-.006-.818.501-.818 1.072 0 23.993.006 47.986-.018 71.979 0 .831.201 1.068 1.052 1.062 5.29-.039 10.58-.039 15.87 0 .87.006 1.135-.207 1.129-1.107-.043-6.175-.025-12.35-.022-18.529 0-3.679 1.841-5.521 5.525-5.524 6.304-.006 12.604-.003 18.908 0 3.825 0 5.648 1.824 5.65 5.647.004 6.14.013 12.279-.014 18.415-.003.783.13 1.11 1.031 1.104 5.14-.045 10.28-.048 15.42 0 .914.009 1.01-.333 1.01-1.101-.018-23.957-.021-47.911.009-71.868 0-.976-.313-1.156-1.209-1.15-6.415.036-12.83.018-19.245.021-1.184 0-1.19.01-.613 1.048 2.31 4.152 4.634 8.296 6.929 12.455 2.953 5.353-.292 10.86-6.412 10.872-7.915.015-15.831 0-23.747.006-.869 0-1.723-.081-2.553-.334-4.394-1.34-6.237-6.154-3.93-10.36 2.282-4.166 4.619-8.304 6.923-12.46.192-.345.49-.654.487-1.149l-.003-.003zm22.58 82.728H93.66c3.227 0 6.451-.03 9.675.018.998.015 1.356-.354 1.29-1.314-.051-.744-.009-1.497-.009-2.245 0-1.214-.595-1.821-1.784-1.821H5.167c-.262 0-.526.009-.788 0-.719-.024-1.013.336-1.001 1.032.018.898 0 1.798.003 2.695 0 1.088.538 1.633 1.615 1.635H53.94zm45.12-22.72c0-4.34-.018-8.679.015-13.014.006-.778-.216-1.02-1.004-1.018-6.334.027-12.67.03-19.004 0-.791-.003-.999.234-.999 1.011.027 8.678.027 17.353 0 26.031 0 .78.202 1.002.993.999 6.333-.033 12.67-.03 19.004 0 .776.003 1.02-.195 1.01-.993-.039-4.339-.018-8.678-.018-13.014l.003-.003zm-68.488 3.52v9.544c0 .498-.075.948.703.936 2.852-.036 5.703-.024 8.554-.006.547.003.715-.198.7-.72a45.665 45.665 0 01.006-3.144c.046-1.123.77-1.819 1.757-1.783.935.036 1.573.726 1.6 1.803.027.973.054 1.951-.006 2.92-.048.762.246.942.965.933 2.665-.036 5.33-.048 7.99.006.837.015 1.086-.207 1.08-1.059-.036-6.25-.015-12.504-.02-18.754 0-1.554-.443-1.971-2.04-1.977-2.288-.01-4.577.042-6.866-.024-.917-.027-1.13.276-1.115 1.14.05 2.805.03 5.614.012 8.423-.01 1.278-.722 1.992-1.826 1.9-.965-.082-1.534-.775-1.54-1.987-.018-2.809-.042-5.618.015-8.423.019-.87-.27-1.065-1.088-1.047-2.325.05-4.653.009-6.977.02-1.477.01-1.901.46-1.904 1.981-.006 3.106 0 6.214 0 9.32v-.003zM42.33 49.837c3.864 0 7.735-.138 11.59.042 3.54.165 5.528-2.974 3.657-6.143-3.025-5.119-5.8-10.382-8.745-15.552-1.107-1.941-1.681-3.946-1.627-6.193.081-3.292-.01-6.587.042-9.881.012-.892-.168-1.252-1.152-1.225-2.511.07-5.025.057-7.54.006-.872-.018-1.163.225-1.148 1.129.048 3.441-.01 6.886.03 10.33.024 1.963-.451 3.746-1.42 5.459-3.02 5.341-5.988 10.71-8.968 16.069-1.774 3.192-.171 5.95 3.468 5.959 3.94.009 7.876 0 11.816 0h-.003zM18.734 18.292c-4.761 0-9.519.015-14.28-.015-.824-.006-1.125.225-1.092 1.08.064 1.606.09 3.22-.006 4.822-.066 1.078.331 1.303 1.333 1.3 9.181-.034 18.363-.049 27.545.015 1.227.009 1.642-.526 1.702-1.516.09-1.491.015-2.991.13-4.48.078-1.041-.331-1.23-1.276-1.221-4.685.045-9.368.021-14.053.021l-.003-.006zM91.14 66.906c-3.228 0-6.451-.013-9.678.005-1.08.007-2.506-.459-3.152.175-.707.69-.103 2.133-.244 3.231-.132 1.018.265 1.234 1.233 1.228 7.35-.04 14.704-.022 22.054-.022 3.287 0 3.245 0 3.278-3.261.012-1.12-.412-1.39-1.459-1.377-4.012.047-8.027.02-12.038.02h.005zM42.357 3.37h-6.072c-3.236 0-3.218 0-3.122 3.252.018.655.184.93.89.928 5.51-.021 11.023-.018 16.532 0 .656 0 .966-.165.914-.883a14.3 14.3 0 010-2.241c.076-.825-.18-1.095-1.046-1.077-2.698.057-5.398.02-8.096.02z"/><path d="M42.516 59.305h23.735c2.454 0 3.492 1.033 3.498 3.46.003 1.383 0 2.77 0 4.153 0 2.722-.927 3.66-3.618 3.664H18.998c-2.661 0-3.6-.927-3.609-3.556-.006-1.497-.018-2.992.006-4.489.033-2.175 1.098-3.229 3.272-3.232 7.949-.006 15.898 0 23.846 0h.003zm12.61 3.37c-3.413 0-6.826.024-10.24-.018-.794-.009-1.055.222-1.001 1.008.063.895.042 1.798.006 2.695-.024.603.138.867.806.867 6.977-.018 13.954-.018 20.931 0 .602 0 .78-.213.755-.786-.039-.933-.066-1.876.006-2.806.064-.825-.267-.98-1.022-.972-3.414.036-6.827.015-10.24.015v-.003zm-25.515 4.54c3.339 0 6.677-.015 10.015.012.659.006.954-.147.911-.867-.057-.97-.039-1.948-.006-2.917.021-.57-.153-.78-.758-.78-6.751.018-13.503.018-20.255 0-.616 0-.77.252-.754.801.024.898.057 1.8-.01 2.695-.063.834.217 1.09 1.068 1.077 3.263-.048 6.526-.018 9.79-.02zM66.043 99.292c-.634 0-1.269.024-1.903-.003-1.035-.045-1.742-.732-1.742-1.659 0-.873.662-1.63 1.63-1.671a43.332 43.332 0 014.142.006c.956.05 1.6.843 1.57 1.719-.03.882-.713 1.554-1.682 1.602-.67.033-1.344.006-2.015.01v-.004zM66.064 90.562c-.67 0-1.344.018-2.015-.006-.971-.036-1.545-.597-1.627-1.519-.08-.933.434-1.64 1.366-1.749a18.665 18.665 0 014.574.006c.932.12 1.438.816 1.354 1.755-.076.874-.617 1.438-1.525 1.498-.707.048-1.417.009-2.127.009v.006zM19.082 90.563c-.673 0-1.35.027-2.024-.006-.965-.045-1.548-.567-1.618-1.528-.072-.96.434-1.67 1.375-1.74a31.112 31.112 0 014.487-.006c.935.066 1.465.753 1.404 1.72-.06.957-.637 1.494-1.597 1.55-.673.04-1.35.007-2.024.01h-.003zM18.983 99.29c-.635 0-1.27.028-1.9-.005-1-.051-1.63-.684-1.658-1.606-.027-.903.584-1.665 1.552-1.716a41.389 41.389 0 014.138-.006c1.026.048 1.663.837 1.603 1.782-.057.895-.719 1.507-1.717 1.549-.67.027-1.341.006-2.015.006l-.003-.003zM19.127 78.549c.713 0 1.429-.054 2.133.015.905.09 1.416.666 1.443 1.572.027.907-.445 1.549-1.344 1.657-1.525.186-3.07.183-4.596 0-.908-.108-1.362-.766-1.332-1.666.03-.903.535-1.485 1.447-1.566.742-.066 1.497-.015 2.246-.012h.003zM66.043 78.535c.713 0 1.429-.045 2.135.012.963.078 1.525.67 1.54 1.612.018.945-.532 1.602-1.489 1.656-1.419.081-2.85.081-4.27.009-.972-.048-1.651-.858-1.555-1.722.105-.928.635-1.513 1.61-1.567.673-.036 1.35-.006 2.023-.006v.006h.006zM89.206 99.288c-.67 0-1.344.03-2.015-.006-.965-.051-1.666-.739-1.65-1.624.017-.95.55-1.614 1.473-1.677a32.544 32.544 0 014.36-.003c.93.06 1.46.73 1.492 1.668.03.888-.676 1.582-1.642 1.636-.67.036-1.344.006-2.015.006h-.003zM89.194 90.563c-.67 0-1.344.021-2.015-.006-.965-.039-1.542-.594-1.627-1.518-.084-.94.43-1.635 1.363-1.75a19.125 19.125 0 014.574 0c.884.103 1.39.772 1.362 1.651-.03.921-.556 1.542-1.53 1.608-.707.048-1.417.01-2.127.01v.008-.003zM89.242 78.537c.674 0 1.354-.033 2.024.006.975.057 1.543.648 1.582 1.578.04.93-.48 1.633-1.446 1.69a39.538 39.538 0 01-4.382.006c-.956-.054-1.498-.727-1.47-1.669.023-.942.592-1.527 1.554-1.6.71-.05 1.426-.008 2.138-.011zM42.402 46.465c-3.149 0-6.3.006-9.45 0-2.12-.006-2.805-1.2-1.768-3.072 2.07-3.727 4.156-7.442 6.214-11.178.878-1.596 2.174-2.217 4-2.4 3.296-.327 5.335.912 6.748 3.91 1.561 3.306 3.522 6.42 5.3 9.626 1.082 1.95.405 3.108-1.82 3.114-3.074.006-6.15 0-9.224 0zm-7.095-3.54c.175.093.235.153.295.153 4.349.009 8.7.006 13.05.024.887.003.559-.417.336-.814-1.308-2.352-2.755-4.642-3.888-7.075-.776-1.66-1.805-2.248-3.558-2.014-.644.087-1.002.28-1.296.835-.806 1.518-1.663 3.012-2.5 4.513-.812 1.458-1.623 2.913-2.436 4.378h-.003z"/></g><defs><clipPath id="clip0_348_1240"><path d="M0 0h108v115H0z"/></clipPath></defs></symbol><symbol id="icon-facility-6" viewBox="0 0 175 58"><g clip-path="url(#clip0_456_5853)"><path d="M34.477 25.795a4.735 4.735 0 00-4.41-2.998h-.023a4.735 4.735 0 00-4.424 2.978l-1.503 3.752a4.684 4.684 0 00.487 4.391 4.77 4.77 0 003.94 2.07h2.984c1.575 0 3.046-.769 3.933-2.06a4.685 4.685 0 00.5-4.382l-1.484-3.751zm-4.43.318c.289 0 .997.09 1.315.892l1.484 3.752c.173.437.12.914-.149 1.303-.266.39-.695.612-1.17.612h-2.984c-.477 0-.903-.225-1.172-.615a1.371 1.371 0 01-.143-1.307l1.504-3.751c.321-.799 1.026-.886 1.315-.886z"/><path d="M52.83 33.687a1.683 1.683 0 00-2.192-.883 1.656 1.656 0 00-.89 2.174l7.149 16.766c.188.44.142.924-.124 1.32-.266.4-.698.628-1.179.628h-9.246a1.405 1.405 0 01-1.309-.873l-2.351-5.709a4.743 4.743 0 00-4.407-2.936H21.705a4.74 4.74 0 00-4.42 2.965l-2.287 5.67c-.217.535-.73.883-1.315.883H4.762c-.484 0-.913-.229-1.179-.628a1.37 1.37 0 01-.123-1.32L23.74 4.173a1.41 1.41 0 011.303-.857h10.269a1.41 1.41 0 011.302.857l4.495 10.539a1.68 1.68 0 002.192.882 1.656 1.656 0 00.89-2.173L39.697 2.88A4.752 4.752 0 0035.313 0h-10.27a4.752 4.752 0 00-4.384 2.882L.378 50.452A4.677 4.677 0 00.793 54.9a4.758 4.758 0 003.969 2.112h8.921a4.74 4.74 0 004.42-2.965l2.287-5.67c.217-.535.73-.883 1.315-.883H38.28c.578 0 1.091.342 1.309.873l2.351 5.709a4.743 4.743 0 004.407 2.936h9.246a4.762 4.762 0 003.969-2.112 4.677 4.677 0 00.415-4.446L52.83 33.687zM110.303.38h-6.697c-3.186 0-5.778 2.57-5.778 5.729v11.817c0 1.33-1.09 2.412-2.432 2.412H84.477c-1.341 0-2.432-1.082-2.432-2.412V6.11c0-3.159-2.592-5.728-5.778-5.728h-6.696c-3.186 0-5.778 2.57-5.778 5.728v45.175c0 3.159 2.592 5.728 5.778 5.728h6.696c3.186 0 5.778-2.57 5.778-5.728V39.161c0-1.33 1.091-2.411 2.432-2.411h10.919c1.341 0 2.432 1.081 2.432 2.411v4.56c0 .914.75 1.658 1.673 1.658.922 0 1.673-.744 1.673-1.658v-4.56c0-3.158-2.592-5.728-5.778-5.728H84.477c-3.186 0-5.777 2.57-5.777 5.728v12.123c0 1.33-1.091 2.412-2.433 2.412h-6.696c-1.342 0-2.433-1.082-2.433-2.412V6.11c0-1.33 1.091-2.412 2.433-2.412h6.696c1.342 0 2.433 1.082 2.433 2.412v11.817c0 3.159 2.591 5.728 5.777 5.728h10.919c3.186 0 5.778-2.57 5.778-5.728V6.11c0-1.33 1.091-2.412 2.432-2.412h6.697c1.341 0 2.432 1.082 2.432 2.412v45.175c0 1.33-1.091 2.412-2.432 2.412h-6.697c-1.341 0-2.432-1.082-2.432-2.412v-1.742c0-.914-.751-1.658-1.673-1.658s-1.673.744-1.673 1.658v1.742c0 3.159 2.592 5.728 5.778 5.728h6.697c3.186 0 5.777-2.57 5.777-5.728V6.11c0-3.159-2.591-5.728-5.777-5.728zM169.223.38h-6.927c-3.186 0-5.778 2.57-5.778 5.73v25.938c0 6.09-2.848 9.31-8.236 9.31-5.388 0-8.236-3.353-8.236-9.69v-3.161c0-.915-.75-1.659-1.672-1.659-.923 0-1.673.744-1.673 1.659v3.162c0 8.265 4.222 13.005 11.581 13.005 7.359 0 11.581-4.602 11.581-12.626V6.11a2.425 2.425 0 012.43-2.412h6.927c1.341 0 2.432 1.082 2.432 2.412v23.084c0 .914.751 1.658 1.673 1.658s1.673-.744 1.673-1.659V6.11c0-3.159-2.592-5.728-5.778-5.728h.003z"/><path d="M166.748 47.726c-3.93 4.618-10.191 6.958-18.619 6.958-15.189 0-23.218-7.853-23.218-22.713V6.11c0-1.33 1.092-2.412 2.433-2.412h6.927c1.342 0 2.433 1.082 2.433 2.412v7.432c0 .914.75 1.658 1.672 1.658.923 0 1.673-.744 1.673-1.658V6.109c0-3.159-2.592-5.728-5.778-5.728h-6.927c-3.186 0-5.778 2.57-5.778 5.728v25.862c0 16.786 9.435 26.03 26.563 26.03 9.457 0 16.579-2.737 21.175-8.137a1.652 1.652 0 00-.202-2.337 1.685 1.685 0 00-2.357.2h.003zM49.04 31.246c1.03 0 1.871-.83 1.871-1.854a1.863 1.863 0 00-1.87-1.855c-1.033 0-1.871.83-1.871 1.855 0 1.024.838 1.854 1.87 1.854zM170.937 43.363c-1.029 0-1.871.831-1.871 1.855s.838 1.855 1.871 1.855 1.871-.831 1.871-1.855a1.863 1.863 0 00-1.871-1.855z"/><path d="M138.376 21.52c-1.029 0-1.87.83-1.87 1.854s.838 1.855 1.87 1.855c1.033 0 1.871-.83 1.871-1.855a1.863 1.863 0 00-1.871-1.854z"/></g><defs><clipPath id="clip0_456_5853"><path d="M0 0h175v58H0z"/></clipPath></defs></symbol><symbol id="icon-fb" viewBox="0 0 20.312 35.188"><path d="M12.633 7.608v5.025h7.608l-1.326 7.538h-6.282v15.006H5.1V20.171H0v-7.608h5.1v-5.3C5.1 5.269 7.052.004 12.5.004h7.817v7.538z" fill-rule="evenodd"/></symbol><symbol id="icon-flask" viewBox="0 0 69 69"><path d="M66.663 14.144L53.987 1.468a5.395 5.395 0 00-7.399 0 5.188 5.188 0 00-1.495 3.647L3.24 46.969a11.108 11.108 0 000 15.68l2.287 2.287a11.091 11.091 0 0015.68 0l41.854-41.854a5.231 5.231 0 003.648-8.968l-.046.03zM53.06 24.607l-35.59 35.56a5.905 5.905 0 01-8.357 0l-1.15-1.136a5.98 5.98 0 010-8.37l28.026-28.117c.282-.28.665-.436 1.062-.434h14.947a1.496 1.496 0 011.376.927c.234.556.11 1.199-.315 1.629l.001-.059z"/></symbol><symbol id="icon-formula" viewBox="0 0 49 69"><path d="M14.97 17.441h15.457a5.19 5.19 0 000-10.377h-2.572V5.15a5.155 5.155 0 00-10.313 0v1.915H14.97a5.189 5.189 0 000 10.377zm0-6.853h15.457a1.661 1.661 0 010 3.323H14.97a1.661 1.661 0 010-3.323zM47.232 58.397H8.114l1.769 2.97v3.71l-1.769 2.97h39.118L49 65.077v-3.71l-1.768-2.97zM3.692 60.932L.356 62.64a.655.655 0 000 1.166L3.69 65.51c.019-.04.042-.079.065-.118l.894-1.502v-1.339l-.894-1.502a.978.978 0 01-.062-.118zM33.988 43.944v-5.062c0-.521-.278-1.003-.73-1.263l-3.653-2.11v-4.222c0-.521-.278-1.003-.73-1.263l-3.654-2.11V25.75a2.375 2.375 0 10-2.92 0v2.163l-3.655 2.11c-.452.26-.73.743-.73 1.264v4.221l-3.653 2.11a1.46 1.46 0 00-.73 1.264v4.186l-2.695 1.433a1.462 1.462 0 00-.602 1.975 1.46 1.46 0 001.975.603l2.754-1.464 3.681 2.126c.452.26 1.008.26 1.46 0l3.655-2.11 3.655 2.11c.451.26 1.007.26 1.46 0l4.382-2.531c.452-.261.73-.743.73-1.266zM22.3 43.101l-2.924 1.688-2.922-1.688v-3.375l2.922-1.688 2.924 1.688v3.376zm4.385-7.595l-2.924 1.688-2.925-1.688V32.13l2.925-1.687 2.924 1.687v3.376zM5.17 10.87A8.67 8.67 0 000 18.76v38.91l4.04-2.202V18.76a4.577 4.577 0 011.535-3.414 9.666 9.666 0 01-.404-4.477zM41.36 18.76v35.597h4.04V18.761a8.658 8.658 0 00-5.178-7.891 9.673 9.673 0 01-.404 4.477 4.562 4.562 0 011.542 3.414zM16.776 51.102a1.683 1.683 0 100 3.367h11.85a1.686 1.686 0 001.686-1.683 1.683 1.683 0 00-1.687-1.684H16.776z"/></symbol><symbol id="icon-hands" viewBox="0 0 59 56"><path d="M47.306.279A.92.92 0 0046.614 0a.954.954 0 00-.678.303L42.4 4.1a.947.947 0 00.014 1.31l.269.276-1.404 1.4-2.218-.552A5.81 5.81 0 0033.57 8.06l-5.235 5.486-5.45-5.435a4.996 4.996 0 00-5.13-1.208.965.965 0 00-.297.16l-.238.19-.611-.645 1.195-1.192a.947.947 0 000-1.342L13.997.278a.954.954 0 00-1.346 0L.28 12.618a.948.948 0 000 1.342l3.807 3.796c.371.37.974.37 1.345 0l.43-.429 2.255 2.25-.554 2.211a5.747 5.747 0 001.489 5.43l7.347 7.98c.483.45 1.056.792 1.682 1.004v6.814a4.358 4.358 0 002.43 3.92 2.476 2.476 0 011.377 2.222v.198h-.952a.95.95 0 00-.951.95v4.745a.948.948 0 00.951.949h18.083a.953.953 0 00.952-.95v-4.745a.948.948 0 00-.952-.949h-.951v-.973l1.11-1.095a5.775 5.775 0 002.697-4.868V31.21a4.371 4.371 0 003.929-1.362l5.03-5.448a4.355 4.355 0 001.062-4.485c-.152-.458.666-1.955 1.644-3.104.175.172.409.27.654.274h.01c.25 0 .488-.099.666-.274l3.85-3.796a.948.948 0 000-1.347L47.307.278zM5.13 15.259a.924.924 0 00-.21.32l-.166.164-2.46-2.455L13.32 2.291l2.462 2.455-.927.925a.94.94 0 00-.304.19L5.13 15.258zm12.949 18.49v.37a1.732 1.732 0 01-.31-.235l-7.349-7.978a3.865 3.865 0 01-1.015-3.659l.684-2.732a.947.947 0 00-.25-.901l-2.636-2.63 8.055-8.032 1.177 1.243c.341.36.902.397 1.289.087l.781-.628a3.1 3.1 0 013.03.797l5.483 5.468-.891.933a3.347 3.347 0 00-.888-.13 3.754 3.754 0 00-.557.01 3.236 3.236 0 00-2.084 1.166 3.221 3.221 0 00-.712 2.275v9.925a4.77 4.77 0 00-2.733 1.65 4.748 4.748 0 00-1.074 3.001zm19.986 20.352h-16.18v-2.847h16.18V54.1zm1.904-24.092v12.41a3.868 3.868 0 01-1.875 3.303.962.962 0 00-.179.138l-1.467 1.45a.94.94 0 00-.286.675v1.37H23.79v-.197a4.351 4.351 0 00-2.43-3.92 2.46 2.46 0 01-1.377-2.223v-9.267a2.843 2.843 0 011.904-2.673v5.941h1.903V19.172a1.52 1.52 0 011.26-1.548c.415.01.813.166 1.124.44.288.244.461.597.476.973V33.22h1.904V17.138c0-.404.171-.79.472-1.06.301-.27.703-.4 1.106-.357.755.124 1.3.79 1.272 1.552V33.22h1.904V19.985a1.43 1.43 0 011.578-1.417 1.52 1.52 0 011.277 1.553v13.098h1.904V25.38a2.853 2.853 0 011.903 2.673v1.956zm10.12-9.492a2.485 2.485 0 01-.63 2.57l-5.03 5.45a2.85 2.85 0 01-2.556.776v-1.259a4.748 4.748 0 00-1.075-3 4.77 4.77 0 00-2.733-1.65v-3.282a3.42 3.42 0 00-.84-2.288 3.438 3.438 0 00-2.15-1.153 3.339 3.339 0 00-1.78.31 3.578 3.578 0 00-.095-.58c-.016-.06-.04-.118-.059-.178a3.725 3.725 0 00-.129-.368c-.03-.068-.068-.13-.102-.197-.053-.104-.105-.207-.167-.304-.043-.067-.096-.127-.14-.19-.065-.088-.13-.175-.203-.257-.054-.06-.112-.115-.17-.171a3.526 3.526 0 00-.237-.213c-.064-.051-.13-.095-.198-.143a3.385 3.385 0 00-.266-.167 3.484 3.484 0 00-.507-.226 3.4 3.4 0 00-.242-.073c-.047-.011-.09-.03-.138-.04l4.295-4.498v-.001a3.896 3.896 0 013.668-1.014l2.74.684a.954.954 0 00.904-.25l1.643-1.639 8.316 8.294c-.886 1.022-2.68 3.379-2.119 5.055v.002zm4.126-5.727l-.232-.237-.028-.027L44.41 4.73l2.247-2.414 10.047 10.023-2.488 2.451z"/></symbol><symbol id="icon-help" viewBox="0 0 52 53"><path d="M50.438 34.227c-1.518-2.42-6.306-9.21-6.598-9.623-.467-.709-1.168-1.18-1.985-1.299-.876-.177-1.81.059-2.57.59-1.517 1.063-1.984 3.13-.992 4.605l1.11 2.184-5.664-2.302-6.131-12.81 3.445 1.77c1.868 1.181 4.262.591 5.43-1.298.584-.886.759-2.007.525-3.01-.233-1.063-.876-1.95-1.752-2.54-.525-.353-9.576-6.493-12.787-8.5C18.44-.486 13.302-.663 8.747 1.52A15.22 15.22 0 00.982 9.963c-1.401 3.719-1.285 7.793.234 11.453l7.24 15.703c.7 1.476 2.102 2.303 3.62 2.303.584 0 1.11-.118 1.693-.354.76-.354 1.343-.886 1.693-1.535l.935 2.007c.467 1.004 1.226 1.712 2.277 2.066.467.177.875.236 1.343.236.525 0 .992-.118 1.518-.295l.7.236c-.408.355-.758.768-.992 1.3-.409.885-.409 1.77-.058 2.656.35.826.934 1.417 1.752 1.712l12.203 4.84c1.285.473 2.628.709 3.912.709 4.847 0 9.576-2.952 11.737-7.734 1.751-3.778 1.576-7.91-.35-11.04h-.001zm-31.18 5.667a2.096 2.096 0 01-1.227-1.122l-2.277-4.9c0-.059-.058-.118-.058-.118l-4.846-10.39c-.234-.473-.76-.65-1.168-.414-.467.236-.643.768-.41 1.18l4.847 10.391a2.209 2.209 0 01-1.05 2.952c-1.11.531-2.395.059-2.92-1.063L2.85 20.707A13.508 13.508 0 019.448 3.173c4.03-1.889 8.526-1.77 12.087.414 3.212 1.948 12.67 8.383 12.729 8.442.525.295.817.826.993 1.417.117.59 0 1.18-.292 1.712-.293.53-.818.826-1.402 1.003-.584.118-1.168 0-1.693-.295 0 0-.058 0-.058-.06l-6.365-3.305c-.292-.177-.642-.118-.934.059-3.212 2.302-8.408 1.89-11.094-.827a.91.91 0 00-1.285 0 .934.934 0 000 1.3c3.153 3.187 8.876 3.778 12.846 1.416l6.131 12.988-2.044-1.004c-.992-.413-2.044-.235-2.977.296l-2.745-5.904c-.233-.472-.759-.65-1.167-.413-.468.236-.643.767-.41 1.18l3.037 6.495c-.058.058-.058.118-.117.235-.233.532-.35 1.063-.292 1.653l-.876-.354a3.328 3.328 0 00-2.802.177l-1.927-4.132c-.233-.472-.76-.65-1.168-.413-.467.235-.642.767-.409 1.18l2.16 4.664c-.058.118-.116.236-.174.413-.41.885-.41 1.771-.059 2.657.292.65.76 1.18 1.343 1.535-.409.354-.76.767-.993 1.298-.408.886-.408 1.771-.058 2.657l.175.354c-.175-.059-.233-.117-.35-.117zm29.954 4.605c-2.395 5.254-8.292 7.97-13.43 6.14l-12.203-4.842c-.35-.118-.585-.413-.76-.767-.175-.354-.117-.827.059-1.24.35-.827 1.342-1.24 2.102-.945l8.116 3.247a.904.904 0 001.168-.53.92.92 0 00-.526-1.182l-8.116-3.187-.117-.06s-3.97-1.593-4.087-1.652c-.234-.118-.35-.354-.467-.59-.175-.355-.117-.827.058-1.24.175-.473.584-.768.992-.945.35-.119 9.226 3.247 9.226 3.247a.904.904 0 001.168-.532.92.92 0 00-.526-1.18l-10.451-4.132c-.35-.119-.584-.414-.76-.768-.175-.354-.117-.827.059-1.24.175-.354.409-.59.7-.826.41-.236.934-.355 1.402-.177l12.145 4.84a.904.904 0 001.167-.53.92.92 0 00-.525-1.181l-8.525-3.424c-.41-.177-.7-.473-.818-.827-.175-.354-.117-.767 0-1.122.117-.295.35-.53.584-.708.468-.354 1.051-.472 1.518-.236l12.555 5.313c.35.118.76.059.993-.236.233-.295.292-.708.117-1.004 0 0-2.336-4.427-2.336-4.486-.467-.709-.233-1.653.526-2.184.35-.236.817-.355 1.226-.296.35.06.643.296.876.59.058.06 5.021 7.144 6.54 9.564 1.693 2.598 1.81 6.08.35 9.328z"/></symbol><symbol id="icon-idea" viewBox="0 0 58 59"><path d="M44.19 29.724c0-8.35-6.808-15.223-15.222-15.223S13.745 21.31 13.745 29.724c0 1.156.129 2.376.45 3.597.514 2.312 1.477 4.239 2.826 6.68.707 1.284 1.413 2.055 1.927 2.633.771.835.9 1.028.9 2.505v3.468c0 1.477.835 2.698 2.055 3.34.643 4.24 2.634 6.937 7.066 6.937s6.423-2.698 7.065-6.937c1.22-.642 2.056-1.862 2.056-3.34V45.14c0-1.477.193-1.67.9-2.505.513-.578 1.22-1.35 1.926-2.634 1.413-2.44 2.377-4.367 2.826-6.68.32-1.22.448-2.44.448-3.596zM34.17 45.396v3.083H23.766v-3.083h10.406zm-5.202 9.57c-1.092 0-2.44 0-3.083-2.633h6.102c-.578 2.633-1.927 2.633-3.019 2.633zm11.048-22.545c-.386 1.863-1.22 3.468-2.441 5.653-.514.899-1.028 1.477-1.477 1.99-.45.515-.835.964-1.156 1.478H22.995a8.365 8.365 0 00-1.156-1.477c-.45-.514-.9-1.028-1.477-1.991-1.22-2.12-2.056-3.726-2.441-5.588v-.064c-.257-.9-.321-1.863-.321-2.698 0-6.23 5.074-11.369 11.369-11.369a11.349 11.349 0 0111.368 11.369c0 .835-.129 1.734-.321 2.697zM56.073 27.733h-4.689a1.893 1.893 0 00-1.927 1.927c0 1.092.835 1.927 1.927 1.927h4.689A1.893 1.893 0 0058 29.66c0-1.092-.9-1.927-1.927-1.927zM44.768 15.786c.514 0 .964-.193 1.35-.578l3.34-3.34c.77-.77.77-1.991 0-2.698-.771-.77-1.991-.77-2.698 0l-3.34 3.34c-.77.771-.77 1.991 0 2.698.385.385.898.578 1.348.578zM28.968 9.234a1.893 1.893 0 001.927-1.927V2.62A1.893 1.893 0 0028.968.692a1.893 1.893 0 00-1.927 1.927v4.688c0 1.028.835 1.927 1.927 1.927zM11.819 15.208c.385.385.899.578 1.348.578.45 0 .964-.193 1.35-.578.77-.77.77-1.991 0-2.698l-3.34-3.34c-.771-.77-1.992-.77-2.698 0-.77.77-.77 1.991 0 2.698l3.34 3.34zM8.543 29.66a1.893 1.893 0 00-1.927-1.927H1.927A1.893 1.893 0 000 29.66c0 1.091.835 1.927 1.927 1.927h4.689a1.933 1.933 0 001.927-1.927zM11.818 44.111l-3.34 3.34c-.77.771-.77 1.992 0 2.698.386.385.9.578 1.35.578.45 0 .963-.193 1.349-.578l3.34-3.34c.77-.77.77-1.991 0-2.698-.771-.77-1.992-.77-2.698 0zM46.117 44.111c-.77-.77-1.99-.77-2.697 0-.77.771-.77 1.991 0 2.698l3.34 3.34c.385.386.899.578 1.349.578.45 0 .963-.192 1.349-.578.77-.77.77-1.99 0-2.697l-3.34-3.34z"/></symbol><symbol id="icon-mail" viewBox="0 0 25.656 19.219"><path d="M0 5.3s9.75 6.527 10.484 7.049a3.906 3.906 0 004.616.071c.749-.463 10.52-7.013 10.52-7.013v10.735c0 2.09-.682 3.077-3.041 3.077H3.292c-2.4 0-3.292-.954-3.292-3.292V5.3zM2.4 0A2.321 2.321 0 00.826 4.043c1.136.852 9.28 6.282 10.234 6.906a2.648 2.648 0 003.506 0c.664-.446 8.9-5.936 10.055-6.727A2.321 2.321 0 0023.473 0H2.4z" fill-rule="evenodd"/></symbol><symbol id="icon-media" viewBox="0 0 31 25"><path d="M25.047.797a57.959 57.959 0 00-19.157 0C2.263 1.562 0 3.922 0 7v10.937c0 3.125 2.263 5.454 5.952 6.25A57.69 57.69 0 0015.5 25c3.209 0 6.413-.267 9.579-.797 3.596-.688 5.921-3.125 5.921-6.25V7.016c0-3.11-2.325-5.547-5.952-6.219zm-4.495 12.407l-7.75 4.687a.737.737 0 01-.402.11.87.87 0 01-.389-.095.811.811 0 01-.387-.718V7.813a.82.82 0 01.387-.688.833.833 0 01.791 0l7.75 4.688a.794.794 0 01.366.672.802.802 0 01-.366.672v.046z"/></symbol><symbol id="icon-news" viewBox="0 0 33 30"><path d="M29.801 10.512H26.54V3.157A3.169 3.169 0 0023.383 0H3.157A3.169 3.169 0 000 3.157v23.487A3.169 3.169 0 003.157 29.8h25.291a4.501 4.501 0 004.51-4.51V13.669a3.169 3.169 0 00-3.157-3.157zM3.157 27.234a.548.548 0 01-.555-.555V3.157c0-.312.243-.555.555-.555h20.226c.312 0 .555.243.555.555v22.169c0 .693.139 1.318.416 1.908H3.157zm27.2-1.908c0 1.04-.868 1.908-1.909 1.908a1.925 1.925 0 01-1.908-1.908V13.114H29.8c.312 0 .555.243.555.555v11.657z"/><path d="M6.626 13.53h3.782a1.28 1.28 0 001.283-1.283V6.869a1.28 1.28 0 00-1.283-1.284H6.626A1.28 1.28 0 005.343 6.87v5.342c-.035.73.555 1.32 1.283 1.32zM19.914 16.306H6.626a1.28 1.28 0 00-1.283 1.283c0 .694.59 1.284 1.283 1.284h13.288a1.28 1.28 0 001.283-1.284 1.28 1.28 0 00-1.283-1.283zM19.913 10.928h-4.649a1.28 1.28 0 00-1.283 1.284c0 .694.59 1.283 1.284 1.283h4.648a1.28 1.28 0 001.284-1.283 1.28 1.28 0 00-1.284-1.284zM19.913 5.586h-4.649a1.28 1.28 0 00-1.283 1.283c0 .694.59 1.284 1.284 1.284h4.648a1.28 1.28 0 001.284-1.284 1.28 1.28 0 00-1.284-1.283zM19.914 21.648H6.626a1.28 1.28 0 00-1.283 1.284c0 .728.59 1.283 1.283 1.283h13.288a1.28 1.28 0 001.283-1.283 1.28 1.28 0 00-1.283-1.284z"/></symbol><symbol id="icon-onion" viewBox="0 0 68 68"><path d="M34 24.458c-2.193 0-4.058 4.277-4.058 9.542 0 5.264 1.755 9.541 4.058 9.541 5.264 0 9.542-4.277 9.542-9.541 0-5.265-4.278-9.542-9.542-9.542zm0 6.033c-2.962 0-2.522-1.427-2.304-2.523.549-1.974 1.316-2.522 2.304-2.522 2.742 0 4.935 1.097 4.935 2.522 0 1.316-2.193 2.523-4.935 2.523zm-.329-19.414v6.362c-8.664.877-8.664 32.245 0 33.122v6.362c-2.304-.22-4.168-1.865-5.593-4.497C25.665 48.258 24.02 41.567 24.02 34c0-7.568 1.645-14.258 4.058-18.425 1.425-2.633 3.29-4.388 5.593-4.498zM68 34c0 18.645-15.026 33.78-33.671 34v-5.264C50.123 62.516 62.845 49.684 62.845 34c0-15.794-12.723-28.626-28.406-28.735V0C52.974.22 68 15.355 68 34zM33.671 68C15.026 67.78 0 52.646 0 34 0 15.355 15.026.22 33.671 0v5.264c-.987.11-1.974.33-2.851.878C25.116 9.322 20.949 20.62 20.949 34s4.168 24.787 9.87 27.858c.878.549 1.865.768 2.852.878V68zm14.916-16.342a22.889 22.889 0 01-14.148 5.264V50.67c8.994-.22 16.232-7.568 16.232-16.56 0-8.995-7.239-16.453-16.232-16.562v-6.361c2.194 0 4.387.329 6.47.987.33.109.659.22.878.329.439.109.769.22 1.207.438.11.11.22.11.438.22.549.22 1.097.438 1.645.768 0 0 .11 0 .11.11.657.328 1.315.767 1.864 1.206 2.193 1.535 4.058 3.29 5.593 5.483.22.22.33.549.549.768.548.878 1.097 1.865 1.645 2.852.438.987.877 1.974 1.206 3.07.11.22.11.44.22.659.548 1.974.877 4.058.877 6.142 0 3.18-.658 6.141-1.755 8.883-.548 1.426-1.316 2.633-2.084 3.949-1.535 1.536-2.96 3.181-4.715 4.607z"/></symbol><symbol id="icon-reactor" viewBox="0 0 73 68"><path d="M72.475 20.949c0-1.901-.295-3.717-.845-5.449-.042-.126-.084-.296-.126-.422-.043-.043-.043-.127-.085-.17-.506-1.393-1.182-2.914-2.238-4.307a2.946 2.946 0 00-.338-.423 9.927 9.927 0 00-1.267-1.393c-.084-.084-.169-.127-.253-.211l-8.7-6.589C56.933.718 54.863 0 52.752 0L20.019.042c-2.07 0-4.097.676-5.786 1.901l-9.039 6.63-.084.085c-.17.127-.38.296-.55.464l-.084.085c-.169.169-.38.337-.549.549l-.042.042c-.17.211-.38.423-.55.634-.169.253-.337.464-.506.718-.17.253-.296.507-.464.76v.043c-.17.253-.296.549-.423.802-.253.55-.507 1.098-.676 1.647-.042.085-.042.17-.084.254-.084.21-.127.38-.211.591-.042.085-.042.17-.084.254-.084.296-.17.549-.211.802-.211.719-.296 1.31-.38 1.648v.127A16.406 16.406 0 000 21.117l.042 33.578C.042 62.045 5.955 68 13.262 68h.043l46.079-.042c3.548 0 6.842-1.394 9.334-3.928 2.492-2.535 3.843-5.871 3.843-9.419l-.086-33.662zM7.644 14.698c.042-.043.042-.085.084-.17.042-.042.084-.126.127-.168.126-.211.295-.423.422-.592l.127-.127.084-.084c.084-.084.17-.127.21-.21l9.04-6.674a3.993 3.993 0 012.281-.76l32.733-.042c.845 0 1.647.295 2.322.802l8.574 6.505a8.395 8.395 0 011.648 2.322l-58.117.043a5.39 5.39 0 01.465-.845zm56.807 45.15c-1.394 1.393-3.21 2.154-5.153 2.154l-46.08.084c-4.012 0-7.306-3.294-7.306-7.391l-.043-33.24 60.693-.084.043 33.24c0 1.985-.76 3.843-2.154 5.237z"/><path d="M60.27 50.387H44.641a2.938 2.938 0 00-2.957 2.957 2.938 2.938 0 002.957 2.957H60.27a2.938 2.938 0 002.957-2.957 2.965 2.965 0 00-2.957-2.957z"/></symbol><symbol id="icon-soc-inst" viewBox="0 0 19.781 19.75"><path d="M8.358 3.035A8.358 8.358 0 110 11.392a8.358 8.358 0 018.358-8.357zm8.89-3.029a2.533 2.533 0 11-2.533 2.533A2.532 2.532 0 0117.248.006zM8.358 4.78a6.613 6.613 0 11-6.613 6.612A6.612 6.612 0 018.358 4.78zm8.853-3.049a.808.808 0 11-.808.808.807.807 0 01.808-.808z" fill-rule="evenodd"/></symbol><symbol id="icon-soc-linked" viewBox="0 0 21.625 20.625"><path d="M.305 6.748v13.877H4.88V6.748H.305zm11.818 1.944V6.71H7.51v13.915h4.613V12.2s.414-2.173 2.4-2.173A2.322 2.322 0 0117 12.2v8.387h4.613V12.2c0-3.15-1.949-5.832-4.994-5.832a4.977 4.977 0 00-4.496 2.324zM2.554 4.803A2.409 2.409 0 100 2.44 2.321 2.321 0 002.554 4.8z" fill-rule="evenodd"/></symbol><symbol id="icon-soc-twitter" viewBox="0 0 19.969 16.375"><path d="M17.73 2.548A4.308 4.308 0 0019.457.264a7.863 7.863 0 01-2.563 1c-2.113-2.511-8-1.306-7.076 3.788A11.632 11.632 0 011.294.762a4.22 4.22 0 001.225 5.516 2.746 2.746 0 01-1.782-.557 4.165 4.165 0 003.231 4.123 4.367 4.367 0 01-1.783.111 4.1 4.1 0 003.789 2.842c-.548.841-3.364 1.972-5.962 1.727 9.358 5.4 18.425-2.079 17.941-10.475a7.582 7.582 0 002-2.117 6.98 6.98 0 01-2.223.616z" fill-rule="evenodd"/></symbol> <view id="icon-arr-down-view-dark" viewBox="0 0 37.031 21.125"/><view id="icon-arr-down-view-green" viewBox="0 31.125 37.031 21.125"/><view id="icon-arr-down-view-black" viewBox="0 62.25 37.031 21.125"/><view id="icon-arr-down-view-white" viewBox="0 93.375 37.031 21.125"/><view id="icon-arr-left-view-dark" viewBox="0 124.5 10 16"/><view id="icon-arr-left-view-green" viewBox="0 150.5 10 16"/><view id="icon-arr-left-view-black" viewBox="0 176.5 10 16"/><view id="icon-arr-left-view-white" viewBox="0 202.5 10 16"/><view id="icon-arr-link-view-dark" viewBox="0 228.5 20 20"/><view id="icon-arr-link-view-green" viewBox="0 258.5 20 20"/><view id="icon-arr-link-view-black" viewBox="0 288.5 20 20"/><view id="icon-arr-link-view-white" viewBox="0 318.5 20 20"/><view id="icon-arr-right-view-dark" viewBox="0 348.5 10 16"/><view id="icon-arr-right-view-green" viewBox="0 374.5 10 16"/><view id="icon-arr-right-view-black" viewBox="0 400.5 10 16"/><view id="icon-arr-right-view-white" viewBox="0 426.5 10 16"/><view id="icon-arr-thin-down-view-dark" viewBox="0 452.5 38 20"/><view id="icon-arr-thin-down-view-green" viewBox="0 482.5 38 20"/><view id="icon-arr-thin-down-view-black" viewBox="0 512.5 38 20"/><view id="icon-arr-thin-down-view-white" viewBox="0 542.5 38 20"/><view id="icon-arr-thin-up-view-dark" viewBox="0 572.5 38 20"/><view id="icon-arr-thin-up-view-green" viewBox="0 602.5 38 20"/><view id="icon-arr-thin-up-view-black" viewBox="0 632.5 38 20"/><view id="icon-arr-thin-up-view-white" viewBox="0 662.5 38 20"/><view id="icon-arr-up-view-dark" viewBox="0 692.5 37 21"/><view id="icon-arr-up-view-green" viewBox="0 723.5 37 21"/><view id="icon-arr-up-view-black" viewBox="0 754.5 37 21"/><view id="icon-arr-up-view-white" viewBox="0 785.5 37 21"/><view id="icon-burger-view-dark" viewBox="0 816.5 24.938 19.094"/><view id="icon-burger-view-green" viewBox="0 845.594 24.938 19.094"/><view id="icon-burger-view-black" viewBox="0 874.688 24.938 19.094"/><view id="icon-burger-view-white" viewBox="0 903.782 24.938 19.094"/><view id="icon-close-thin-view-dark" viewBox="0 932.876 42 42"/><view id="icon-close-thin-view-green" viewBox="0 984.876 42 42"/><view id="icon-close-thin-view-black" viewBox="0 1036.876 42 42"/><view id="icon-close-thin-view-white" viewBox="0 1088.876 42 42"/><view id="icon-close-view-dark" viewBox="0 1140.876 16 16"/><view id="icon-close-view-green" viewBox="0 1166.876 16 16"/><view id="icon-close-view-black" viewBox="0 1192.876 16 16"/><view id="icon-close-view-white" viewBox="0 1218.876 16 16"/><view id="icon-cloud-view-dark" viewBox="0 1244.876 54.375 51.406"/><view id="icon-cloud-view-green" viewBox="0 1306.282 54.375 51.406"/><view id="icon-cloud-view-black" viewBox="0 1367.6879999999999 54.375 51.406"/><view id="icon-cloud-view-white" viewBox="0 1429.094 54.375 51.406"/><view id="icon-facility-1-view-dark" viewBox="0 1490.5 119 118"/><view id="icon-facility-1-view-green" viewBox="0 1618.5 119 118"/><view id="icon-facility-1-view-black" viewBox="0 1746.5 119 118"/><view id="icon-facility-1-view-white" viewBox="0 1874.5 119 118"/><view id="icon-facility-2-view-dark" viewBox="0 2002.5 112 124"/><view id="icon-facility-2-view-green" viewBox="0 2136.5 112 124"/><view id="icon-facility-2-view-black" viewBox="0 2270.5 112 124"/><view id="icon-facility-2-view-white" viewBox="0 2404.5 112 124"/><view id="icon-facility-3-view-dark" viewBox="0 2538.5 124 91"/><view id="icon-facility-3-view-green" viewBox="0 2639.5 124 91"/><view id="icon-facility-3-view-black" viewBox="0 2740.5 124 91"/><view id="icon-facility-3-view-white" viewBox="0 2841.5 124 91"/><view id="icon-facility-4-view-dark" viewBox="0 2942.5 103 103"/><view id="icon-facility-4-view-green" viewBox="0 3055.5 103 103"/><view id="icon-facility-4-view-black" viewBox="0 3168.5 103 103"/><view id="icon-facility-4-view-white" viewBox="0 3281.5 103 103"/><view id="icon-facility-5-view-dark" viewBox="0 3394.5 108 115"/><view id="icon-facility-5-view-green" viewBox="0 3519.5 108 115"/><view id="icon-facility-5-view-black" viewBox="0 3644.5 108 115"/><view id="icon-facility-5-view-white" viewBox="0 3769.5 108 115"/><view id="icon-facility-6-view-dark" viewBox="0 3894.5 175 58"/><view id="icon-facility-6-view-green" viewBox="0 3962.5 175 58"/><view id="icon-facility-6-view-black" viewBox="0 4030.5 175 58"/><view id="icon-facility-6-view-white" viewBox="0 4098.5 175 58"/><view id="icon-fb-view-dark" viewBox="0 4166.5 20.312 35.188"/><view id="icon-fb-view-green" viewBox="0 4211.688 20.312 35.188"/><view id="icon-fb-view-black" viewBox="0 4256.876 20.312 35.188"/><view id="icon-fb-view-white" viewBox="0 4302.064 20.312 35.188"/><view id="icon-flask-view-dark" viewBox="0 4347.252 69 69"/><view id="icon-flask-view-green" viewBox="0 4426.252 69 69"/><view id="icon-flask-view-black" viewBox="0 4505.252 69 69"/><view id="icon-flask-view-white" viewBox="0 4584.252 69 69"/><view id="icon-formula-view-dark" viewBox="0 4663.252 49 69"/><view id="icon-formula-view-green" viewBox="0 4742.252 49 69"/><view id="icon-formula-view-black" viewBox="0 4821.252 49 69"/><view id="icon-formula-view-white" viewBox="0 4900.252 49 69"/><view id="icon-hands-view-dark" viewBox="0 4979.252 59 56"/><view id="icon-hands-view-green" viewBox="0 5045.252 59 56"/><view id="icon-hands-view-black" viewBox="0 5111.252 59 56"/><view id="icon-hands-view-white" viewBox="0 5177.252 59 56"/><view id="icon-help-view-dark" viewBox="0 5243.252 52 53"/><view id="icon-help-view-green" viewBox="0 5306.252 52 53"/><view id="icon-help-view-black" viewBox="0 5369.252 52 53"/><view id="icon-help-view-white" viewBox="0 5432.252 52 53"/><view id="icon-idea-view-dark" viewBox="0 5495.252 58 59"/><view id="icon-idea-view-green" viewBox="0 5564.252 58 59"/><view id="icon-idea-view-black" viewBox="0 5633.252 58 59"/><view id="icon-idea-view-white" viewBox="0 5702.252 58 59"/><view id="icon-mail-view-dark" viewBox="0 5771.252 25.656 19.219"/><view id="icon-mail-view-green" viewBox="0 5800.4710000000005 25.656 19.219"/><view id="icon-mail-view-black" viewBox="0 5829.6900000000005 25.656 19.219"/><view id="icon-mail-view-white" viewBox="0 5858.909000000001 25.656 19.219"/><view id="icon-media-view-dark" viewBox="0 5888.128000000001 31 25"/><view id="icon-media-view-green" viewBox="0 5923.128000000001 31 25"/><view id="icon-media-view-black" viewBox="0 5958.128000000001 31 25"/><view id="icon-media-view-white" viewBox="0 5993.128000000001 31 25"/><view id="icon-news-view-dark" viewBox="0 6028.128000000001 33 30"/><view id="icon-news-view-green" viewBox="0 6068.128000000001 33 30"/><view id="icon-news-view-black" viewBox="0 6108.128000000001 33 30"/><view id="icon-news-view-white" viewBox="0 6148.128000000001 33 30"/><view id="icon-onion-view-dark" viewBox="0 6188.128000000001 68 68"/><view id="icon-onion-view-green" viewBox="0 6266.128000000001 68 68"/><view id="icon-onion-view-black" viewBox="0 6344.128000000001 68 68"/><view id="icon-onion-view-white" viewBox="0 6422.128000000001 68 68"/><view id="icon-reactor-view-dark" viewBox="0 6500.128000000001 73 68"/><view id="icon-reactor-view-green" viewBox="0 6578.128000000001 73 68"/><view id="icon-reactor-view-black" viewBox="0 6656.128000000001 73 68"/><view id="icon-reactor-view-white" viewBox="0 6734.128000000001 73 68"/><view id="icon-soc-inst-view-dark" viewBox="0 6812.128000000001 19.781 19.75"/><view id="icon-soc-inst-view-green" viewBox="0 6841.878000000001 19.781 19.75"/><view id="icon-soc-inst-view-black" viewBox="0 6871.628000000001 19.781 19.75"/><view id="icon-soc-inst-view-white" viewBox="0 6901.378000000001 19.781 19.75"/><view id="icon-soc-linked-view-dark" viewBox="0 6931.128000000001 21.625 20.625"/><view id="icon-soc-linked-view-green" viewBox="0 6961.753000000001 21.625 20.625"/><view id="icon-soc-linked-view-black" viewBox="0 6992.378000000001 21.625 20.625"/><view id="icon-soc-linked-view-white" viewBox="0 7023.003000000001 21.625 20.625"/><view id="icon-soc-twitter-view-dark" viewBox="0 7053.628000000001 19.969 16.375"/><view id="icon-soc-twitter-view-green" viewBox="0 7080.003000000001 19.969 16.375"/><view id="icon-soc-twitter-view-black" viewBox="0 7106.378000000001 19.969 16.375"/><view id="icon-soc-twitter-view-white" viewBox="0 7132.753000000001 19.969 16.375"/> <use xlink:href="#icon-arr-down" x="0" y="0" width="37.031" height="21.125" style="fill:#112D32"/><use xlink:href="#icon-arr-down" x="0" y="31.125" width="37.031" height="21.125" style="fill:#008698"/><use xlink:href="#icon-arr-down" x="0" y="62.25" width="37.031" height="21.125" style="fill:#000000"/><use xlink:href="#icon-arr-down" x="0" y="93.375" width="37.031" height="21.125" style="fill:#ffffff"/><use xlink:href="#icon-arr-left" x="0" y="124.5" width="10" height="16" style="fill:#112D32"/><use xlink:href="#icon-arr-left" x="0" y="150.5" width="10" height="16" style="fill:#008698"/><use xlink:href="#icon-arr-left" x="0" y="176.5" width="10" height="16" style="fill:#000000"/><use xlink:href="#icon-arr-left" x="0" y="202.5" width="10" height="16" style="fill:#ffffff"/><use xlink:href="#icon-arr-link" x="0" y="228.5" width="20" height="20" style="fill:#112D32"/><use xlink:href="#icon-arr-link" x="0" y="258.5" width="20" height="20" style="fill:#008698"/><use xlink:href="#icon-arr-link" x="0" y="288.5" width="20" height="20" style="fill:#000000"/><use xlink:href="#icon-arr-link" x="0" y="318.5" width="20" height="20" style="fill:#ffffff"/><use xlink:href="#icon-arr-right" x="0" y="348.5" width="10" height="16" style="fill:#112D32"/><use xlink:href="#icon-arr-right" x="0" y="374.5" width="10" height="16" style="fill:#008698"/><use xlink:href="#icon-arr-right" x="0" y="400.5" width="10" height="16" style="fill:#000000"/><use xlink:href="#icon-arr-right" x="0" y="426.5" width="10" height="16" style="fill:#ffffff"/><use xlink:href="#icon-arr-thin-down" x="0" y="452.5" width="38" height="20" style="fill:#112D32"/><use xlink:href="#icon-arr-thin-down" x="0" y="482.5" width="38" height="20" style="fill:#008698"/><use xlink:href="#icon-arr-thin-down" x="0" y="512.5" width="38" height="20" style="fill:#000000"/><use xlink:href="#icon-arr-thin-down" x="0" y="542.5" width="38" height="20" style="fill:#ffffff"/><use xlink:href="#icon-arr-thin-up" x="0" y="572.5" width="38" height="20" style="fill:#112D32"/><use xlink:href="#icon-arr-thin-up" x="0" y="602.5" width="38" height="20" style="fill:#008698"/><use xlink:href="#icon-arr-thin-up" x="0" y="632.5" width="38" height="20" style="fill:#000000"/><use xlink:href="#icon-arr-thin-up" x="0" y="662.5" width="38" height="20" style="fill:#ffffff"/><use xlink:href="#icon-arr-up" x="0" y="692.5" width="37" height="21" style="fill:#112D32"/><use xlink:href="#icon-arr-up" x="0" y="723.5" width="37" height="21" style="fill:#008698"/><use xlink:href="#icon-arr-up" x="0" y="754.5" width="37" height="21" style="fill:#000000"/><use xlink:href="#icon-arr-up" x="0" y="785.5" width="37" height="21" style="fill:#ffffff"/><use xlink:href="#icon-burger" x="0" y="816.5" width="24.938" height="19.094" style="fill:#112D32"/><use xlink:href="#icon-burger" x="0" y="845.594" width="24.938" height="19.094" style="fill:#008698"/><use xlink:href="#icon-burger" x="0" y="874.688" width="24.938" height="19.094" style="fill:#000000"/><use xlink:href="#icon-burger" x="0" y="903.782" width="24.938" height="19.094" style="fill:#ffffff"/><use xlink:href="#icon-close-thin" x="0" y="932.876" width="42" height="42" style="fill:#112D32"/><use xlink:href="#icon-close-thin" x="0" y="984.876" width="42" height="42" style="fill:#008698"/><use xlink:href="#icon-close-thin" x="0" y="1036.876" width="42" height="42" style="fill:#000000"/><use xlink:href="#icon-close-thin" x="0" y="1088.876" width="42" height="42" style="fill:#ffffff"/><use xlink:href="#icon-close" x="0" y="1140.876" width="16" height="16" style="fill:#112D32"/><use xlink:href="#icon-close" x="0" y="1166.876" width="16" height="16" style="fill:#008698"/><use xlink:href="#icon-close" x="0" y="1192.876" width="16" height="16" style="fill:#000000"/><use xlink:href="#icon-close" x="0" y="1218.876" width="16" height="16" style="fill:#ffffff"/><use xlink:href="#icon-cloud" x="0" y="1244.876" width="54.375" height="51.406" style="fill:#112D32"/><use xlink:href="#icon-cloud" x="0" y="1306.282" width="54.375" height="51.406" style="fill:#008698"/><use xlink:href="#icon-cloud" x="0" y="1367.6879999999999" width="54.375" height="51.406" style="fill:#000000"/><use xlink:href="#icon-cloud" x="0" y="1429.094" width="54.375" height="51.406" style="fill:#ffffff"/><use xlink:href="#icon-facility-1" x="0" y="1490.5" width="119" height="118" style="fill:#112D32"/><use xlink:href="#icon-facility-1" x="0" y="1618.5" width="119" height="118" style="fill:#008698"/><use xlink:href="#icon-facility-1" x="0" y="1746.5" width="119" height="118" style="fill:#000000"/><use xlink:href="#icon-facility-1" x="0" y="1874.5" width="119" height="118" style="fill:#ffffff"/><use xlink:href="#icon-facility-2" x="0" y="2002.5" width="112" height="124" style="fill:#112D32"/><use xlink:href="#icon-facility-2" x="0" y="2136.5" width="112" height="124" style="fill:#008698"/><use xlink:href="#icon-facility-2" x="0" y="2270.5" width="112" height="124" style="fill:#000000"/><use xlink:href="#icon-facility-2" x="0" y="2404.5" width="112" height="124" style="fill:#ffffff"/><use xlink:href="#icon-facility-3" x="0" y="2538.5" width="124" height="91" style="fill:#112D32"/><use xlink:href="#icon-facility-3" x="0" y="2639.5" width="124" height="91" style="fill:#008698"/><use xlink:href="#icon-facility-3" x="0" y="2740.5" width="124" height="91" style="fill:#000000"/><use xlink:href="#icon-facility-3" x="0" y="2841.5" width="124" height="91" style="fill:#ffffff"/><use xlink:href="#icon-facility-4" x="0" y="2942.5" width="103" height="103" style="fill:#112D32"/><use xlink:href="#icon-facility-4" x="0" y="3055.5" width="103" height="103" style="fill:#008698"/><use xlink:href="#icon-facility-4" x="0" y="3168.5" width="103" height="103" style="fill:#000000"/><use xlink:href="#icon-facility-4" x="0" y="3281.5" width="103" height="103" style="fill:#ffffff"/><use xlink:href="#icon-facility-5" x="0" y="3394.5" width="108" height="115" style="fill:#112D32"/><use xlink:href="#icon-facility-5" x="0" y="3519.5" width="108" height="115" style="fill:#008698"/><use xlink:href="#icon-facility-5" x="0" y="3644.5" width="108" height="115" style="fill:#000000"/><use xlink:href="#icon-facility-5" x="0" y="3769.5" width="108" height="115" style="fill:#ffffff"/><use xlink:href="#icon-facility-6" x="0" y="3894.5" width="175" height="58" style="fill:#112D32"/><use xlink:href="#icon-facility-6" x="0" y="3962.5" width="175" height="58" style="fill:#008698"/><use xlink:href="#icon-facility-6" x="0" y="4030.5" width="175" height="58" style="fill:#000000"/><use xlink:href="#icon-facility-6" x="0" y="4098.5" width="175" height="58" style="fill:#ffffff"/><use xlink:href="#icon-fb" x="0" y="4166.5" width="20.312" height="35.188" style="fill:#112D32"/><use xlink:href="#icon-fb" x="0" y="4211.688" width="20.312" height="35.188" style="fill:#008698"/><use xlink:href="#icon-fb" x="0" y="4256.876" width="20.312" height="35.188" style="fill:#000000"/><use xlink:href="#icon-fb" x="0" y="4302.064" width="20.312" height="35.188" style="fill:#ffffff"/><use xlink:href="#icon-flask" x="0" y="4347.252" width="69" height="69" style="fill:#112D32"/><use xlink:href="#icon-flask" x="0" y="4426.252" width="69" height="69" style="fill:#008698"/><use xlink:href="#icon-flask" x="0" y="4505.252" width="69" height="69" style="fill:#000000"/><use xlink:href="#icon-flask" x="0" y="4584.252" width="69" height="69" style="fill:#ffffff"/><use xlink:href="#icon-formula" x="0" y="4663.252" width="49" height="69" style="fill:#112D32"/><use xlink:href="#icon-formula" x="0" y="4742.252" width="49" height="69" style="fill:#008698"/><use xlink:href="#icon-formula" x="0" y="4821.252" width="49" height="69" style="fill:#000000"/><use xlink:href="#icon-formula" x="0" y="4900.252" width="49" height="69" style="fill:#ffffff"/><use xlink:href="#icon-hands" x="0" y="4979.252" width="59" height="56" style="fill:#112D32"/><use xlink:href="#icon-hands" x="0" y="5045.252" width="59" height="56" style="fill:#008698"/><use xlink:href="#icon-hands" x="0" y="5111.252" width="59" height="56" style="fill:#000000"/><use xlink:href="#icon-hands" x="0" y="5177.252" width="59" height="56" style="fill:#ffffff"/><use xlink:href="#icon-help" x="0" y="5243.252" width="52" height="53" style="fill:#112D32"/><use xlink:href="#icon-help" x="0" y="5306.252" width="52" height="53" style="fill:#008698"/><use xlink:href="#icon-help" x="0" y="5369.252" width="52" height="53" style="fill:#000000"/><use xlink:href="#icon-help" x="0" y="5432.252" width="52" height="53" style="fill:#ffffff"/><use xlink:href="#icon-idea" x="0" y="5495.252" width="58" height="59" style="fill:#112D32"/><use xlink:href="#icon-idea" x="0" y="5564.252" width="58" height="59" style="fill:#008698"/><use xlink:href="#icon-idea" x="0" y="5633.252" width="58" height="59" style="fill:#000000"/><use xlink:href="#icon-idea" x="0" y="5702.252" width="58" height="59" style="fill:#ffffff"/><use xlink:href="#icon-mail" x="0" y="5771.252" width="25.656" height="19.219" style="fill:#112D32"/><use xlink:href="#icon-mail" x="0" y="5800.4710000000005" width="25.656" height="19.219" style="fill:#008698"/><use xlink:href="#icon-mail" x="0" y="5829.6900000000005" width="25.656" height="19.219" style="fill:#000000"/><use xlink:href="#icon-mail" x="0" y="5858.909000000001" width="25.656" height="19.219" style="fill:#ffffff"/><use xlink:href="#icon-media" x="0" y="5888.128000000001" width="31" height="25" style="fill:#112D32"/><use xlink:href="#icon-media" x="0" y="5923.128000000001" width="31" height="25" style="fill:#008698"/><use xlink:href="#icon-media" x="0" y="5958.128000000001" width="31" height="25" style="fill:#000000"/><use xlink:href="#icon-media" x="0" y="5993.128000000001" width="31" height="25" style="fill:#ffffff"/><use xlink:href="#icon-news" x="0" y="6028.128000000001" width="33" height="30" style="fill:#112D32"/><use xlink:href="#icon-news" x="0" y="6068.128000000001" width="33" height="30" style="fill:#008698"/><use xlink:href="#icon-news" x="0" y="6108.128000000001" width="33" height="30" style="fill:#000000"/><use xlink:href="#icon-news" x="0" y="6148.128000000001" width="33" height="30" style="fill:#ffffff"/><use xlink:href="#icon-onion" x="0" y="6188.128000000001" width="68" height="68" style="fill:#112D32"/><use xlink:href="#icon-onion" x="0" y="6266.128000000001" width="68" height="68" style="fill:#008698"/><use xlink:href="#icon-onion" x="0" y="6344.128000000001" width="68" height="68" style="fill:#000000"/><use xlink:href="#icon-onion" x="0" y="6422.128000000001" width="68" height="68" style="fill:#ffffff"/><use xlink:href="#icon-reactor" x="0" y="6500.128000000001" width="73" height="68" style="fill:#112D32"/><use xlink:href="#icon-reactor" x="0" y="6578.128000000001" width="73" height="68" style="fill:#008698"/><use xlink:href="#icon-reactor" x="0" y="6656.128000000001" width="73" height="68" style="fill:#000000"/><use xlink:href="#icon-reactor" x="0" y="6734.128000000001" width="73" height="68" style="fill:#ffffff"/><use xlink:href="#icon-soc-inst" x="0" y="6812.128000000001" width="19.781" height="19.75" style="fill:#112D32"/><use xlink:href="#icon-soc-inst" x="0" y="6841.878000000001" width="19.781" height="19.75" style="fill:#008698"/><use xlink:href="#icon-soc-inst" x="0" y="6871.628000000001" width="19.781" height="19.75" style="fill:#000000"/><use xlink:href="#icon-soc-inst" x="0" y="6901.378000000001" width="19.781" height="19.75" style="fill:#ffffff"/><use xlink:href="#icon-soc-linked" x="0" y="6931.128000000001" width="21.625" height="20.625" style="fill:#112D32"/><use xlink:href="#icon-soc-linked" x="0" y="6961.753000000001" width="21.625" height="20.625" style="fill:#008698"/><use xlink:href="#icon-soc-linked" x="0" y="6992.378000000001" width="21.625" height="20.625" style="fill:#000000"/><use xlink:href="#icon-soc-linked" x="0" y="7023.003000000001" width="21.625" height="20.625" style="fill:#ffffff"/><use xlink:href="#icon-soc-twitter" x="0" y="7053.628000000001" width="19.969" height="16.375" style="fill:#112D32"/><use xlink:href="#icon-soc-twitter" x="0" y="7080.003000000001" width="19.969" height="16.375" style="fill:#008698"/><use xlink:href="#icon-soc-twitter" x="0" y="7106.378000000001" width="19.969" height="16.375" style="fill:#000000"/><use xlink:href="#icon-soc-twitter" x="0" y="7132.753000000001" width="19.969" height="16.375" style="fill:#ffffff"/></svg>