<svg width="56" height="62" viewBox="0 0 56 62" fill="none" xmlns="http://www.w3.org/2000/svg">
<path d="M45.7477 22.853C45.3676 22.1952 45.2697 21.4278 45.4654 20.6943C45.5256 20.4751 45.6047 20.2671 45.7101 20.0706H44.3815V31.8354L27.9831 41.3434L15.337 34.0092H9.17212C9.25492 34.081 9.34148 34.1453 9.43934 34.202L27.0158 44.3942C27.3131 44.5681 27.6481 44.6551 27.9831 44.6551C28.318 44.6551 28.653 44.5681 28.9503 44.3942L46.5268 34.202C47.1214 33.858 47.494 33.2115 47.494 32.5197V24.1799C46.7677 23.9909 46.1278 23.5184 45.7439 22.8492L45.7477 22.853Z" fill="white"/>
<path d="M11.5884 12.8196L27.9868 3.31171L38.352 9.32268H44.5809L28.9503 0.260854C28.3557 -0.0869512 27.6142 -0.0869512 27.0158 0.260854L9.43934 10.453C8.84467 10.8009 8.47583 11.4435 8.47583 12.1354V23.1933H11.5922V12.8196H11.5884Z" fill="white"/>
<path d="M1.24948 24.8228C0.609654 24.8228 0.0752095 25.284 0.007463 25.9002C-0.0301739 26.2518 0.0752095 26.5882 0.308559 26.8491C0.538144 27.1062 0.865585 27.2536 1.21185 27.2536H8.47201V24.8228H1.24948Z" fill="white"/>
<path d="M27.697 27.2535C28.3632 27.2535 28.9089 26.7091 28.9089 26.0362C28.9089 25.3632 28.3669 24.8188 27.697 24.8188H11.5884V27.2497H27.697V27.2535Z" fill="white"/>
<path d="M11.5885 24.8228H8.47217V27.2536H11.5885V24.8228Z" fill="white"/>
<path d="M1.21191 29.9529C0.541972 29.9529 0 30.4973 0 31.1702C0 31.8431 0.541972 32.3875 1.21191 32.3875H8.47207V29.9567H1.21191V29.9529Z" fill="white"/>
<path d="M28.9051 31.1702C28.9051 30.501 28.3632 29.9529 27.6932 29.9529H11.5884V31.8393L12.5293 32.3875H27.6932C28.3594 32.3875 28.9051 31.8431 28.9051 31.1702Z" fill="white"/>
<path d="M11.5885 29.9529H8.47217V32.3837H12.5294L11.5885 31.8393V29.9529Z" fill="white"/>
<path d="M47.4339 8.83886L50.6744 10.9181H30.3166C29.722 10.9181 29.2251 11.3793 29.1649 11.9956C29.1273 12.3471 29.2289 12.6836 29.4434 12.9445C29.658 13.2015 29.9628 13.349 30.2827 13.349H54.8747C55.4957 13.349 56.0001 12.8046 56.0001 12.1317C56.0001 11.6856 55.7667 11.3113 55.4317 11.0996C55.4129 11.0882 48.6759 6.75203 48.6759 6.75203C48.1603 6.45337 47.5016 6.60459 47.1403 7.10361C46.9333 7.39093 46.8505 7.73117 46.9107 8.06764C46.9672 8.39654 47.1591 8.68008 47.4339 8.83886Z" fill="white"/>
<path d="M54.8785 16.0481H30.2827C29.9628 16.0481 29.658 16.1955 29.4434 16.4526C29.2289 16.7135 29.1273 17.0499 29.1649 17.4015C29.2289 18.0139 29.722 18.4789 30.3166 18.4789H50.6744L47.4339 20.5582C47.1591 20.717 46.9672 21.0005 46.9107 21.3294C46.8543 21.6621 46.9371 22.0061 47.1403 22.2935C47.5016 22.7925 48.1603 22.9437 48.6759 22.645C48.6759 22.645 55.4167 18.3088 55.4317 18.2975C55.7629 18.0858 56.0001 17.7115 56.0001 17.2654C56.0001 16.5963 55.4957 16.0481 54.8747 16.0481H54.8785Z" fill="white"/>
<path d="M16.2704 51.3919L14.7687 54.1138C13.5944 53.49 12.1642 52.9683 10.6625 52.9683C8.23117 52.9683 6.89882 54.2348 6.89882 55.9322C6.89882 57.6297 8.50216 58.915 10.9184 58.915C12.3524 58.915 13.681 58.3933 14.7687 57.7695L16.1839 60.4915C14.5617 61.3912 12.7852 61.9999 10.5044 61.9999C5.91274 61.9999 3.06738 59.433 3.06738 55.9511C3.06738 52.4693 5.9165 49.9023 10.5044 49.9023C12.7815 49.9023 14.509 50.4732 16.2704 51.3919Z" fill="white"/>
<path d="M25.8566 50.1782C28.8751 50.1782 30.3957 51.5316 30.3957 53.1951C30.3957 54.8585 29.4623 55.4331 27.9794 55.849V55.917C29.7031 56.3329 30.6365 57.2855 30.6365 58.6919C30.6365 60.5972 28.9956 61.7238 26.0975 61.7238H17.9529V50.1782H25.8566ZM21.7316 54.7186H25.3034C26.1991 54.7186 26.6847 54.3897 26.6847 53.7659C26.6847 53.2442 26.218 52.8813 25.3749 52.8813H21.7354V54.7186H21.7316ZM21.7316 59.017H25.3899C26.2706 59.017 26.7712 58.6352 26.7712 58.0794C26.7712 57.4216 26.2518 57.0738 25.3034 57.0738H21.7316V59.0132V59.017Z" fill="white"/>
<path d="M38.2804 50.1782L41.4382 57.0247H41.472L44.6298 50.1782H50.2565V61.7238H46.41V53.8377H46.3761L42.7178 61.7238H39.8348L36.1765 53.8377H36.1427V61.7238H32.6575V50.1782H38.2842H38.2804Z" fill="white"/>
</svg>
